
<svg xmlns="http://www.w3.org/2000/svg" version="1.1" xmlns:xlink="http://www.w3.org/1999/xlink" preserveAspectRatio="none" x="0px" y="0px" width="1600px" height="1600px" viewBox="0 0 1600 1600">
<defs>
<g id="Layer0_0_FILL">
<path fill="#410000" stroke="none" d="
M 1600 0
L 0 0 0 1600 1600 1600 1600 0
M 237.3 580.2
Q 237.3 586.05 236.6 590.15 235.95 593.9 234.55 596.6 232.85 599.35 230.8 600.4 228.4 601.4 225.65 601.4
L 211.65 601.75
Q 203.45 601.75 197.65 604.85 191.85 607.55 188.4 616.1 184.65 624.3 182.95 639 180.9 653.7 180.9 684.1
L 180.9 734.05
Q 180.9 759 178.15 776.75 175.45 794.2 168.6 808.2 161.4 822.2 149.8 832.45 138.15 842.4 120.4 846.15 138.15 849.55 149.8 859.8 161.4 869.7 168.6 884.05 175.45 898.1 178.15 915.5 180.9 932.95 180.9 958.25
L 180.9 1023.2
Q 180.9 1053.25 182.6 1067.95 184.3 1082.65 188.05 1091.2 191.5 1099.4 197.3 1102.5 202.75 1105.55 210.65 1105.55
L 225 1105.9
Q 228.05 1105.9 230.45 1106.95 232.85 1107.95 234.55 1110.7 235.95 1113.1 236.6 1117.2 237.3 1120.95 237.3 1127.1 237.3 1132.55 236.6 1136.65 235.95 1140.4 234.55 1142.8 232.85 1144.85 230.8 1146.25 228.75 1147.6 226.7 1147.6 220.55 1148.95 216.1 1149.3 211.3 1149.3 204.8 1149.3 181.9 1149.3 167.2 1142.15 152.55 1134.6 144 1120.25 135.45 1105.55 132.35 1083.7 129.3 1061.8 129.3 1025.6
L 129.3 955.15
Q 129.3 931.95 126.55 917.55 123.45 903.2 117.65 892.6 111.5 881.7 102.3 875.2 92.7 868.35 79.4 867 76.3 866.3 74.25 865.3 72.2 863.9 71.2 861.5 69.8 859.1 69.15 855.35 68.45 851.25 68.45 846.15 68.45 840.65 69.15 836.9 69.45 833.15 70.85 830.75 71.85 828 73.9 827 75.95 825.95 79.05 825.3 104.35 822.55 117 801 129.3 779.15 129.3 736.75
L 129.3 681.75
Q 129.3 645.85 132.7 623.95 135.8 602.1 144.65 587.4 153.2 572.7 167.9 565.5 182.25 558 204.8 558 211.3 558 215.75 558.35 219.85 558.35 226 559.7 228.4 559.7 230.8 561.1 232.85 562.1 234.55 564.5 235.95 566.9 236.6 571 237.3 574.75 237.3 580.2
M 460.45 594.9
Q 471.4 594.9 478.6 595.6 485.75 595.95 490.2 597.3 494.65 598.65 497.05 601.4 499.45 603.8 500.8 607.55
L 649.15 1018.4
Q 651.85 1025.9 652.2 1030.7 652.2 1035.15 649.5 1037.55 646.75 1039.95 640.6 1040.6 634.1 1041.3 623.5 1041.3 612.9 1041.3 606.75 1040.95 600.25 1040.3 597.2 1039.25 593.75 1037.9 592.4 1035.85 590.7 1033.8 589.35 1030.7
L 551.4 923.05 367.5 923.05 331.25 1029.35
Q 330.25 1032.4 328.55 1034.8 326.85 1036.85 323.75 1038.55 320.35 1039.95 314.5 1040.6 308.35 1041.3 298.8 1041.3 288.9 1041.3 282.75 1040.6 276.25 1039.6 273.85 1037.2 271.1 1034.8 271.45 1030.35 271.45 1025.6 274.2 1018.05
L 422.55 607.2
Q 423.9 603.45 426.3 601.05 428.35 598.65 432.8 597.3 436.9 595.95 443.7 595.6 450.2 594.9 460.45 594.9
M 833.75 590.45
Q 848.45 590.45 863.45 593.2 878.15 595.6 891.5 600.05 904.5 604.15 914.75 609.6 925 614.75 928.4 618.15 931.5 621.25 932.5 623.3 933.55 625 934.2 628.05 934.9 630.8 935.25 634.9 935.6 639 935.6 645.5 935.6 651.65 935.25 656.45 934.55 661.2 933.55 664.65 932.5 667.7 930.8 669.45 928.75 670.8 926.35 670.8 922.6 670.8 914.75 666 906.55 661.2 894.9 655.4 883.3 649.25 867.55 644.45 851.5 639.35 831.7 639.35 813.2 639.35 799.55 644.45 785.9 649.25 777 657.45 768.1 665.65 763.65 676.95 759.2 688.2 759.2 700.85 759.2 719.35 767.75 732.65 776.3 746 790.65 756.25 804.7 766.5 822.8 775.05 840.9 783.6 859.7 792.45 878.5 801 896.6 811.6 914.75 821.85 929.1 836.2 943.1 850.25 952 869.7 960.55 888.85 960.55 915.2 960.55 946.3 949.25 970.55 937.65 994.8 917.45 1011.9 896.95 1028.65 869.6 1037.2 841.95 1045.75 810.15 1045.75 787.95 1045.75 769.15 1042 750 1038.2 735.3 1032.75 720.25 1027.3 710.35 1021.5 700.1 1015.65 696.35 1011.55 692.25 1007.45 690.5 1001.3 688.45 994.8 688.45 984.2 688.45 976.7 689.15 971.9 689.85 966.8 691.2 963.7 692.55 960.65 694.6 959.6 696.65 958.25 699.4 958.25 704.2 958.25 713.1 964.05 721.6 969.85 735.3 976.7 748.95 983.55 768.45 989.7 787.6 995.5 812.9 995.5 832 995.5 848.1 990.35 863.8 985.25 875.45 976 886.7 966.45 892.85 952.8 899 939.1 899 921.65 899 902.85 890.45 889.55 881.9 876.2 867.9 866.3 853.9 856.05 836.1 847.85 818 839.3 799.2 830.75 780.4 821.85 762.65 811.25 744.85 800.7 730.85 786.3 716.85 771.95 708.3 752.8 699.4 733.35 699.4 706.35 699.4 678.65 709.65 657.1 719.55 635.25 737.7 620.55 755.45 605.85 780.4 598.35 805 590.45 833.75 590.45
M 1055.25 616.8
Q 1065.15 610.65 1079.85 604.85 1094.2 598.65 1113.35 594.55 1132.15 590.45 1154 590.45 1184.8 590.45 1208 598.35 1231.25 606.2 1247 620.55 1262.35 634.9 1270.25 655.05 1277.75 674.9 1277.75 699.15 1277.75 720 1272.3 738.15 1266.8 755.9 1256.2 769.9 1245.6 783.6 1230.25 793.5 1214.85 803.05 1194.7 806.85
L 1194.7 807.5
Q 1217.6 809.9 1236.75 819.15 1255.55 828 1269.2 841.7 1282.85 855.35 1290.75 873.8 1298.25 891.95 1298.25 912.8 1298.25 943.2 1287.65 967.8 1277.05 992.1 1257.25 1009.5 1237.4 1026.95 1208.35 1036.5 1179.3 1045.75 1142.75 1045.75 1120.5 1045.75 1101.4 1042.35 1081.9 1038.55 1066.85 1033.8 1051.8 1028.65 1041.9 1023.55 1032 1018.05 1029.6 1015.65 1026.85 1013.25 1025.5 1010.9 1024.15 1008.5 1023.1 1005.05 1022.1 1001.65 1021.75 996.85 1021.05 991.75 1021.05 984.55 1021.05 972.25 1023.45 967.45 1025.85 962.7 1030.65 962.7 1033.7 962.7 1042.95 968.15 1052.15 973.65 1066.85 980.1 1081.2 986.25 1100.7 991.75 1120.2 997.2 1144.1 997.2 1167.35 997.2 1184.8 991.4 1202.2 985.6 1214.15 975 1226.15 964.4 1232.3 950.05 1238.1 935.35 1238.1 918.25 1238.1 899.45 1230.6 884.4 1223.05 869.4 1208.35 858.45 1193.65 847.5 1172.15 841.7 1150.95 835.9 1123.6 835.9
L 1080.2 835.9
Q 1077.45 835.9 1074.7 834.85 1072.3 833.5 1070.25 830.75 1068.2 828 1067.2 823.6 1065.85 819.15 1065.85 811.95 1065.85 805.45 1066.85 801.35 1067.9 796.9 1069.95 794.5 1071.65 791.8 1074.05 790.75 1076.45 789.4 1079.5 789.4
L 1118.15 789.4
Q 1140.7 789.4 1158.8 783.6 1176.55 777.8 1189.2 766.85 1201.5 755.9 1208.35 740.85 1214.85 725.5 1214.85 706.7 1214.85 693 1210.4 680.7 1205.95 668.05 1197.1 658.85 1188.2 649.6 1174.5 644.45 1160.5 639 1142.4 639 1122.55 639 1106.15 645.15 1089.4 650.95 1076.45 657.8 1063.45 664.65 1054.9 670.8 1046.35 676.6 1042.95 676.6 1040.55 676.6 1038.85 675.9 1036.8 674.9 1035.75 672.5 1034.4 669.75 1034.05 665.3 1033.35 660.55 1033.35 653 1033.35 647.9 1033.7 644.15 1034.05 640.05 1035.05 637.3 1036.1 634.2 1037.45 631.85 1038.85 629.45 1042.25 626.35 1045.3 622.95 1055.25 616.8
M 1403.2 558.35
Q 1407.65 558 1414.15 558 1436.7 558 1451.4 565.5 1466.1 572.7 1474.65 587.4 1483.2 601.75 1486.6 623.65 1489.65 645.5 1489.65 681.75
L 1489.65 752.15
Q 1489.65 775.4 1492.75 787.35 1495.5 798.95 1501.65 806.85 1507.45 814.7 1517 819.15 1526.25 823.25 1539.6 824.95 1542.3 824.95 1544.35 826.3 1546.4 827.7 1547.8 830.4 1549.15 832.8 1549.85 836.55 1550.15 840 1550.15 845.45 1550.15 850.9 1549.85 854.7 1549.15 858.45 1548.1 860.85 1546.75 863.2 1544.7 864.6 1542.65 865.6 1539.9 865.95 1525.55 867.35 1516 876.2 1506.4 884.75 1500.6 898.45 1494.45 912.1 1492.05 929.2 1489.65 945.95 1489.65 970.55
L 1489.65 1025.6
Q 1489.65 1061.45 1486.25 1083.35 1482.85 1105.2 1474.3 1119.9 1465.75 1134.6 1451.05 1142.15 1436.35 1149.3 1414.15 1149.3 1407.65 1149.3 1403.2 1148.95 1398.75 1148.65 1391.9 1147.6 1389.55 1147.6 1387.5 1146.25 1385.45 1144.85 1384.05 1142.8 1382.7 1140.4 1381.65 1136.65 1380.65 1132.55 1380.65 1127.1 1380.65 1121.3 1381.65 1117.5 1382.7 1113.4 1384.4 1110.7 1385.75 1107.95 1387.8 1106.95 1389.85 1105.9 1392.25 1105.9
L 1406.95 1105.55
Q 1415.15 1105.55 1420.95 1102.5 1426.8 1099.4 1430.55 1091.2 1434.3 1083 1436 1068.3 1437.7 1053.6 1437.7 1023.2
L 1437.7 973.3
Q 1437.7 948 1440.8 928.15 1443.55 908.35 1450.35 891.25 1457.2 874.15 1469.15 861.85 1480.8 849.55 1498.2 845.8 1480.8 842.4 1469.15 834.85 1457.2 827.35 1450.35 816.05 1443.55 804.45 1440.8 789.4 1437.7 774.35 1437.7 749.05
L 1437.7 684.1
Q 1437.7 653.7 1436 639.35 1434.3 624.65 1430.9 616.45 1427.1 607.9 1421.65 604.85 1415.85 601.75 1408 601.75
L 1394.3 601.4
Q 1390.55 601.4 1388.15 600.4 1385.45 599.35 1383.7 596.95 1382 594.25 1381.3 590.45 1380.65 586.35 1380.65 580.2 1380.65 574.75 1381.65 571 1382.35 566.9 1384.05 564.5 1385.45 562.1 1387.8 561.1 1389.85 559.7 1392.95 559.7 1398.75 558.35 1403.2 558.35
M 458.75 655.75
L 458.4 655.75 382.2 876.2 536 876.2 458.75 655.75 Z"/>

<path fill="#FFFFFF" stroke="none" d="
M 1414.15 558
Q 1407.65 558 1403.2 558.35 1398.75 558.35 1392.95 559.7 1389.85 559.7 1387.8 561.1 1385.45 562.1 1384.05 564.5 1382.35 566.9 1381.65 571 1380.65 574.75 1380.65 580.2 1380.65 586.35 1381.3 590.45 1382 594.25 1383.7 596.95 1385.45 599.35 1388.15 600.4 1390.55 601.4 1394.3 601.4
L 1408 601.75
Q 1415.85 601.75 1421.65 604.85 1427.1 607.9 1430.9 616.45 1434.3 624.65 1436 639.35 1437.7 653.7 1437.7 684.1
L 1437.7 749.05
Q 1437.7 774.35 1440.8 789.4 1443.55 804.45 1450.35 816.05 1457.2 827.35 1469.15 834.85 1480.8 842.4 1498.2 845.8 1480.8 849.55 1469.15 861.85 1457.2 874.15 1450.35 891.25 1443.55 908.35 1440.8 928.15 1437.7 948 1437.7 973.3
L 1437.7 1023.2
Q 1437.7 1053.6 1436 1068.3 1434.3 1083 1430.55 1091.2 1426.8 1099.4 1420.95 1102.5 1415.15 1105.55 1406.95 1105.55
L 1392.25 1105.9
Q 1389.85 1105.9 1387.8 1106.95 1385.75 1107.95 1384.4 1110.7 1382.7 1113.4 1381.65 1117.5 1380.65 1121.3 1380.65 1127.1 1380.65 1132.55 1381.65 1136.65 1382.7 1140.4 1384.05 1142.8 1385.45 1144.85 1387.5 1146.25 1389.55 1147.6 1391.9 1147.6 1398.75 1148.65 1403.2 1148.95 1407.65 1149.3 1414.15 1149.3 1436.35 1149.3 1451.05 1142.15 1465.75 1134.6 1474.3 1119.9 1482.85 1105.2 1486.25 1083.35 1489.65 1061.45 1489.65 1025.6
L 1489.65 970.55
Q 1489.65 945.95 1492.05 929.2 1494.45 912.1 1500.6 898.45 1506.4 884.75 1516 876.2 1525.55 867.35 1539.9 865.95 1542.65 865.6 1544.7 864.6 1546.75 863.2 1548.1 860.85 1549.15 858.45 1549.85 854.7 1550.15 850.9 1550.15 845.45 1550.15 840 1549.85 836.55 1549.15 832.8 1547.8 830.4 1546.4 827.7 1544.35 826.3 1542.3 824.95 1539.6 824.95 1526.25 823.25 1517 819.15 1507.45 814.7 1501.65 806.85 1495.5 798.95 1492.75 787.35 1489.65 775.4 1489.65 752.15
L 1489.65 681.75
Q 1489.65 645.5 1486.6 623.65 1483.2 601.75 1474.65 587.4 1466.1 572.7 1451.4 565.5 1436.7 558 1414.15 558
M 1079.85 604.85
Q 1065.15 610.65 1055.25 616.8 1045.3 622.95 1042.25 626.35 1038.85 629.45 1037.45 631.85 1036.1 634.2 1035.05 637.3 1034.05 640.05 1033.7 644.15 1033.35 647.9 1033.35 653 1033.35 660.55 1034.05 665.3 1034.4 669.75 1035.75 672.5 1036.8 674.9 1038.85 675.9 1040.55 676.6 1042.95 676.6 1046.35 676.6 1054.9 670.8 1063.45 664.65 1076.45 657.8 1089.4 650.95 1106.15 645.15 1122.55 639 1142.4 639 1160.5 639 1174.5 644.45 1188.2 649.6 1197.1 658.85 1205.95 668.05 1210.4 680.7 1214.85 693 1214.85 706.7 1214.85 725.5 1208.35 740.85 1201.5 755.9 1189.2 766.85 1176.55 777.8 1158.8 783.6 1140.7 789.4 1118.15 789.4
L 1079.5 789.4
Q 1076.45 789.4 1074.05 790.75 1071.65 791.8 1069.95 794.5 1067.9 796.9 1066.85 801.35 1065.85 805.45 1065.85 811.95 1065.85 819.15 1067.2 823.6 1068.2 828 1070.25 830.75 1072.3 833.5 1074.7 834.85 1077.45 835.9 1080.2 835.9
L 1123.6 835.9
Q 1150.95 835.9 1172.15 841.7 1193.65 847.5 1208.35 858.45 1223.05 869.4 1230.6 884.4 1238.1 899.45 1238.1 918.25 1238.1 935.35 1232.3 950.05 1226.15 964.4 1214.15 975 1202.2 985.6 1184.8 991.4 1167.35 997.2 1144.1 997.2 1120.2 997.2 1100.7 991.75 1081.2 986.25 1066.85 980.1 1052.15 973.65 1042.95 968.15 1033.7 962.7 1030.65 962.7 1025.85 962.7 1023.45 967.45 1021.05 972.25 1021.05 984.55 1021.05 991.75 1021.75 996.85 1022.1 1001.65 1023.1 1005.05 1024.15 1008.5 1025.5 1010.9 1026.85 1013.25 1029.6 1015.65 1032 1018.05 1041.9 1023.55 1051.8 1028.65 1066.85 1033.8 1081.9 1038.55 1101.4 1042.35 1120.5 1045.75 1142.75 1045.75 1179.3 1045.75 1208.35 1036.5 1237.4 1026.95 1257.25 1009.5 1277.05 992.1 1287.65 967.8 1298.25 943.2 1298.25 912.8 1298.25 891.95 1290.75 873.8 1282.85 855.35 1269.2 841.7 1255.55 828 1236.75 819.15 1217.6 809.9 1194.7 807.5
L 1194.7 806.85
Q 1214.85 803.05 1230.25 793.5 1245.6 783.6 1256.2 769.9 1266.8 755.9 1272.3 738.15 1277.75 720 1277.75 699.15 1277.75 674.9 1270.25 655.05 1262.35 634.9 1247 620.55 1231.25 606.2 1208 598.35 1184.8 590.45 1154 590.45 1132.15 590.45 1113.35 594.55 1094.2 598.65 1079.85 604.85
M 863.45 593.2
Q 848.45 590.45 833.75 590.45 805 590.45 780.4 598.35 755.45 605.85 737.7 620.55 719.55 635.25 709.65 657.1 699.4 678.65 699.4 706.35 699.4 733.35 708.3 752.8 716.85 771.95 730.85 786.3 744.85 800.7 762.65 811.25 780.4 821.85 799.2 830.75 818 839.3 836.1 847.85 853.9 856.05 867.9 866.3 881.9 876.2 890.45 889.55 899 902.85 899 921.65 899 939.1 892.85 952.8 886.7 966.45 875.45 976 863.8 985.25 848.1 990.35 832 995.5 812.9 995.5 787.6 995.5 768.45 989.7 748.95 983.55 735.3 976.7 721.6 969.85 713.1 964.05 704.2 958.25 699.4 958.25 696.65 958.25 694.6 959.6 692.55 960.65 691.2 963.7 689.85 966.8 689.15 971.9 688.45 976.7 688.45 984.2 688.45 994.8 690.5 1001.3 692.25 1007.45 696.35 1011.55 700.1 1015.65 710.35 1021.5 720.25 1027.3 735.3 1032.75 750 1038.2 769.15 1042 787.95 1045.75 810.15 1045.75 841.95 1045.75 869.6 1037.2 896.95 1028.65 917.45 1011.9 937.65 994.8 949.25 970.55 960.55 946.3 960.55 915.2 960.55 888.85 952 869.7 943.1 850.25 929.1 836.2 914.75 821.85 896.6 811.6 878.5 801 859.7 792.45 840.9 783.6 822.8 775.05 804.7 766.5 790.65 756.25 776.3 746 767.75 732.65 759.2 719.35 759.2 700.85 759.2 688.2 763.65 676.95 768.1 665.65 777 657.45 785.9 649.25 799.55 644.45 813.2 639.35 831.7 639.35 851.5 639.35 867.55 644.45 883.3 649.25 894.9 655.4 906.55 661.2 914.75 666 922.6 670.8 926.35 670.8 928.75 670.8 930.8 669.45 932.5 667.7 933.55 664.65 934.55 661.2 935.25 656.45 935.6 651.65 935.6 645.5 935.6 639 935.25 634.9 934.9 630.8 934.2 628.05 933.55 625 932.5 623.3 931.5 621.25 928.4 618.15 925 614.75 914.75 609.6 904.5 604.15 891.5 600.05 878.15 595.6 863.45 593.2
M 478.6 595.6
Q 471.4 594.9 460.45 594.9 450.2 594.9 443.7 595.6 436.9 595.95 432.8 597.3 428.35 598.65 426.3 601.05 423.9 603.45 422.55 607.2
L 274.2 1018.05
Q 271.45 1025.6 271.45 1030.35 271.1 1034.8 273.85 1037.2 276.25 1039.6 282.75 1040.6 288.9 1041.3 298.8 1041.3 308.35 1041.3 314.5 1040.6 320.35 1039.95 323.75 1038.55 326.85 1036.85 328.55 1034.8 330.25 1032.4 331.25 1029.35
L 367.5 923.05 551.4 923.05 589.35 1030.7
Q 590.7 1033.8 592.4 1035.85 593.75 1037.9 597.2 1039.25 600.25 1040.3 606.75 1040.95 612.9 1041.3 623.5 1041.3 634.1 1041.3 640.6 1040.6 646.75 1039.95 649.5 1037.55 652.2 1035.15 652.2 1030.7 651.85 1025.9 649.15 1018.4
L 500.8 607.55
Q 499.45 603.8 497.05 601.4 494.65 598.65 490.2 597.3 485.75 595.95 478.6 595.6
M 458.4 655.75
L 458.75 655.75 536 876.2 382.2 876.2 458.4 655.75
M 236.6 590.15
Q 237.3 586.05 237.3 580.2 237.3 574.75 236.6 571 235.95 566.9 234.55 564.5 232.85 562.1 230.8 561.1 228.4 559.7 226 559.7 219.85 558.35 215.75 558.35 211.3 558 204.8 558 182.25 558 167.9 565.5 153.2 572.7 144.65 587.4 135.8 602.1 132.7 623.95 129.3 645.85 129.3 681.75
L 129.3 736.75
Q 129.3 779.15 117 801 104.35 822.55 79.05 825.3 75.95 825.95 73.9 827 71.85 828 70.85 830.75 69.45 833.15 69.15 836.9 68.45 840.65 68.45 846.15 68.45 851.25 69.15 855.35 69.8 859.1 71.2 861.5 72.2 863.9 74.25 865.3 76.3 866.3 79.4 867 92.7 868.35 102.3 875.2 111.5 881.7 117.65 892.6 123.45 903.2 126.55 917.55 129.3 931.95 129.3 955.15
L 129.3 1025.6
Q 129.3 1061.8 132.35 1083.7 135.45 1105.55 144 1120.25 152.55 1134.6 167.2 1142.15 181.9 1149.3 204.8 1149.3 211.3 1149.3 216.1 1149.3 220.55 1148.95 226.7 1147.6 228.75 1147.6 230.8 1146.25 232.85 1144.85 234.55 1142.8 235.95 1140.4 236.6 1136.65 237.3 1132.55 237.3 1127.1 237.3 1120.95 236.6 1117.2 235.95 1113.1 234.55 1110.7 232.85 1107.95 230.45 1106.95 228.05 1105.9 225 1105.9
L 210.65 1105.55
Q 202.75 1105.55 197.3 1102.5 191.5 1099.4 188.05 1091.2 184.3 1082.65 182.6 1067.95 180.9 1053.25 180.9 1023.2
L 180.9 958.25
Q 180.9 932.95 178.15 915.5 175.45 898.1 168.6 884.05 161.4 869.7 149.8 859.8 138.15 849.55 120.4 846.15 138.15 842.4 149.8 832.45 161.4 822.2 168.6 808.2 175.45 794.2 178.15 776.75 180.9 759 180.9 734.05
L 180.9 684.1
Q 180.9 653.7 182.95 639 184.65 624.3 188.4 616.1 191.85 607.55 197.65 604.85 203.45 601.75 211.65 601.75
L 225.65 601.4
Q 228.4 601.4 230.8 600.4 232.85 599.35 234.55 596.6 235.95 593.9 236.6 590.15 Z"/>
</g>
</defs>

<g transform="matrix( 1, 0, 0, 1, 0,0) ">
<use xlink:href="#Layer0_0_FILL"/>
</g>
</svg>
