
<svg xmlns="http://www.w3.org/2000/svg" version="1.1" xmlns:xlink="http://www.w3.org/1999/xlink" preserveAspectRatio="none" x="0px" y="0px" width="1200px" height="1349px" viewBox="0 0 1200 1349">
<defs>
<g id="Layer1_0_FILL">
<path fill="#759ABB" stroke="none" d="
M 618 1074
Q 618 1074.5 618 1075 623 1075 627.95 1074.5 628 1074.5 628 1074 627.5 1074 627 1074 622.5 1074.05 618 1074 Z"/>

<path fill="#769ABC" stroke="none" d="
M 581 1075
Q 581 1074.5 580.95 1074.5 576.5 1074.05 572 1074 574.8 1075.75 580 1075.05 580.5 1075 581 1075 Z"/>

<path fill="#6B93B6" stroke="none" d="
M 611 875
Q 615 875 618.95 874.5 619 874.5 619 874 618.5 874 618 874 614.5 874 611 874 611 874.5 611 875 Z"/>

<path fill="#8AB2DC" stroke="none" d="
M 401 662
Q 400.5 662 400 662 400 666 400 670 400 670.5 400 671 401.75 668.25 401.05 663 401 662.5 401 662 Z"/>

<path fill="#C6D9EE" stroke="none" d="
M 201 654
Q 200.5 654 200 654 200 658 200 662 200 662.5 200 663 201.75 660.25 201.05 655 201 654.5 201 654 Z"/>

<path fill="#95B9E0" stroke="none" d="
M 576 276
Q 580.5 276 584.95 275.5 585 275.5 585 275 584.5 275 584 275 580 275 576 275 576 275.5 576 276 Z"/>

<path fill="#659AD1" fill-opacity="0.996078431372549" stroke="none" d="
M 773 575
Q 765.1 560.9 755.35 548.7 715.45 499.05 644.55 481.75 593.1 469.2 545.95 482.85 493.9 497.9 459.75 530.7 414.05 574.55 401 651 401 656 401 661 401 661.5 401 662 401 662.5 401.05 663 401.75 668.25 400 671 400.95 735.05 426.75 774.15 427 774.5 427 775 484 742.45 540.5 709.85 597.45 676.9 654.1 644.2 710.9 611.4 767.6 579 770.7 577.2 773 575 Z"/>

<path fill="#FEFEFE" fill-opacity="0.996078431372549" stroke="none" d="
M 852.65 365.4
Q 803.3 325.25 739 300.05 674.65 274.85 585 275 585 275.5 584.95 275.5 580.5 276 576 276 564.65 276.15 554.95 277.45 475.65 288.15 417.25 319.5 359.2 350.65 314.8 395.8 270.45 440.95 240.6 500.3 210.55 560.05 201 640 201 646.5 201 653 201 653.5 201 654 201 654.5 201.05 655 201.75 660.25 200 663 199.55 752.95 225.2 816.3 237.75 847.25 253 875 286.35 931.2 333.4 973.65 380.45 1016.1 442.85 1043.3 498.45 1067.55 572 1074 576.5 1074.05 580.95 1074.5 581 1074.5 581 1075 599 1075 617 1075 617.5 1075 618 1075 618 1074.5 618 1074 622.5 1074.05 627 1074 627.5 1074 628 1074 701.5 1068 756.35 1043.75 818.65 1016.15 866.05 974.05 913.4 931.9 946 875 916.45 857.55 886.5 840.15 830.05 807.45 773 775 759.65 798.65 741.55 817.55 697.8 863.3 619 874 619 874.5 618.95 874.5 615 875 611 875 557.4 876.1 521.55 859.95 459.55 831.95 427 775 427 774.5 426.75 774.15 400.95 735.05 400 671 400 670.5 400 670 400 666 400 662 400.5 662 401 662 401 661.5 401 661 401 656 401 651 414.05 574.55 459.75 530.7 493.9 497.9 545.95 482.85 593.1 469.2 644.55 481.75 715.45 499.05 755.35 548.7 765.1 560.9 773 575 830 542.5 886.8 509.65 916.45 492.45 946 475 941.95 467.05 937.25 459.8 902 405.55 852.65 365.4 Z"/>

<path fill="#6499D1" fill-opacity="0.996078431372549" stroke="none" d="
M 1184 337
Q 1173.4 316.55 1154.65 304.55 1099.9 269.6 1042.55 237.05 985.7 204.85 928.95 172.05 872.25 139.3 815.35 106.4 758.8 73.75 702 41 694.7 36.8 687.9 31.75 655.95 8.05 608 0 607.5 0 607 0 599.5 0 592 0 566.75 2.8 548.55 13 491.55 45.05 434.9 77.8 378.1 110.6 321.25 143.45 264.65 176.15 207.95 208.9 151.2 241.65 94.3 274.5 87.15 278.65 79.5 281.7 15.25 307.75 0 382 0 471.5 0 561 0 650.5 0 740 0 829.5 0 919 0 945 0 971 4.3 994.2 14.8 1011.15 15 1011.5 15 1012 72.6 980.1 129.2 947.4 186.05 914.55 242.7 882.2 248.4 878.9 253 875 237.75 847.25 225.2 816.3 199.55 752.95 200 663 200 662.5 200 662 200 658 200 654 200.5 654 201 654 201 653.5 201 653 201 646.5 201 640 210.55 560.05 240.6 500.3 270.45 440.95 314.8 395.8 359.2 350.65 417.25 319.5 475.65 288.15 554.95 277.45 564.65 276.15 576 276 576 275.5 576 275 580 275 584 275 584.5 275 585 275 674.65 274.85 739 300.05 803.3 325.25 852.65 365.4 902 405.55 937.25 459.8 941.95 467.05 946 475 1002.8 442.3 1059.7 409.45 1116.25 376.75 1173.35 344.65 1179.3 341.3 1184 337 Z"/>

<path fill="#004C8C" fill-opacity="0.996078431372549" stroke="none" d="
M 1200 382
Q 1199.5 382 1199.5 381.95 1196.4 354.6 1184 337 1179.3 341.3 1173.35 344.65 1116.25 376.75 1059.7 409.45 1002.8 442.3 946 475 916.45 492.45 886.8 509.65 830 542.5 773 575 770.7 577.2 767.6 579 710.9 611.4 654.1 644.2 597.45 676.9 540.5 709.85 484 742.45 427 775 459.55 831.95 521.55 859.95 557.4 876.1 611 875 611 874.5 611 874 614.5 874 618 874 618.5 874 619 874 697.8 863.3 741.55 817.55 759.65 798.65 773 775 830.05 807.45 886.5 840.15 916.45 857.55 946 875 913.4 931.9 866.05 974.05 818.65 1016.15 756.35 1043.75 701.5 1068 628 1074 628 1074.5 627.95 1074.5 623 1075 618 1075 617.5 1075 617 1075 599 1075 581 1075 580.5 1075 580 1075.05 574.8 1075.75 572 1074 498.45 1067.55 442.85 1043.3 380.45 1016.1 333.4 973.65 286.35 931.2 253 875 248.4 878.9 242.7 882.2 186.05 914.55 129.2 947.4 72.6 980.1 15 1012 36 1047 73.5 1066.05 103 1081 131.6 1097.7 187.95 1130.6 245 1162.95 302.15 1195.35 358.6 1227.95 415.6 1260.9 471.4 1295 518.3 1323.7 571.7 1345.2 576.4 1347.1 580 1349 600.5 1349 621 1349 621.5 1349 622 1349 622 1348.5 622 1348 657.5 1338.5 684.5 1320.75 711.8 1302.8 740.65 1286.35 797.5 1253.95 854.15 1221.25 910.95 1188.4 967.75 1155.6 1024.4 1122.9 1081.7 1091.3 1125.3 1067.3 1163.1 1037.85 1178.15 1026.15 1187.65 1008.35 1196.75 991.25 1200 968 1200 943.5 1200 919 1200 829.5 1200 740 1200 650.5 1200 561 1200 471.5 1200 382
M 955 608
Q 955.5 608 956 608 956 630 956 652 956 652.5 956 653 977.5 653 999 653 999.5 653 1000 653 1000 674.5 1000 696 1000 696.5 1000 697
L 1000 697.5
Q 978 698 956 698 956 698.5 956 699 956.75 721.75 955 742 954.5 742 954 742 932.5 742 911 742 911 741.5 911 741 911 719.5 911 698 910.5 698 910 698 887.25 698.75 867 697
L 866.5 697
Q 866 675 866 653 866.5 653 867 653 888.5 653 910 653 910.5 653 911 653 911 631.5 911 610 911 609.5 911 609 911 608.5 911 608 933 608 955 608
M 1121 608
Q 1121.5 608 1122 608 1123.75 628.75 1123 652 1123 652.5 1123 653 1144 653 1165 653 1165.5 653 1166 653 1167.75 673.25 1167 696 1167 696.5 1167 697
L 1167 697.5
Q 1145 698 1123 698 1123 698.5 1123 699 1123.75 721.75 1122 742 1121.5 742 1121 742 1099.5 742 1078 742
L 1077.5 742
Q 1077 720 1077 698 1076.5 698 1076 698 1053.25 698.75 1033 697 1033 696.5 1033 696 1033 674.5 1033 653 1033.5 653 1034 653 1055 653 1076 653 1076.5 653 1077 653 1077 652.5 1077 652 1077 630 1077 608 1077.5 608 1078 608 1099.5 608 1121 608 Z"/>

<path fill="#ABC8DE" stroke="none" d="
M 1166 696
Q 1166 696.5 1166 697 1166.5 697 1167 697 1167 696.5 1167 696 1167.75 673.25 1166 653 1166 674.5 1166 696
M 1034 653
Q 1033.5 653 1033 653 1033 674.5 1033 696 1033 696.5 1033 697 1033.5 697 1034 697 1034 696.5 1034 696 1034 674.5 1034 653 Z"/>

<path fill="#377CB1" stroke="none" d="
M 1078 698
Q 1077.5 698 1077 698 1077 720 1077.5 742
L 1078 742
Q 1078 741.5 1078 741 1078 719.5 1078 698
M 1123 699
Q 1123 698.5 1123 698 1122.5 698 1122 698 1122 719.5 1122 741 1122 741.5 1122 742 1123.75 721.75 1123 699
M 1078 610
Q 1078 609.5 1078 609 1078 608.5 1078 608 1077.5 608 1077 608 1077 630 1077 652 1077 652.5 1077 653 1078.75 632.75 1078 610
M 1122 608
Q 1122 608.5 1122 609 1122 631 1122.5 653
L 1123 653
Q 1123 652.5 1123 652 1123.75 628.75 1122 608 Z"/>

<path fill="#679CC4" stroke="none" d="
M 1122 697
Q 1122 697.5 1122 698 1122.5 698 1123 698 1145 698 1167 697.5
L 1167 697
Q 1166.5 697 1166 697 1165.5 697 1165 697 1143.5 697 1122 697
M 1034 697
Q 1033.5 697 1033 697 1053.25 698.75 1076 698 1076.5 698 1077 698 1077.5 698 1078 698
L 1078 697.5
Q 1056 697 1034 697 Z"/>

<path fill="#FEFEFE" stroke="none" d="
M 1122 609
Q 1121.5 609 1121 609 1099.5 609 1078 609 1078 609.5 1078 610 1078.75 632.75 1077 653 1076.5 653 1076 653 1055 653 1034 653 1034 674.5 1034 696 1034 696.5 1034 697 1056 697 1078 697.5
L 1078 698
Q 1078 719.5 1078 741 1078 741.5 1078 742 1099.5 742 1121 742 1121.5 742 1122 742 1122 741.5 1122 741 1122 719.5 1122 698 1122 697.5 1122 697 1143.5 697 1165 697 1165.5 697 1166 697 1166 696.5 1166 696 1166 674.5 1166 653 1165.5 653 1165 653 1144 653 1123 653
L 1122.5 653
Q 1122 631 1122 609
M 955 609
Q 954.5 609 954 609 932.5 609 911 609 911 609.5 911 610 911 631.5 911 653 910.5 653 910 653 888.5 653 867 653 867 674.5 867 696 867 696.5 867 697 889 697 911 697.5
L 911 698
Q 911 719.5 911 741 911 741.5 911 742 932.5 742 954 742 954.5 742 955 742 955 741.5 955 741 955 719 955 697 955.5 697 956 697 977.5 697 999 697 999.5 697 1000 697 1000 696.5 1000 696 1000 674.5 1000 653 999.5 653 999 653 977.5 653 956 653
L 955.5 653
Q 955 631 955 609 Z"/>

<path fill="#7BA9CC" stroke="none" d="
M 1121 609
Q 1121.5 609 1122 609 1122 608.5 1122 608 1121.5 608 1121 608 1099.5 608 1078 608 1078 608.5 1078 609 1099.5 609 1121 609 Z"/>

<path fill="#689DC4" stroke="none" d="
M 911 698
L 911 697.5
Q 889 697 867 697 887.25 698.75 910 698 910.5 698 911 698
M 956 697
Q 956 697.5 956 698 978 698 1000 697.5
L 1000 697
Q 999.5 697 999 697 977.5 697 956 697 Z"/>

<path fill="#8EB5D3" stroke="none" d="
M 956 697
Q 955.5 697 955 697 955 719 955 741 955 741.5 955 742 956.75 721.75 956 699 956 698.5 956 698 956 697.5 956 697 Z"/>

<path fill="#5590BD" stroke="none" d="
M 867 653
Q 866.5 653 866 653 866 675 866.5 697
L 867 697
Q 867 696.5 867 696 867 674.5 867 653 Z"/>

<path fill="#83AECF" stroke="none" d="
M 954 609
Q 954.5 609 955 609 955 631 955.5 653
L 956 653
Q 956 652.5 956 652 956 630 956 608 955.5 608 955 608 933 608 911 608 911 608.5 911 609 932.5 609 954 609 Z"/>
</g>
</defs>

<g transform="matrix( 1, 0, 0, 1, 0,0) ">
<use xlink:href="#Layer1_0_FILL"/>
</g>
</svg>
