
<svg xmlns="http://www.w3.org/2000/svg" version="1.1" xmlns:xlink="http://www.w3.org/1999/xlink" preserveAspectRatio="none" x="0px" y="0px" width="1600px" height="1700px" viewBox="0 0 1600 1700">
<defs>
<g id="Layer0_0_FILL">
<path fill="#004C8C" fill-opacity="0.996078431372549" stroke="none" d="
M 1086.75 685.15
Q 1025.55 720.55 973 750.5 970.75 752.65 967.55 754.5 901.8 792.15 854.05 819.75 819.8 839.5 740.5 885.35 683.35 918.35 627 950.5 659.4 1007.4 721.5 1035.5 757.4 1051.6 811 1050.5
L 811 1049.5 819 1049.5
Q 897.7 1038.85 941.5 993.05 959.6 974.25 973 950.5 1028.85 982.35 1086.5 1015.7 1104 1025.85 1146 1050.5 1113.3 1107.55 1066 1149.55 1018.85 1191.55 956.3 1219.25 901.6 1243.5 828 1249.5
L 827.95 1250
Q 823.15 1250.5 818 1250.5
L 781 1250.5 780 1250.6
Q 774.75 1251.3 772 1249.5 698.55 1243.15 642.85 1218.85 580.4 1191.6 533.35 1149.2 486.25 1106.7 453 1050.5 448.55 1054.3 442.65 1057.75 378.25 1094.5 329.15 1122.95 275.35 1154.05 215 1187.5 235.95 1222.45 273.5 1241.6 302.45 1256.25 331.6 1273.2 387.9 1306.15 445 1338.45 495.3 1367 558.6 1403.45 614.65 1435.9 671.35 1470.5 718.4 1499.3 771.7 1520.7 776.85 1522.85 780 1524.5
L 822 1524.5 822 1523.5
Q 857.45 1514.05 884.5 1496.25 911.7 1478.4 940.65 1461.85 999.8 1428.1 1054.15 1396.75
L 1167.75 1331.1
Q 1222.35 1299.6 1281.65 1266.85 1325.3 1242.85 1363.05 1213.35 1378.15 1201.6 1387.65 1183.85 1396.7 1166.9 1400 1143.5
L 1400 557.5 1399.5 557.5
Q 1396.35 530.1 1384 512.5 1379.25 516.9 1373.3 520.15 1311.5 555 1259.65 585 1237.05 598.05 1146 650.5 1112.65 670.2 1086.75 685.15
M 1204.65 867.95
L 1203.6 868.55 1204.65 867.95 Z"/>

<path fill="#769ABC" stroke="none" d="
M 781 1250.5
L 780.95 1250
Q 775.7 1249.55 772 1249.5 774.75 1251.3 780 1250.6
L 781 1250.5 Z"/>

<path fill="#759ABB" stroke="none" d="
M 818 1249.5
L 818 1250.5
Q 823.15 1250.5 827.95 1250
L 828 1249.5 827 1249.5
Q 822.5 1249.6 818 1249.5 Z"/>

<path fill="#6B93B6" stroke="none" d="
M 811 1050.5
Q 815.15 1050.5 818.95 1050
L 819 1049.5 811 1049.5 811 1050.5 Z"/>

<path fill="#659AD1" fill-opacity="0.996078431372549" stroke="none" d="
M 745.95 658.4
Q 693.85 673.4 659.75 706.25 614 750.05 601 826.5
L 601 837.5 601 838.5
Q 601.75 843.75 600 846.5 600.9 910.45 626.75 949.7 627 950.05 627 950.5 683.35 918.35 740.5 885.35 819.8 839.5 854.05 819.75 901.8 792.15 967.55 754.5 970.75 752.65 973 750.5 964.9 736.2 955.3 724.25 915.45 674.6 844.5 657.25 793 644.7 745.95 658.4 Z"/>

<path fill="#FEFEFE" fill-opacity="0.996078431372549" stroke="none" d="
M 784.95 451
Q 780.65 451.5 776 451.5 764 451.75 754.95 453 675.8 463.65 617.25 495 559 526.3 514.75 571.3 470.5 616.35 440.6 675.8 410.55 735.55 401 815.5
L 401 827.75 401.05 830.5
Q 401.75 835.8 400 838.5 399.5 928.45 425.15 991.8 437.85 1023 453 1050.5 486.25 1106.7 533.35 1149.2 580.4 1191.6 642.85 1218.85 698.55 1243.15 772 1249.5 775.7 1249.55 780.95 1250
L 781 1250.5 818 1250.5 818 1249.5
Q 822.5 1249.6 827 1249.5
L 828 1249.5
Q 901.6 1243.5 956.3 1219.25 1018.85 1191.55 1066 1149.55 1113.3 1107.55 1146 1050.5 1104 1025.85 1086.5 1015.7 1028.85 982.35 973 950.5 959.6 974.25 941.5 993.05 897.7 1038.85 819 1049.5
L 818.95 1050
Q 815.15 1050.5 811 1050.5 757.4 1051.6 721.5 1035.5 659.4 1007.4 627 950.5 627 950.05 626.75 949.7 600.9 910.45 600 846.5
L 600 837.5 601 837.5 601 826.5
Q 614 750.05 659.75 706.25 693.85 673.4 745.95 658.4 793 644.7 844.5 657.25 915.45 674.6 955.3 724.25 964.9 736.2 973 750.5 1025.55 720.55 1086.75 685.15 1112.65 670.2 1146 650.5 1141.85 642.5 1137.25 635.3 1102.1 581.25 1052.65 540.9 1003.45 500.9 939 475.55 874.65 450.35 785 450.5
L 784.95 451 Z"/>

<path fill="#6499D1" fill-opacity="0.996078431372549" stroke="none" d="
M 808 175.5
L 792 175.5
Q 766.8 178.35 748.5 188.5 691.75 220.45 634.85 253.35
L 521.25 318.95
Q 413 381.5 407.9 384.4
L 294.3 450
Q 287.3 454.1 279.5 457.25 215.2 483.3 200 557.5
L 200 1146.5
Q 204.25 1169.7 214.8 1186.7 215 1187.1 215 1187.5 275.35 1154.05 329.15 1122.95 378.25 1094.5 442.65 1057.75 448.55 1054.3 453 1050.5 437.85 1023 425.15 991.8 399.5 928.45 400 838.5
L 400 829.5 401 829.5 401 827.75 401 815.5
Q 410.55 735.55 440.6 675.8 470.5 616.35 514.75 571.3 559 526.3 617.25 495 675.8 463.65 754.95 453 764 451.75 776 451.5
L 776 450.5 785 450.5
Q 874.65 450.35 939 475.55 1003.45 500.9 1052.65 540.9 1102.1 581.25 1137.25 635.3 1141.85 642.5 1146 650.5 1237.05 598.05 1259.65 585 1311.5 555 1373.3 520.15 1379.25 516.9 1384 512.5 1373.3 492 1354.65 480.05 1299.95 445.15 1242.55 412.6 1180.7 377.5 1128.95 347.6
L 902 216.5
Q 894.8 212.45 887.9 207.25 856.05 183.6 808 175.5 Z"/>

<path fill="#C6D9EE" stroke="none" d="
M 401 829.5
L 400 829.5 400 838.5
Q 401.75 835.8 401.05 830.5
L 401 829.5 Z"/>

<path fill="#95B9E0" stroke="none" d="
M 776 451.5
Q 780.65 451.5 784.95 451
L 785 450.5 776 450.5 776 451.5 Z"/>

<path fill="#8AB2DC" stroke="none" d="
M 601 837.5
L 600 837.5 600 846.5
Q 601.75 843.75 601 838.5
L 601 837.5 Z"/>
</g>
</defs>

<g transform="matrix( 1, 0, 0, 1, 0,0) ">
<use xlink:href="#Layer0_0_FILL"/>
</g>
</svg>
