
<svg xmlns="http://www.w3.org/2000/svg" version="1.1" xmlns:xlink="http://www.w3.org/1999/xlink" preserveAspectRatio="none" x="0px" y="0px" width="1600px" height="1600px" viewBox="0 0 1600 1600">
<defs>
<g id="Layer0_1_FILL">
<path fill="#FEFEFE" stroke="none" d="
M 0 1600
L 1600 1600 1600 0 0 0 0 1600
M 1300 1274
Q 1300.1 1286.05 1296.3 1295.35 1271.05 1358.5 1208 1385 1154.5 1412.2 1089 1426.95 1048.85 1436 1004.55 1441.6
L 1003.95 1441.6 1001.55 1441.95
Q 967.75 1446.1 931.95 1448.1 841.45 1453 758.95 1445.45 676.5 1437.8 604.9 1420.35 532.85 1402.85 469 1377 468.5 1377 468.1 1376.85 465.95 1375.4 463 1374 468 1374.55 472.85 1375.5 473 1375.5 473 1376 545.6 1392.3 625.95 1402.5 704.3 1412.55 793 1413.45 882.85 1414.35 962 1404.45 1042.05 1394.45 1111 1373.95 1179.85 1353.6 1236.55 1320.25 1256.3 1308.7 1275 1296 1275 1295.5 1275.25 1295.35 1287.35 1285.45 1300 1274
M 909.2 199.5
Q 920.3 226.7 918.65 266 915.95 328.85 887 367
L 886.9 368
Q 886.1 371.6 886 376 885.05 376 884.55 376.5 850.4 419.55 811.65 458.65 766.35 504.4 726.25 552.25 705.65 576.6 697.45 613.1 695.3 622.85 697.75 634.6 703.55 661.1 713.45 683.7 741 746.4 776 801.35 785.25 815.85 790 830
L 758.9 806.2
Q 708.2 767.3 664.8 721.1 621.55 675 601 606
L 600.45 605.95
Q 598.15 596 598 584
L 597.5 584
Q 597 578.8 597 573
L 598 573 598 562
Q 602.1 544.85 608.45 529.2 608.45 529 609 529 610.9 525.1 613.3 521.25 645.05 470.15 691.15 433 749.85 385.55 789.75 353 839.1 312.9 872.45 257.15 881.05 242.65 885.25 225.65 895.3 184.55 881 150 897.8 171.75 909.2 199.5
M 904.4 535.55
Q 888.55 556.8 897.95 588.75 907.9 623.05 926 650 946.2 680.25 950.65 725.2 952.9 748.35 945.9 764 918.05 825.65 851.8 848.6 839.55 852.9 826 856 860 828.65 871.95 779.75 875.85 763.55 870.9 750.05 855.65 709.25 831.45 677.85 823.75 667.95 817.05 658 797.05 627.8 798 577 811.05 500.5 861.2 461.25 911.35 421.8 979.75 400.25 1032.75 383.4 1095 380 1039.1 413.95 988.2 451.9 940.1 487.7 904.4 535.55
M 588.9 872.85
Q 607.05 873.75 631 874.55 718.35 877.7 805 873.8 891.5 869.95 971.8 860 1017 854.4 1055 849 1014.65 884 967 910.3 964.75 911.7 962.75 912 887.2 926.85 805 934.5 724.65 942.15 633 941.75 542.95 941.2 469.7 926.5 427.1 917.9 401.45 893.5 392.75 885.3 394 867 413.95 831 461.7 821.5 476.35 818.6 491 816 564.4 802.95 652 804 587.2 817.7 540.55 849.95 537.2 852.3 536 857 555.15 871.35 588.9 872.85
M 589.75 949.6
Q 576.85 956.35 576 975 588.75 993.2 614.9 998.55 690.7 1014.2 781 1007.45 864.3 1001.15 934 981 934.45 981 934.8 981.25 966.9 1001.45 1010 1029 996.9 1034.95 982.25 1039.95 915.8 1062.6 836 1072.1 754.05 1081.75 665 1075 624.2 1071.95 586.75 1065.6 528.25 1055.7 495 1022 494.45 1022 494.45 1021.85 493 1018.25 491 1015
L 491 1004
Q 493.4 999.45 495.45 994.2 495.45 994 496 994 496 993.45 496.25 993.25 527.45 953 590 949 590 949.5 589.75 949.6
M 376.6 1160.45
Q 411.75 1151.9 459 1154.1 490 1155.6 508.6 1169.2 520.2 1177.7 533 1184 498.6 1180.8 465 1187.35 433.55 1193.55 418 1216
L 418 1225
Q 435.5 1252.35 470.85 1262.45 540.05 1282.2 622.9 1289.85 705.1 1297.45 794 1296.1 883.15 1294.7 961.15 1284.1 1040.95 1273.2 1103.75 1246.35 1125.25 1237.15 1142 1223
L 1142 1222 1143 1222 1143 1221
Q 1164.85 1205.05 1158.5 1171.1 1157.7 1166.95 1157 1162 1182.05 1170.05 1194.65 1189.95
L 1195.15 1190.7
Q 1197.15 1194.1 1198.15 1196.25
L 1198.8 1197.45
Q 1201.7 1203.75 1203.55 1210.45 1205.65 1218.25 1204.4 1224.1 1200.4 1242.15 1190 1253 1190 1253.5 1189.75 1253.75 1183.9 1259.9 1177 1266 1141.15 1295.45 1090.4 1311.25 1022.3 1332.4 943.95 1342.6 864.95 1352.95 778 1355.45 686.85 1357.9 603.95 1351.45 520.35 1344.9 447.85 1328.6 374.35 1312.15 322.85 1274.2 300.3 1257.65 300 1219 321.65 1173.75 376.6 1160.45
M 626 1084
L 627 1084
Q 621.3 1089.95 619.05 1099.1
L 619 1100
Q 626.75 1120.3 652.75 1123.95 671.8 1126.55 693 1127.25 782.5 1130.4 855.25 1113.25 883.45 1106.7 907 1096
L 988.75 1149.35
Q 989 1149.6 989 1150 932.55 1183.1 855.15 1195.95 777.8 1208.8 688 1204.6 629.05 1201.9 583 1186 582.35 1186 582 1185.85 550.75 1177.1 537 1151
L 537 1136
Q 540 1128.05 544.3 1121.25 544.55 1121 545 1121
L 545 1119
Q 569.8 1085.95 626 1084
M 1175.8 806.7
Q 1195.15 808.45 1209.05 816.95 1257.75 846.75 1248.55 927.85 1246.5 946.7 1239.25 962.7 1211.15 1023.75 1149.65 1052.45 1116.9 1067.7 1078 1077.1 1065.6 1080.15 1051 1082 1051 1082.5 1050.9 1082.6 1046.15 1083.75 1044 1082
L 1046.05 1081.2
Q 1046.4 1081 1047 1081
L 1047 1080
Q 1099.95 1043.55 1140.05 993.85 1165.3 962.55 1175 915.8 1179.65 893.15 1172 877 1149.05 829 1079.15 834.75 1073.4 835.15 1070 834 1109 800.7 1175.8 806.7 Z"/>

<path fill="#FF6600" stroke="none" d="
M 1209.05 816.95
Q 1195.15 808.45 1175.8 806.7 1109 800.7 1070 834 1073.4 835.15 1079.15 834.75 1149.05 829 1172 877 1179.65 893.15 1175 915.8 1165.3 962.55 1140.05 993.85 1099.95 1043.55 1047 1080
L 1047 1081
Q 1046.4 1081 1046.05 1081.2
L 1044 1082
Q 1046.15 1083.75 1050.9 1082.6 1051 1082.5 1051 1082 1065.6 1080.15 1078 1077.1 1116.9 1067.7 1149.65 1052.45 1211.15 1023.75 1239.25 962.7 1246.5 946.7 1248.55 927.85 1257.75 846.75 1209.05 816.95
M 627 1084
L 626 1084
Q 569.8 1085.95 545 1119
L 545 1121
Q 544.55 1121 544.3 1121.25 540 1128.05 537 1136
L 537 1151
Q 550.75 1177.1 582 1185.85 582.35 1186 583 1186 629.05 1201.9 688 1204.6 777.8 1208.8 855.15 1195.95 932.55 1183.1 989 1150 989 1149.6 988.75 1149.35
L 907 1096
Q 883.45 1106.7 855.25 1113.25 782.5 1130.4 693 1127.25 671.8 1126.55 652.75 1123.95 626.75 1120.3 619 1100
L 619.05 1099.1
Q 621.3 1089.95 627 1084
M 459 1154.1
Q 411.75 1151.9 376.6 1160.45 321.65 1173.75 300 1219 300.3 1257.65 322.85 1274.2 374.35 1312.15 447.85 1328.6 520.35 1344.9 603.95 1351.45 686.85 1357.9 778 1355.45 864.95 1352.95 943.95 1342.6 1022.3 1332.4 1090.4 1311.25 1141.15 1295.45 1177 1266 1183.9 1259.9 1189.75 1253.75 1190 1253.5 1190 1253 1200.4 1242.15 1204.4 1224.1 1205.65 1218.25 1203.55 1210.45 1201.7 1203.75 1198.8 1197.45
L 1198.15 1196.25
Q 1197.15 1194.1 1195.15 1190.7
L 1194.65 1189.95
Q 1182.05 1170.05 1157 1162 1157.7 1166.95 1158.5 1171.1 1164.85 1205.05 1143 1221
L 1143 1222 1142 1222 1142 1223
Q 1125.25 1237.15 1103.75 1246.35 1040.95 1273.2 961.15 1284.1 883.15 1294.7 794 1296.1 705.1 1297.45 622.9 1289.85 540.05 1282.2 470.85 1262.45 435.5 1252.35 418 1225
L 418 1216
Q 433.55 1193.55 465 1187.35 498.6 1180.8 533 1184 520.2 1177.7 508.6 1169.2 490 1155.6 459 1154.1
M 576 975
Q 576.85 956.35 589.75 949.6 590 949.5 590 949 527.45 953 496.25 993.25 496 993.45 496 994 495.45 994 495.45 994.2 493.4 999.45 491 1004
L 491 1015
Q 493 1018.25 494.45 1021.85 494.45 1022 495 1022 528.25 1055.7 586.75 1065.6 624.2 1071.95 665 1075 754.05 1081.75 836 1072.1 915.8 1062.6 982.25 1039.95 996.9 1034.95 1010 1029 966.9 1001.45 934.8 981.25 934.45 981 934 981 864.3 1001.15 781 1007.45 690.7 1014.2 614.9 998.55 588.75 993.2 576 975
M 631 874.55
Q 607.05 873.75 588.9 872.85 555.15 871.35 536 857 537.2 852.3 540.55 849.95 587.2 817.7 652 804 564.4 802.95 491 816 476.35 818.6 461.7 821.5 413.95 831 394 867 392.75 885.3 401.45 893.5 427.1 917.9 469.7 926.5 542.95 941.2 633 941.75 724.65 942.15 805 934.5 887.2 926.85 962.75 912 964.75 911.7 967 910.3 1014.65 884 1055 849 1017 854.4 971.8 860 891.5 869.95 805 873.8 718.35 877.7 631 874.55
M 897.95 588.75
Q 888.55 556.8 904.4 535.55 940.1 487.7 988.2 451.9 1039.1 413.95 1095 380 1032.75 383.4 979.75 400.25 911.35 421.8 861.2 461.25 811.05 500.5 798 577 797.05 627.8 817.05 658 823.75 667.95 831.45 677.85 855.65 709.25 870.9 750.05 875.85 763.55 871.95 779.75 860 828.65 826 856 839.55 852.9 851.8 848.6 918.05 825.65 945.9 764 952.9 748.35 950.65 725.2 946.2 680.25 926 650 907.9 623.05 897.95 588.75
M 918.65 266
Q 920.3 226.7 909.2 199.5 897.8 171.75 881 150 895.3 184.55 885.25 225.65 881.05 242.65 872.45 257.15 839.1 312.9 789.75 353 749.85 385.55 691.15 433 645.05 470.15 613.3 521.25 610.9 525.1 609 529 608.45 529 608.45 529.2 602.1 544.85 598 562
L 598 573 597 573
Q 597 578.8 597.5 584
L 598 584
Q 598.15 596 600.45 605.95
L 601 606
Q 621.55 675 664.8 721.1 708.2 767.3 758.9 806.2
L 790 830
Q 785.25 815.85 776 801.35 741 746.4 713.45 683.7 703.55 661.1 697.75 634.6 695.3 622.85 697.45 613.1 705.65 576.6 726.25 552.25 766.35 504.4 811.65 458.65 850.4 419.55 884.55 376.5 885.05 376 886 376 886.1 371.6 886.9 368
L 887 367
Q 915.95 328.85 918.65 266
M 1296.3 1295.35
Q 1300.1 1286.05 1300 1274 1287.35 1285.45 1275.25 1295.35 1275 1295.5 1275 1296 1256.3 1308.7 1236.55 1320.25 1179.85 1353.6 1111 1373.95 1042.05 1394.45 962 1404.45 882.85 1414.35 793 1413.45 704.3 1412.55 625.95 1402.5 545.6 1392.3 473 1376 473 1375.5 472.85 1375.5 468 1374.55 463 1374 465.95 1375.4 468.1 1376.85 468.5 1377 469 1377 532.85 1402.85 604.9 1420.35 676.5 1437.8 758.95 1445.45 841.45 1453 931.95 1448.1 967.75 1446.1 1001.55 1441.95
L 1003.95 1441.6 1004.55 1441.6
Q 1048.85 1436 1089 1426.95 1154.5 1412.2 1208 1385 1271.05 1358.5 1296.3 1295.35 Z"/>
</g>
</defs>

<g transform="matrix( 1, 0, 0, 1, 0,0) ">
<use xlink:href="#Layer0_1_FILL"/>
</g>
</svg>
