
<svg xmlns="http://www.w3.org/2000/svg" version="1.1" xmlns:xlink="http://www.w3.org/1999/xlink" preserveAspectRatio="none" x="0px" y="0px" width="1600px" height="1800px" viewBox="0 0 1600 1800">
<defs>
<g id="Layer2_0_FILL">
<path fill="#000000" stroke="none" d="
M 50 1750
L 1550 1750 1550 50 50 50 50 1750 Z"/>
</g>

<g id="Layer1_0_FILL">
<path fill="#FFFFFF" stroke="none" d="
M 287.95 1435.3
Q 286.85 1433.6 284.8 1432.75 282.7 1431.9 279.1 1431.65 275.5 1431.25 269.2 1431.25 262.85 1431.25 259.05 1431.9 255.3 1432.3 253.65 1433.8 251.95 1435.3 251.95 1437.85 251.95 1440.4 253.65 1444.85
L 321.2 1627.25
Q 321.85 1629.35 323.5 1631.3 325.2 1633.2 327.1 1634.05
L 300.95 1700.45
Q 299.7 1703.4 299.95 1705.55 300.15 1707.65 302.05 1708.95 303.75 1710.2 307.1 1710.85 310.5 1711.25 315.9 1711.25 326.45 1711.25 331.7 1709.55 336.8 1707.65 338.05 1704.25
L 431.35 1444.15
Q 432.6 1440.4 432.6 1437.85 432.6 1435.3 430.9 1433.8 429.05 1432.3 425.25 1431.9 421.45 1431.25 415.55 1431.25 408.8 1431.25 405.2 1431.9 401.65 1432.3 399.95 1433.6 398.05 1434.65 396.8 1438.7
L 344.55 1592.7 343.95 1592.7 289.8 1439.55
Q 288.8 1436.75 287.95 1435.3
M 191.9 1361.5
Q 183.7 1358.7 174.65 1357.25 165.35 1355.55 156.3 1355.55 138.65 1355.55 123.45 1360.4 108.1 1365.05 97.15 1374.2 86 1383.3 79.85 1396.9 73.6 1410.25 73.6 1427.45 73.6 1444.15 79 1456.3 84.3 1468.15 92.95 1477.1 101.55 1485.95 112.55 1492.55 123.45 1499.15 135.05 1504.65 146.6 1509.95 157.8 1515.25 168.75 1520.35 177.35 1526.7 186.05 1532.85 191.3 1541.1 196.55 1549.45 196.55 1561.1 196.55 1571.9 192.75 1580.35 188.95 1588.85 182 1594.8 174.85 1600.5 165.15 1603.75 155.3 1606.9 143.45 1606.9 127.9 1606.9 116.1 1603.3 104.1 1599.5 95.65 1595.25 87.25 1591 81.95 1587.4 76.55 1583.75 73.6 1583.75 71.9 1583.75 70.65 1584.6 69.35 1585.25 68.5 1587.15 67.65 1589.1 67.25 1592.25 66.85 1595.25 66.85 1599.9 66.85 1606.45 68.1 1610.5 69.15 1614.3 71.65 1616.85 74 1619.4 80.3 1623 86.4 1626.65 95.65 1630.05 104.75 1633.45 116.5 1635.75 128.1 1638.05 141.8 1638.05 161.4 1638.05 178.45 1632.75 195.25 1627.5 207.9 1617.1 220.35 1606.45 227.45 1591.4 234.45 1576.35 234.45 1557.05 234.45 1540.7 229.15 1528.85 223.7 1516.75 215.05 1508.05 206.25 1499.15 195.1 1492.75 183.9 1486.2 172.35 1480.9 160.7 1475.4 149.55 1470.1 138.4 1464.75 129.8 1458.4 120.9 1452.05 115.65 1443.8 110.4 1435.5 110.4 1424.05 110.4 1416.2 113.15 1409.2 115.9 1402.2 121.35 1397.1 126.85 1392 135.25 1389.05 143.7 1385.85 155.05 1385.85 167.3 1385.85 177.15 1389.05 186.85 1392 194 1395.8 201.15 1399.45 206.25 1402.4 211.05 1405.35 213.4 1405.35 214.85 1405.35 216.15 1404.5 217.15 1403.45 217.8 1401.55 218.4 1399.45 218.85 1396.45 219.1 1393.5 219.1 1389.65 219.1 1385.65 218.85 1383.1 218.65 1380.55 218.25 1378.85 217.8 1376.9 217.15 1375.9 216.55 1374.6 214.65 1372.7 212.55 1370.6 206.25 1367.4 199.9 1364 191.9 1361.5
M 1390.5 1432.75
Q 1388.4 1431.9 1384.75 1431.65 1381.2 1431.25 1374.9 1431.25 1368.55 1431.25 1364.75 1431.9 1361 1432.3 1359.3 1433.8 1357.65 1435.3 1357.65 1437.85 1357.65 1440.4 1359.3 1444.85
L 1426.9 1627.25
Q 1427.5 1629.35 1429.2 1631.3 1430.9 1633.2 1432.75 1634.05
L 1406.65 1700.45
Q 1405.4 1703.4 1405.65 1705.55 1405.8 1707.65 1407.75 1708.95 1409.4 1710.2 1412.8 1710.85 1416.15 1711.25 1421.6 1711.25 1432.15 1711.25 1437.4 1709.55 1442.45 1707.65 1443.75 1704.25
L 1537 1444.15
Q 1538.3 1440.4 1538.3 1437.85 1538.3 1435.3 1536.6 1433.8 1534.7 1432.3 1530.9 1431.9 1527.15 1431.25 1521.2 1431.25 1514.45 1431.25 1510.9 1431.9 1507.35 1432.3 1505.65 1433.6 1503.75 1434.65 1502.45 1438.7
L 1450.25 1592.7 1449.65 1592.7 1395.5 1439.55
Q 1394.45 1436.75 1393.65 1435.3 1392.55 1433.6 1390.5 1432.75
M 1291.55 1434.85
Q 1278.5 1428.3 1259.5 1428.3 1243.3 1428.3 1227.5 1436.75 1211.5 1445 1195.55 1463.05
L 1195.55 1437.85
Q 1195.55 1436.15 1194.9 1435.05 1194.05 1433.8 1192.35 1432.95 1190.65 1431.9 1187.7 1431.65 1184.55 1431.25 1179.9 1431.25 1175.1 1431.25 1172.15 1431.65 1169.2 1431.9 1167.3 1432.95 1165.4 1433.8 1164.8 1435.05 1164.15 1436.15 1164.15 1437.85
L 1164.15 1628.75
Q 1164.15 1630.45 1164.95 1631.75 1165.65 1632.75 1167.75 1633.6 1169.6 1634.45 1173 1634.9 1176.35 1635.3 1181.4 1635.3 1186.65 1635.3 1190.05 1634.9 1193.4 1634.45 1195.3 1633.6 1197.2 1632.75 1198.05 1631.75 1198.9 1630.45 1198.9 1628.75
L 1198.9 1495.3
Q 1213.2 1477.25 1226.3 1467.95 1239.3 1458.6 1252.4 1458.6 1262.45 1458.6 1270.25 1462.45 1277.85 1466.25 1282.65 1473.45 1287.55 1480.65 1290.1 1490.65 1292.6 1500.6 1292.6 1516.95
L 1292.6 1628.75
Q 1292.6 1630.45 1293.45 1631.75 1294.25 1632.75 1296.15 1633.6 1298.05 1634.45 1301.4 1634.9 1304.8 1635.3 1310.05 1635.3 1315.1 1635.3 1318.5 1634.9 1321.85 1634.45 1323.75 1633.6 1325.65 1632.75 1326.5 1631.75 1327.35 1630.45 1327.35 1628.75
L 1327.35 1512.25
Q 1327.35 1491.9 1323.95 1477.5 1320.4 1462.85 1312.4 1452.05 1304.4 1441.25 1291.55 1434.85
M 923.4 1535
Q 923.4 1559.15 929.15 1578.3 934.8 1597.35 946.4 1610.7 957.95 1624.1 975.45 1631.05 992.7 1638.05 1016.1 1638.05 1040.1 1638.05 1058.4 1630.2 1076.5 1622.15 1088.75 1607.95 1100.75 1593.7 1106.85 1574.2 1112.95 1554.5 1112.95 1531.15 1112.95 1507.2 1107.25 1488.1 1101.35 1469 1089.8 1455.65 1078.2 1442.3 1060.95 1435.3 1043.45 1428.3 1020.1 1428.3 995.9 1428.3 977.75 1436.15 959.65 1444 947.65 1458.2 935.4 1472.4 929.55 1492.15 923.4 1511.65 923.4 1535
M 959.4 1532.65
Q 959.4 1516.3 963.05 1502.55 966.4 1488.75 973.75 1478.8 980.95 1468.6 992.1 1463.05 1003.25 1457.6 1018.8 1457.6 1035.45 1457.6 1046.85 1463.7 1058 1469.65 1064.5 1480.05 1071.25 1490.45 1074 1504.25 1076.95 1518 1076.95 1533.5 1076.95 1550.05 1073.55 1563.85 1070.2 1577.6 1062.85 1587.6 1055.65 1597.55 1044.5 1603.05 1033.15 1608.6 1017.8 1608.6 1001.15 1608.6 989.75 1602.65 978.6 1596.5 971.9 1586.3 965.15 1575.9 962.4 1562.15 959.4 1548.35 959.4 1532.65
M 750.15 1477.5
Q 746.75 1462.85 739.15 1452.05 731.4 1441.25 718.95 1434.85 706.55 1428.3 688.2 1428.3 680.65 1428.3 673.25 1430.45 665.7 1432.3 657.9 1436.75 649.9 1441.25 641.45 1448.4 632.85 1455.65 623.4 1466.05 620 1457.6 614.95 1450.8 609.9 1443.8 602.7 1438.9 595.6 1433.8 586.3 1431.05 576.85 1428.3 565 1428.3 549.65 1428.3 534.7 1436.75 519.55 1445 503.55 1463.05
L 503.55 1437.85
Q 503.55 1436.15 502.9 1435.05 502.05 1433.8 500.4 1432.95 498.7 1431.9 495.75 1431.65 492.6 1431.25 487.95 1431.25 483.15 1431.25 480.15 1431.65 477.2 1431.9 475.35 1432.95 473.4 1433.8 472.8 1435.05 472.15 1436.15 472.15 1437.85
L 472.15 1628.75
Q 472.15 1630.45 473 1631.75 473.65 1632.75 475.75 1633.6 477.65 1634.45 481 1634.9 484.4 1635.3 489.45 1635.3 494.7 1635.3 498.1 1634.9 501.45 1634.45 503.35 1633.6 505.25 1632.75 506.1 1631.75 506.95 1630.45 506.95 1628.75
L 506.95 1495.3
Q 521.25 1477.25 533.45 1467.95 545.65 1458.6 557.65 1458.6 567.35 1458.6 574.55 1462.45 581.45 1466.25 586.1 1473.45 590.7 1480.65 593.05 1490.65 595.35 1500.6 595.35 1512.7
L 595.35 1628.75
Q 595.35 1630.45 596.2 1631.75 596.85 1632.75 598.95 1633.6 600.85 1634.45 604.4 1634.9 607.75 1635.3 612.65 1635.3 617.65 1635.3 621.05 1634.9 624.4 1634.45 626.5 1633.6 628.45 1632.75 629.25 1631.75 630.1 1630.45 630.1 1628.75
L 630.1 1495.3
Q 644.6 1477.25 656.85 1467.95 668.85 1458.6 680.85 1458.6 690.55 1458.6 697.65 1462.45 704.85 1466.25 709.5 1473.45 714.15 1480.65 716.25 1490.65 718.35 1500.6 718.35 1512.7
L 718.35 1628.75
Q 718.35 1630.45 719.2 1631.75 720.05 1632.75 722.15 1633.6 724 1634.45 727.4 1634.9 730.75 1635.3 736 1635.3 741.1 1635.3 744.45 1634.9 747.85 1634.45 749.7 1633.6 751.6 1632.75 752.4 1631.75 753.25 1630.45 753.25 1628.75
L 753.25 1508.05
Q 753.25 1491.9 750.15 1477.5
M 838.1 1354.85
Q 830.55 1364 826.95 1378.45 823.15 1392.65 823.15 1412.6
L 823.15 1432.3 796.45 1432.3
Q 794.75 1432.3 793.5 1433.15 792.2 1433.8 791.4 1435.7 790.55 1437.4 790.1 1440.15 789.7 1442.95 789.7 1446.95 789.7 1454.6 791.4 1457.95 793.05 1461.35 796.45 1461.35
L 823.15 1461.35 823.15 1628.75
Q 823.15 1630.45 824 1631.75 824.85 1632.75 826.95 1633.6 828.9 1634.45 832.25 1634.9 835.65 1635.3 840.65 1635.3 845.7 1635.3 849.1 1634.9 852.45 1634.45 854.55 1633.6 856.45 1632.75 857.3 1631.75 858.15 1630.45 858.15 1628.75
L 858.15 1461.35 900.45 1461.35
Q 903.6 1461.35 905.5 1457.95 907.4 1454.6 907.4 1446.95 907.4 1442.95 906.95 1440.15 906.35 1437.4 905.5 1435.7 904.45 1433.8 903.4 1433.15 902.15 1432.3 900.45 1432.3
L 858.15 1432.3 858.15 1411.55
Q 858.15 1399.2 859.65 1390.7 861.1 1382 864.45 1376.75 867.85 1371.2 873.3 1368.65 878.75 1366.1 886.6 1366.1 892.25 1366.1 896.65 1367.2 900.9 1368.05 904 1369.3 907.2 1370.35 909.5 1371.45 911.6 1372.3 913.1 1372.3 914.4 1372.3 915.2 1371.85 916.05 1371.2 916.65 1369.75 917.1 1368.25 917.5 1365.9 917.95 1363.35 917.95 1359.35 917.95 1355.3 917.7 1352.55 917.3 1349.6 916.5 1347.7 915.65 1345.55 914.4 1344.3 913.1 1343 909.3 1341.5 906.3 1340.2 901.45 1339.1 900.1 1338.8 898.6 1338.55 891.6 1337.05 884.25 1337.05 873.7 1337.05 865.1 1339.1 861 1340.1 857.3 1341.5 845.7 1345.75 838.1 1354.85 Z"/>

<path fill="#000000" fill-opacity="0.996078431372549" stroke="none" d="
M 1364.5 460.15
Q 1366.95 467.6 1368.5 472.15 1373.9 488.65 1382.1 502.1 1380.3 511.8 1384.2 515.35 1384.8 515.85 1384.8 517.1 1389 516.6 1387.7 522.25 1387.5 523.5 1387.5 524.6 1386.9 531.75 1389.5 535.15 1390.15 535.9 1390.15 537.1 1394.4 536.55 1393 542.2 1392.8 543.55 1392.8 544.75 1393.25 551.75 1395.15 557.3 1395.45 558.7 1395.45 559.7 1399.65 559.2 1398.4 564.8 1398.15 565.7 1398.15 567.2
L 1398.15 574.75
Q 1402.55 575.25 1401 582.25 1400.75 583.7 1400.75 584.75 1400.85 588.5 1400.75 592.3
L 1400.75 594.8
Q 1405.2 595.3 1403.65 602.3 1403.4 603.7 1403.4 604.75
L 1403.4 609.8
Q 1407.9 611.45 1406.4 619.85 1406.15 620.85 1406.15 622.25
L 1406.15 639.85
Q 1410.65 642.7 1408.95 652.45 1408.8 653.6 1408.8 654.9 1408.75 672.4 1408.8 689.95
L 1408.8 692.5
Q 1408.8 693.8 1408.95 694.9 1410.65 704.6 1406.15 707.45
L 1406.15 724.95
Q 1406.15 726.5 1406.4 727.5 1407.9 735.9 1403.4 737.6
L 1403.4 750.1
Q 1403.4 751.45 1403.75 752.55 1404.95 758.1 1400.75 757.6 1400.85 761.35 1400.75 765.1
L 1400.75 767.6
Q 1400.75 768.6 1401.1 770.05 1402.3 775.7 1398.15 775.1
L 1398.15 780.15
Q 1398.15 781.65 1398.4 782.6 1399.65 788.2 1395.45 787.65
L 1395.45 792.6
Q 1395.45 793.8 1395.7 795.05 1396.95 800.75 1392.8 800.15
L 1392.8 802.65
Q 1392.8 803.75 1393 805.1 1394.4 810.75 1390.15 810.15
L 1390.15 812.75
Q 1390.15 814.15 1390.4 815.05 1391.65 820.75 1387.5 820.2
L 1387.5 822.7
Q 1387.5 823.8 1387.7 825.15 1389 830.8 1384.8 830.3 1384.8 831.5 1384.65 832.8 1383.95 840.95 1379.4 845.25
L 1379.4 847.75
Q 1379.4 848.8 1379.75 850.2 1380.95 855.85 1376.85 855.25 1376.85 856.7 1377.1 857.75 1378.35 863.4 1374.15 862.8 1374.15 863.9 1374.35 865.25 1375.65 870.9 1371.45 870.3 1360.25 899.5 1346.25 927.2 1333.65 952.35 1318.95 976.1 1289.6 1023.45 1252 1061.25 1242.45 1070.85 1234.05 1081.75 1225.25 1092.9 1211.6 1098.25 1210.3 1100.7 1208.35 1102.5 1206.3 1104.45 1204.65 1106.7 1197.4 1116.55 1185 1120.85 1185 1122.1 1184.4 1122.45 1177.95 1126.7 1174.35 1133.35 1172.9 1133.35 1172.1 1133.95 1166.4 1138.7 1158.35 1140.8 1158.35 1142.05 1157.7 1142.85 1154.4 1147.4 1147.65 1148.3 1147.65 1149.65 1147.25 1149.85 1143.25 1151.5 1142.35 1155.9 1135.65 1156.85 1131.2 1160.1 1126.4 1163.55 1120.4 1167.05 1072.7 1194.45 1019.75 1218.5
L 1017.05 1218.5 1009.1 1218.5
Q 1009.1 1219.85 1008.6 1220.1 1001.9 1224.45 993.15 1226 993.15 1227.3 992.85 1227.3 989.1 1228.6 985.15 1228.5 985.15 1229.75 984.85 1229.85 981.15 1231.05 977.2 1231 977.2 1232.25 976.85 1232.35 973.05 1233.55 969.15 1233.5 967.85 1233.5 966.9 1234.2 960.9 1238.6 950.45 1238.6 950.45 1239.85 950.2 1239.9 946.55 1241.05 942.5 1241.05
L 939.9 1241.05
Q 939.9 1242.3 939.5 1242.4 935.95 1243.55 931.9 1243.55
L 929.2 1243.55
Q 929.2 1244.85 928.9 1244.9 925.2 1246.05 921.15 1246.05
L 918.55 1246.05
Q 918.55 1247.3 918.15 1247.4 914.6 1248.55 910.6 1248.55
L 907.85 1248.55 905.25 1248.55
Q 905.25 1249.75 904.9 1249.9 901.2 1251.1 897.25 1251.1
L 894.55 1251.1 891.9 1251.1
Q 891.9 1252.3 891.6 1252.5 888.05 1253.6 883.9 1253.6
L 873.25 1253.6
Q 873.25 1254.8 872.9 1254.95 869.4 1256.1 865.3 1256.1
L 854.5 1256.1 851.95 1256.1
Q 851.95 1257.35 851.75 1257.35 845.3 1258.6 838.65 1258.6
L 827.95 1258.6 819.9 1258.6
Q 819.9 1259.8 819.85 1259.8 812.1 1261.1 804 1261.1
L 764.05 1261.1
Q 762.9 1261.1 761.4 1261.3 751.8 1262.95 748 1258.6
L 734.65 1258.6 729.4 1258.6
Q 728.1 1258.6 726.8 1258.8 718.55 1260.45 716.1 1256.1
L 705.1 1256.1
Q 704.05 1256.15 702.75 1256.3 695.85 1257.85 694.8 1253.65 693.9 1253.65 693.1 1253.6
L 686.4 1253.6
Q 685.3 1253.65 684.15 1253.85 678.75 1255.25 678.8 1251.2 677.75 1251.1 676.75 1251.1
L 670.15 1251.1
Q 669.1 1251.15 668.2 1251.35 662.75 1252.75 662.8 1248.7 661.75 1248.6 660.8 1248.55
L 657.1 1248.55
Q 655.8 1248.6 654.9 1248.8 649.45 1250.15 649.5 1246.2 648.45 1246.1 647.45 1246.05
L 646.4 1246.05
Q 645.15 1246.1 644.15 1246.3 638.8 1247.7 638.75 1243.7 637.45 1243.55 636.05 1243.55 621.6 1242.4 612.15 1236.1
L 598.75 1236.1
Q 588.9 1230.35 577.2 1227.25 563.8 1223.65 553.1 1219.4 530.5 1210.5 508.55 1200.1 480.7 1186.75 455.65 1171.9 443 1164.4 428.25 1158.45
L 422.95 1150.8
Q 417.8 1149 409.65 1145.8
L 404.25 1138.3
Q 394.6 1136.65 390.95 1128.35 382.6 1127.8 378.9 1121.75 375.05 1115.5 366.95 1113.25 362.8 1108.15 358.3 1104.25 315.85 1067.85 282.4 1022.6 269.75 1005.45 255.05 990.6 235.4 953.95 216.15 919.75 209.25 907.4 202.95 893.65 190.85 867.2 183.15 835.3 183.15 834.1 183.35 832.8 183.5 832.2 183.6 831.75 183.3 830.2 183.25 828.55 182.45 827.45 180.5 827.75
L 180.5 825.25
Q 180.5 823.8 180.75 822.75 180.85 822.3 180.9 821.85 180.65 820.2 180.6 818.5 179.8 817.5 177.85 817.75 177.85 816.2 178.1 815.3 178.2 814.9 178.25 814.5 177.9 812.75 177.9 811.05 177.1 809.95 175.1 810.15
L 175.1 807.65
Q 175.1 806.8 175.4 805.3 175.5 804.8 175.6 804.3 175.3 802.75 175.25 801.1 174.45 799.9 172.5 800.15
L 172.5 795.15
Q 172.5 793.9 172.75 792.8 172.85 792.25 172.95 791.85 172.65 790.25 172.65 788.55 171.85 787.35 169.85 787.65
L 169.85 782.65
Q 169.85 781.15 170.1 780.2 170.2 779.7 170.3 779.3 170 777.65 169.95 775.95 169.15 774.85 167.2 775.1
L 167.2 767.6
Q 167.2 766.3 167.4 765.15 167.5 764.6 167.6 764.1 167.35 762.6 167.3 761 166.55 759.85 164.5 760.1
L 164.5 744.75 164.5 736.8
Q 163.7 735.25 161.8 735.1
L 161.8 712.5
Q 161.8 712.05 161.85 711.5
L 161.85 702.65
Q 161.05 700.7 159.15 699.95
L 159.15 647.4
Q 161.05 647.15 161.85 645.75
L 161.85 638.35
Q 161.8 637.8 161.8 637.35
L 161.8 607.3
Q 163.7 607.05 164.5 605.6
L 164.5 597.6 164.5 592.3
Q 166.45 591.55 167.25 589.65
L 167.25 581.1
Q 167.2 580.45 167.2 579.75
L 167.2 572.15
Q 169.15 572.45 169.9 571.4
L 169.9 565.95
Q 169.85 565.35 169.85 564.7
L 169.85 562.2
Q 171.85 562.5 172.6 561.4
L 172.6 556.1
Q 172.5 555.4 172.5 554.7
L 172.5 547.2
Q 176.9 546.65 175.4 539.6 175.1 537.95 175.1 537.1 177.05 537.4 177.85 536.35
L 177.85 530 177.85 527.1
Q 181.95 521.05 184.25 512.4 192.2 481.85 204 454.3 227.6 399.05 259.95 354 292.6 308.6 330.6 270.2 338.4 262.2 347.75 253.45 353.7 247.7 359 241.55 371.45 237.3 378.45 227.1 380.5 224.15 385.6 224.05 389.25 215.8 398.95 214 400.75 211.5 404.25 206.45 412.65 206 414.95 199 423.3 198.45 425.55 191.5 440.05 185.55 452.95 177.75 502.95 147.2 561.55 126.65 593.85 115.4 628.05 106.25 629.45 106.25 630.8 106.15
L 630.8 103.8 636.05 103.8 637.4 103.8
Q 640.6 103.75 643.5 103.45 648.25 102.9 652.2 101.7 653.35 101.35 654.75 101.35 656.1 101.35 657.45 101.2
L 657.45 98.85 662.75 98.85 666.1 98.85
Q 667.05 98.8 668.1 98.7
L 668.1 96.25 673.35 96.25 682.75 96.25
Q 683.4 96.25 684.15 96.2
L 684.15 93.75 694.65 93.75 701.05 93.75
Q 701.9 93.7 702.75 93.7
L 702.75 91.25 710.7 91.25 726.7 91.25 726.7 88.75 50 88.75 50 1339.1 865.1 1339.1
Q 873.7 1337.05 884.25 1337.05 891.6 1337.05 898.6 1338.55 900.1 1338.8 901.45 1339.1
L 1550 1339.1 1550 88.75 843.95 88.75 843.95 91.25 849.2 91.25 859.95 91.25
Q 863.95 91.25 867.65 92.45 867.9 92.55 867.9 93.75
L 873.2 93.75 875.95 93.75
Q 879.95 93.75 883.65 94.95 883.9 95.05 883.9 96.25
L 889.15 96.25 891.9 96.25
Q 895.65 96.25 899.6 97.45 899.85 97.6 899.85 98.85
L 902.5 98.85 905.25 98.85
Q 909.35 98.85 912.9 99.95 913.2 100.1 913.2 101.35
L 915.85 101.35 918.55 101.35
Q 922.6 101.35 926.25 102.45 926.55 102.65 926.55 103.8
L 929.2 103.8
Q 933.3 103.8 936.9 105 937.15 105.1 937.15 106.25
L 939.9 106.25
Q 943.85 106.25 947.55 107.5 947.9 107.6 947.9 108.75 951.85 108.75 955.55 110 955.85 110.1 955.85 111.25 965.15 112.4 972.05 115.75 973.15 116.35 974.5 116.35 978.6 116.35 982.15 117.45 982.5 117.65 982.5 118.9 1041.05 135.65 1089.9 162.2 1102.9 169.25 1113.25 176.1 1124.15 183.3 1137.05 189 1137.9 193.4 1141.95 195.1 1142.35 195.2 1142.35 196.5 1149.05 197.55 1153.45 200.85 1154.35 201.45 1155.7 201.45 1159.9 207.7 1166.55 210.95 1167.55 211.5 1168.95 211.5 1173.15 217.7 1179.85 221 1180.95 221.55 1182.3 221.55 1186 228.2 1192.4 232.5 1192.95 232.8 1192.95 234.05 1206.75 239.55 1214.6 251.35 1215.65 252.9 1217 254 1258.05 287.45 1289.9 330.9 1293.75 336.05 1298.35 342.65 1329.15 386.85 1354.2 437.65
L 1362.05 453.9
Q 1363.6 457.4 1364.5 460.15 Z"/>

<path fill="#FEFEFE" fill-opacity="0.996078431372549" stroke="none" d="
M 1365.8 472.15
Q 1364.25 467.6 1361.8 460.15 1360.85 457.4 1359.3 453.9
L 1351.5 437.65
Q 1326.45 386.85 1295.6 342.65 1291 336.05 1287.15 330.9 1255.35 287.45 1214.3 254 1212.9 252.9 1211.9 251.35 1204 239.55 1190.25 234.05 1190.25 232.8 1189.65 232.5 1183.3 228.2 1179.6 221.55 1178.25 221.55 1177.1 221 1170.45 217.7 1166.25 211.5 1164.85 211.5 1163.85 210.95 1157.2 207.7 1152.95 201.45 1151.6 201.45 1150.7 200.85 1146.3 197.55 1139.6 196.5 1139.6 195.2 1139.25 195.1 1135.15 193.4 1134.3 189 1121.4 183.3 1110.55 176.1 1100.2 169.25 1087.2 162.2 1038.3 135.65 979.75 118.9 978.15 118.9 977.2 119.1 971.65 120.6 971.8 116.35 970.45 116.35 969.3 115.75 962.4 112.4 953.15 111.25 951.95 111.25 950.55 111.6 945 113.05 945.15 108.75 943.7 108.75 942.55 109.15 937 110.45 937.15 106.25
L 934.45 106.25
Q 933.15 106.25 931.85 106.65 926.4 107.95 926.45 103.8
L 923.85 103.8
Q 922.5 103.8 921.2 104.15 917.45 105.05 916.35 103.45 915.8 102.7 915.85 101.35
L 913.2 101.35 910.5 101.35
Q 909.15 101.35 907.9 101.65 902.4 102.9 902.5 98.85
L 899.85 98.85 897.15 98.85
Q 895.9 98.85 894.55 99.15 889.1 100.35 889.15 96.25
L 883.9 96.25 881.2 96.25
Q 880 96.25 878.6 96.6 873.1 97.95 873.2 93.75
L 867.9 93.75 857.25 93.75
Q 856 93.75 854.6 94.1 849.1 95.45 849.2 91.25
L 843.95 91.25 822.6 91.25
Q 821.65 91.25 819.95 91.55 813.1 93.1 811.95 88.75
L 753.25 88.75
Q 753.25 90.05 753.15 90.05 747 91.25 740 91.25
L 726.7 91.25 710.7 91.25
Q 710.7 92.55 710.4 92.55 706.65 93.4 702.75 93.7 701.9 93.7 701.05 93.75
L 694.65 93.75
Q 694.65 95.05 694.45 95.1 689.25 96 684.15 96.2 683.4 96.25 682.75 96.25
L 673.35 96.25
Q 673.35 97.6 673.05 97.65 670.65 98.45 668.1 98.7 667.05 98.8 666.1 98.85
L 662.75 98.85
Q 662.75 100.05 662.4 100.15 660 100.95 657.45 101.2 656.1 101.35 654.75 101.35 653.35 101.35 652.2 101.7 648.25 102.9 643.5 103.45 640.6 103.75 637.4 103.8
L 636.05 103.8
Q 636.05 105.1 635.75 105.15 633.4 105.9 630.8 106.15 629.45 106.25 628.05 106.25 593.85 115.4 561.55 126.65 502.95 147.2 452.95 177.75 440.05 185.55 425.55 191.5 423.3 198.45 414.95 199 412.65 206 404.25 206.45 400.75 211.5 398.95 214 389.25 215.8 385.6 224.05 380.5 224.15 378.45 227.1 371.45 237.3 359 241.55 353.7 247.7 347.75 253.45 338.4 262.2 330.6 270.2 292.6 308.6 259.95 354 227.6 399.05 204 454.3 192.2 481.85 184.25 512.4 181.95 521.05 177.85 527.1
L 177.85 530
Q 177.9 531.25 178.1 532.05 178.7 535.1 177.85 536.35 177.05 537.4 175.1 537.1 175.1 537.95 175.4 539.6 176.9 546.65 172.5 547.2
L 172.5 554.7
Q 172.5 555.4 172.6 556.1 172.65 556.6 172.75 557.1 173.4 560.1 172.6 561.4 171.85 562.5 169.85 562.2
L 169.85 564.7
Q 169.85 565.35 169.9 565.95 169.95 566.65 170.1 567.2 170.75 570.2 169.9 571.4 169.15 572.45 167.2 572.15
L 167.2 579.75
Q 167.2 580.45 167.25 581.1 167.3 581.7 167.4 582.15 168.3 587.05 167.25 589.65 166.45 591.55 164.5 592.3
L 164.5 597.6
Q 164.55 598.85 164.75 599.75 165.55 603.65 164.5 605.6 163.7 607.05 161.8 607.3
L 161.8 637.35
Q 161.8 637.8 161.85 638.35 161.9 639.05 162.05 639.8 162.9 643.85 161.85 645.75 161.05 647.15 159.15 647.4
L 159.15 699.95
Q 161.05 700.7 161.85 702.65 162.95 705.25 162.05 710.1 161.9 710.85 161.85 711.5 161.8 712.05 161.8 712.5
L 161.8 735.1
Q 163.7 735.25 164.5 736.8 165.55 738.6 164.75 742.65 164.55 743.5 164.5 744.75
L 164.5 760.1
Q 166.55 759.85 167.3 761 167.9 762 167.6 764.1 167.5 764.6 167.4 765.15 167.2 766.3 167.2 767.6
L 167.2 775.1
Q 169.15 774.85 169.95 775.95 170.6 777 170.3 779.3 170.2 779.7 170.1 780.2 169.85 781.15 169.85 782.65
L 169.85 787.65
Q 171.85 787.35 172.65 788.55 173.3 789.55 172.95 791.85 172.85 792.25 172.75 792.8 172.5 793.9 172.5 795.15
L 172.5 800.15
Q 174.45 799.9 175.25 801.1 175.9 802.15 175.6 804.3 175.5 804.8 175.4 805.3 175.1 806.8 175.1 807.65
L 175.1 810.15
Q 177.1 809.95 177.9 811.05 178.65 812.1 178.25 814.5 178.2 814.9 178.1 815.3 177.85 816.2 177.85 817.75 179.8 817.5 180.6 818.5 181.35 819.55 180.9 821.85 180.85 822.3 180.75 822.75 180.5 823.8 180.5 825.25
L 180.5 827.75
Q 182.45 827.45 183.25 828.55 183.9 829.5 183.6 831.75 183.5 832.2 183.35 832.8 183.15 834.1 183.15 835.3 190.85 867.2 202.95 893.65 209.25 907.4 216.15 919.75 235.4 953.95 255.05 990.6 269.75 1005.45 282.4 1022.6 315.85 1067.85 358.3 1104.25 362.8 1108.15 366.95 1113.25 375.05 1115.5 378.9 1121.75 382.6 1127.8 390.95 1128.35 394.6 1136.65 404.25 1138.3
L 409.65 1145.8
Q 417.8 1149 422.95 1150.8
L 428.25 1158.45
Q 443 1164.4 455.65 1171.9 480.7 1186.75 508.55 1200.1 530.5 1210.5 553.1 1219.4 563.8 1223.65 577.2 1227.25 588.9 1230.35 598.75 1236.1
L 612.15 1236.1
Q 621.6 1242.4 636.05 1243.55 637.45 1243.55 638.75 1243.7 641.4 1243.95 643.75 1244.75 644.05 1244.85 644.05 1246.05
L 646.4 1246.05 647.45 1246.05
Q 648.45 1246.1 649.5 1246.2 651.95 1246.5 654.35 1247.25 654.75 1247.35 654.75 1248.55
L 657.1 1248.55 660.8 1248.55
Q 661.75 1248.6 662.8 1248.7 665.3 1248.95 667.7 1249.7 668.05 1249.85 668.05 1251.1
L 670.15 1251.1 676.75 1251.1
Q 677.75 1251.1 678.8 1251.2 681.25 1251.45 683.75 1252.2 684.05 1252.3 684.05 1253.6
L 686.4 1253.6 693.1 1253.6
Q 693.9 1253.65 694.8 1253.65 698.65 1253.85 702.4 1254.7 702.65 1254.85 702.65 1256.1
L 705.1 1256.1 716.1 1256.1 726.7 1256.1
Q 730.6 1256.1 734.4 1257.2 734.65 1257.35 734.65 1258.6
L 748 1258.6 819.9 1258.6 827.95 1258.6 827.95 1256.1 851.95 1256.1 854.5 1256.1 854.5 1253.6 873.2 1253.6 873.2 1251.1 891.9 1251.1 894.55 1251.1 894.55 1248.55 905.25 1248.55 907.85 1248.55 907.85 1246.05 918.45 1246.05 918.45 1243.55 929.2 1243.55 929.2 1241.05 939.8 1241.05 939.8 1238.6 947.75 1238.6
Q 958.2 1238.6 964.15 1234.2 965.15 1233.5 966.45 1233.5
L 966.45 1231 974.45 1231 974.45 1228.5 982.45 1228.5 982.45 1226 990.4 1226
Q 999.15 1224.45 1005.9 1220.1 1006.4 1219.85 1006.4 1218.5
L 1009.1 1218.5 1017.05 1218.5
Q 1070 1194.45 1117.65 1167.05 1123.65 1163.55 1128.5 1160.1 1132.95 1156.85 1139.6 1155.9 1140.55 1151.5 1144.55 1149.85 1144.9 1149.65 1144.9 1148.3 1151.65 1147.4 1155 1142.85 1155.65 1142.05 1155.65 1140.8 1163.7 1138.7 1169.4 1133.95 1170.15 1133.35 1171.65 1133.35 1175.25 1126.7 1181.7 1122.45 1182.25 1122.1 1182.25 1120.85 1194.7 1116.55 1201.95 1106.7 1203.6 1104.45 1205.6 1102.5 1207.6 1100.7 1208.9 1098.25 1222.55 1092.9 1231.35 1081.75 1239.75 1070.85 1249.3 1061.25 1286.9 1023.45 1316.25 976.1 1330.9 952.35 1343.5 927.2 1357.55 899.5 1368.75 870.3
L 1368.75 862.8 1371.4 862.8 1371.4 855.25 1374.15 855.25 1374.15 847.75 1376.7 847.75 1376.7 845.25
Q 1381.25 840.95 1381.95 832.8 1382.1 831.5 1382.1 830.3
L 1382.1 822.7 1384.75 822.7 1384.75 812.75 1387.45 812.75 1387.45 802.65 1390.05 802.65 1390.05 792.6 1392.75 792.6 1392.75 780.15 1395.4 780.15 1395.4 767.6 1398.05 767.6 1398.05 765.1
Q 1398.15 761.35 1398.05 757.6
L 1398.05 742.6 1400.7 742.6 1400.7 717.5 1403.4 717.5 1403.4 629.8
Q 1402 629.8 1401.9 629.45 1400.75 626 1400.7 622.25
L 1400.7 604.75
Q 1399.4 604.75 1399.3 604.45 1398.05 599.75 1398.05 594.8
L 1398.05 592.3
Q 1398.15 588.5 1398.05 584.75 1396.8 584.75 1396.65 584.45 1395.4 579.85 1395.4 574.75
L 1395.4 567.2
Q 1394.05 567.2 1393.9 566.8 1392.75 563.45 1392.75 559.7 1392.75 558.7 1392.4 557.3 1390.55 551.75 1390.05 544.75 1388.7 544.75 1388.6 544.2 1387.45 540.75 1387.45 537.1 1387.45 535.9 1386.8 535.15 1384.2 531.75 1384.75 524.6 1383.4 524.6 1383.25 524.15 1382.1 520.8 1382.1 517.1 1382.1 515.85 1381.5 515.35 1377.6 511.8 1379.4 502.1 1371.15 488.65 1365.8 472.15
M 1014.35 309.2
L 1030.4 309.2 1030.4 306.7 1043.75 306.7 1043.75 304.2 1070.4 304.2
Q 1074.35 304.2 1078.05 305.4 1078.35 305.5 1078.35 306.7
L 1083.7 306.7
Q 1087.65 306.7 1091.35 307.9 1091.7 308 1091.7 309.2
L 1096.95 309.2
Q 1101 309.2 1104.7 310.35 1105 310.5 1105 311.7 1125.25 316.1 1140 326.15 1140.95 326.7 1142.35 326.7 1156.15 339.75 1163.2 359.45 1163.6 360.5 1163.6 361.8 1167.8 361.25 1166.55 366.9 1166.25 368.25 1166.25 369.4 1166.35 373.1 1166.25 376.85
L 1166.25 379.35
Q 1166.25 380.35 1166.55 381.75 1167.75 387.5 1163.6 386.85 1163.7 398.6 1157.8 403.85 1154.35 406.9 1151.55 410.85 1144.65 420.65 1131.65 424.4 1131.65 425.7 1131.3 425.8 1127.75 426.9 1123.65 426.9
L 1107.65 426.9
Q 1106.75 426.9 1105.05 427.25 1099.55 428.55 1099.65 424.4 1089.2 421.75 1081 416.95 1081 415.6 1080.45 415.35 1071.85 409.65 1070.4 396.85 1069.05 396.85 1068.95 396.7 1067.65 386.55 1067.65 376.85
L 1070.4 376.85 1070.4 371.9
Q 1077.5 361 1083.15 351.4 1083.7 350.6 1083.7 349.25
L 1083.7 339.25
Q 1083.7 338.15 1083.15 337.3 1078.4 331.45 1070.4 329.2
L 1035.7 329.2
Q 1028.9 331.85 1019.75 331.7 1011.95 338.45 1001.1 341.75 998.8 348.8 990.4 349.25 962.7 380.55 946.55 422.55 943.65 429.85 940.9 436.15 935.1 449.6 932.1 467.05 930.65 476.1 926.45 482
L 926.45 487
Q 926.45 488.15 926.7 489.5 928.05 495.15 923.85 494.6 923.85 496.05 924.1 497 925.5 504.1 921.15 504.6
L 921.15 509.6
Q 921.15 510.8 921.45 512.1 922.65 517.65 918.45 517.1
L 918.45 522.1
Q 918.45 523.4 918.75 524.55 920.1 530.25 915.85 529.6
L 915.85 534.6
Q 915.85 536.15 916.1 537.1 917.3 542.7 913.1 542.2
L 913.1 552.2
Q 913.1 553.2 913.45 554.6 914.6 560.3 910.5 559.7
L 910.5 562.2
Q 910.5 563.35 910.7 564.7 912.1 570.25 907.85 569.7
L 907.85 577.25
Q 907.85 578.75 908.1 579.65 909.55 586.75 905.15 587.25
L 905.15 597.25 974.45 597.25 974.45 594.8 982.45 594.8
Q 988.25 592.75 995.8 592.35
L 998.4 592.3
Q 1014.35 584.65 1027.1 573.9 1027.7 573.6 1027.7 572.15
L 1027.7 557.2
Q 1021.6 545.9 1014.35 534.6
L 1014.35 532.1
Q 1014.45 525.9 1014.35 519.6 1018.35 517.2 1019.45 512.1 1019.75 510.8 1019.75 509.6 1029.15 499.4 1043.75 494.6
L 1043.75 492.1 1059.7 492.1
Q 1063.9 492.1 1067.35 493.25 1067.65 493.3 1067.65 494.6 1077.15 498 1083.7 504.6 1090.6 511.5 1091.7 524.6 1096.2 528.65 1096.1 539.7 1096.05 546.7 1091.7 547.2 1091.7 549.6 1090.65 551.6 1079.5 573.25 1062.35 589.8 1060.9 589.8 1059.85 590.15 1054.05 591.75 1051.7 597.25 1050.3 597.25 1049.4 597.9 1024.45 612.45 990.4 617.3 990.4 618.55 990.15 618.7 986.55 619.75 982.45 619.75
L 977.1 619.75
Q 977.1 621.1 976.8 621.1 971.85 622.25 966.45 622.25
L 963.75 622.25
Q 959.8 622.35 955.75 622.25
L 953.15 622.25
Q 939.85 622.35 926.45 622.25
L 923.85 622.25
Q 919.85 622.35 915.85 622.25
L 899.85 622.25
Q 899.85 623.5 899.4 624.5 898.4 626.25 897.15 627.3
L 897.15 632.3
Q 897.15 633.55 897.4 634.8 898.9 641.8 894.55 642.45
L 894.55 647.4
Q 894.55 648.8 894.8 649.8 896 655.4 891.9 654.9
L 891.9 659.95
Q 891.9 661.4 892.1 662.4 893.55 669.45 889.15 669.95
L 889.15 672.4
Q 889.15 673.7 889.45 674.85 890.8 680.55 886.55 679.9
L 886.55 687.45
Q 886.55 688.85 886.75 689.95 888.25 697 883.8 697.45
L 883.8 699.95
Q 883.8 701.15 884.15 702.4 885.35 708.1 881.2 707.45
L 881.2 715
Q 881.2 716.1 881.4 717.4 882.9 724.55 878.55 724.95
L 878.55 727.55
Q 878.55 729 878.8 729.95 880.05 735.65 875.85 735.1
L 875.85 740.1
Q 875.85 741.1 876.1 742.45 877.4 748.15 873.2 747.6
L 873.2 750.1
Q 873.2 751.25 873.45 752.55 874.7 758.15 870.55 757.6 870.55 759.05 870.8 760.05 872.3 767.15 867.85 767.6
L 867.85 772.55
Q 867.85 773.85 868.1 775.1 869.45 780.7 865.2 780.15
L 865.2 782.65
Q 865.2 784.2 865.5 785.1 866.7 790.7 862.6 790.15 862.6 791.4 862.45 792.6 861.05 805.35 854.5 812.75
L 854.5 825.25
Q 850.05 829.5 847.7 837.25 845.6 844.3 842.7 852.25 835.85 870.35 827.35 887.5 826.55 889.15 826.25 890.6 824.7 897.5 822.05 902.55 795.1 951.5 760.65 992.45 751.8 1002.9 743.5 1013.85 734.8 1025.05 721.35 1030.6 721.35 1031.75 720.8 1032.35 711.85 1038.9 705.35 1048.1 704.05 1048.1 702.8 1048.6 697.1 1050.1 694.65 1055.65 693.4 1055.65 692.4 1056.35 658.45 1080.1 612.15 1090.75 612.15 1092 611.8 1092.1 608.3 1093.25 604.1 1093.25
L 601.4 1093.25
Q 601.4 1094.55 601.1 1094.6 597.7 1095.75 593.4 1095.75
L 582.85 1095.75
Q 582.85 1097 582.5 1097.1 579 1098.25 574.8 1098.25
L 561.5 1098.25
Q 560.15 1098.25 558.9 1098.55 553.35 1099.95 553.5 1095.75
L 548.15 1095.75
Q 546.55 1095.75 545.55 1096.05 540.05 1097.35 540.15 1093.25
L 529.55 1093.25
Q 512.15 1084.9 494.9 1075.75 485.7 1067.05 477.85 1056.55 471 1047.35 470.9 1030.6 469.6 1030.6 469.5 1030.35 468.2 1024 468.2 1018.1
L 470.9 1018.1 470.9 1003.1 473.55 1003.1 473.55 1000.6
Q 477.45 998.15 478.65 992.95 478.85 991.95 478.85 990.6 487.15 986 492.2 978
L 510.9 968 510.9 965.5 524.2 965.5 524.2 962.95
Q 531.9 962.95 539.95 964.2 540.15 964.3 540.15 965.5
L 550.75 965.5
Q 556.3 970.4 564.25 972.65 565.4 973 566.8 973 570.55 977.8 575.35 982.4 576.15 983.1 577.45 983.1 578.85 988.25 581.15 992.45 581.4 993.05 582.85 993.05 587.05 992.5 585.7 998.1 585.4 999.35 585.4 1000.6
L 585.4 1008.1
Q 589.9 1009.75 587 1017.6 586.8 1018.1 585.4 1018.1 585.4 1019.45 585.2 1020.6 582.4 1035.85 572.1 1043.1 570.9 1043.1 569.7 1043.65 561.8 1047.25 556.1 1053.15
L 556.1 1065.65
Q 558.55 1071.3 564.25 1072.85 565.55 1073.25 566.8 1073.25
L 585.4 1073.25 585.4 1070.75 593.4 1070.75
Q 613.05 1064.45 628.5 1053.85 629.45 1053.15 630.8 1053.15 670.9 1018.3 692.45 963.15
L 698.55 947.4
Q 704.05 932.85 708 917.9
L 708 910.4 710.7 910.4 710.7 900.4 713.4 900.4 713.4 892.8 715.95 892.8 715.95 882.85 718.65 882.85 718.65 872.8 721.35 872.8 721.35 862.8 723.95 862.8 723.95 850.25 726.7 850.25 726.7 840.3 729.3 840.3 729.3 827.75 731.95 827.75 731.95 815.25 734.65 815.25 734.65 802.65 737.3 802.65 737.3 790.15 740 790.15 740 777.65 742.65 777.65 742.65 765.1 745.3 765.1 745.3 750.1 747.95 750.1 747.95 735.1 750.65 735.1 750.65 719.95 753.25 719.95 753.25 707.45 756 707.45 756 697.45 758.6 697.45 758.6 684.95 761.35 684.95 761.35 672.4 764 672.4 764 659.95 766.6 659.95 766.6 649.9 769.3 649.9 769.3 642.45
Q 774.15 635.8 775.55 624.95
L 776.4 619.65
Q 777.85 612.75 779.95 607.3
L 779.95 599.75 782.55 599.75 782.55 589.8 785.3 589.8
Q 785.4 584.7 786.95 581.65 787.95 579.7 786.75 578.7 785.4 577.3 784.15 575.85 777.7 567.7 766.6 564.7 761.5 558.85 753.15 549.85 746.8 543.1 737.3 539.7 737.3 538.35 736.8 538.05 730.35 533.85 726.7 527.1 725.35 527.1 724.1 526.85 718.45 525.2 715.95 519.6 714.7 519.6 713.75 519 691.5 503.25 660.1 497.15 658.9 497.15 657.4 497.35 651.95 498.8 652 494.6
L 620.1 494.6
Q 605.35 497.85 593.4 504.6 588.4 512.55 580.15 517.1 580.15 518.4 579.75 519.45 576.45 527.85 572.1 534.6
L 572.1 559.7
Q 575.05 576.2 584.45 585.8 620 621.7 652 657.4 661.65 676.75 670.25 697.7 670.7 698.7 670.7 699.95 674.85 699.45 673.65 705.1 673.35 706.4 673.35 707.45
L 673.35 712.5
Q 678 719.05 674.75 732.2 674.65 732.6 673.35 732.6
L 673.35 740.1
Q 673.35 741.1 673.65 742.45 674.85 748.1 670.7 747.6 670.7 750.15 669.85 752.2 655.5 789.15 628.05 812.75 626.75 812.75 625.5 813.05 619.75 814.8 617.4 820.2 616 820.2 614.95 820.8 600.75 827.5 585.4 835.3
L 582.85 835.3
Q 575.2 835.7 569.45 837.8 569.45 838.95 569.15 839.05 565.65 840.3 561.5 840.3
L 558.85 840.3
Q 558.85 841.5 558.6 841.5 553.25 842.75 548.15 842.75
L 542.8 842.75
Q 542.8 844 542.55 844.05 537.5 845.25 532.2 845.25
L 516.2 845.25
Q 515.35 845.25 513.55 845.6 508.05 847 508.15 842.75
L 494.9 842.75
Q 493.6 842.75 492.2 843.1 486.75 844.55 486.85 840.3 485.4 840.3 484.25 840.55 478.8 842 478.85 837.8
L 473.55 837.8
Q 472.05 837.8 471 838 465.45 839.4 465.6 835.3 456.6 831.05 444.25 830.3 441 824.45 434 821.6 417.05 814.65 401.65 805.15 392 793.1 380.35 782.65 380.35 781.35 379.7 780.6 372.8 769.65 369.65 755.1 368.3 755.1 368.15 754.6 366.95 751.35 366.95 747.6
L 366.95 745.1
Q 365.65 745.1 365.65 744.85 364.35 735.2 364.35 724.95
L 366.95 724.95 366.95 715 369.65 715 369.65 712.5
Q 374.05 704.1 379.7 696.9 380.35 696.15 380.35 694.95 388.15 688.35 401.65 687.45
L 401.65 684.95
Q 410.5 684.95 420.15 686.15 420.25 686.15 420.25 687.45 430.25 687.95 436.6 691.85 437.55 692.5 438.9 692.5 449.15 702.9 454.5 717.65 454.85 718.65 454.85 719.95 459.15 719.45 457.85 725.1 457.55 726.45 457.55 727.55
L 457.55 737.6
Q 457.55 738.55 457.85 740 459.15 745.65 454.85 745.1 454.85 746.35 454.6 747.45 449.75 764.3 438.9 775.1
L 438.9 790.15 449.55 802.65
Q 463.4 811 481.6 815.25 485.65 815.25 489.15 816.35 489.55 816.5 489.55 817.75
L 513.55 817.75 513.55 815.25 521.5 815.25
Q 535.25 812 545.8 805.8 546.75 805.15 548.15 805.15 559 794.15 566.35 779.85 566.8 778.85 566.8 777.65
L 566.8 770.05 569.45 770.05 569.45 752.6
Q 569.45 751.3 569 750.35 565 740.85 561.5 730.05 532.9 704.7 507.35 675.7 498.5 665.8 490.95 653.9 485.5 645.2 482.85 640.8 475.4 628.65 473.55 609.8 472.2 609.8 472.05 609.3 470.9 606.15 470.9 602.25
L 470.9 597.25
Q 469.55 597.25 469.5 597 468.2 589.8 468.2 582.25
L 468.2 574.75 470.9 574.75 470.9 562.2 473.55 562.2 473.55 554.7
Q 479 547.45 483.2 537.95 488.9 525.25 497.85 515 507.5 503.9 516.2 494.6 543.65 475.8 580.15 467.05
L 580.15 464.55 593.4 464.55 593.4 462.05 622.7 462.05
Q 631.05 462.05 638.6 463.15 638.75 463.25 638.75 464.55
L 646.75 464.55
Q 650.85 464.55 654.35 465.65 654.75 465.75 654.75 467.05 680.35 470 698.05 480.9 699.95 482 702.25 483.1 720.55 491.5 734.65 504.6 749.2 513.15 760.7 525.2 761.35 526 761.35 527.1 772.35 530.15 778.45 538.75 779.75 540.65 781.65 543.05 786.2 548.8 793.3 552.2 801.3 550.25 802.45 539.8 802.6 538.4 803.3 536.8 825.85 483.3 855.1 437.3 885.8 389.15 928.55 353.4 930.35 351.85 931.8 349.25 938.5 348.3 941.9 343.75 942.5 342.95 942.5 341.75 960.3 334.5 975.15 325.65 980 322.9 984.7 320.7 997.75 314.65 1014.35 311.7
L 1014.35 309.2 Z"/>
</g>
</defs>

<g transform="matrix( 1, 0, 0, 1, 0,0) ">
<use xlink:href="#Layer2_0_FILL"/>
</g>

<g transform="matrix( 1, 0, 0, 1, 0,0) ">
<use xlink:href="#Layer1_0_FILL"/>
</g>
</svg>
