
<svg xmlns="http://www.w3.org/2000/svg" version="1.1" xmlns:xlink="http://www.w3.org/1999/xlink" preserveAspectRatio="none" x="0px" y="0px" width="1600px" height="1700px" viewBox="0 0 1600 1700">
<defs>
<linearGradient id="Gradient_1" gradientUnits="userSpaceOnUse" x1="1128.7125" y1="1342.3" x2="1602.7875" y2="1342.3" spreadMethod="pad">
<stop  offset="0%" stop-color="#2665A7"/>

<stop  offset="100%" stop-color="#49BBF1"/>
</linearGradient>

<linearGradient id="Gradient_2" gradientUnits="userSpaceOnUse" x1="0" y1="710" x2="1420" y2="710" spreadMethod="pad">
<stop  offset="0%" stop-color="#3574C6"/>

<stop  offset="100%" stop-color="#0F2C85"/>
</linearGradient>

<linearGradient id="Gradient_3" gradientUnits="userSpaceOnUse" x1="142.03750000000002" y1="710.05" x2="1277.9625" y2="710.05" spreadMethod="pad">
<stop  offset="0%" stop-color="#FFFFFF"/>

<stop  offset="100%" stop-color="#BBDAF7"/>
</linearGradient>

<linearGradient id="Gradient_4" gradientUnits="userSpaceOnUse" x1="504.13749999999993" y1="1349" x2="1419.9625" y2="1349" spreadMethod="pad">
<stop  offset="0%" stop-color="#2665A7"/>

<stop  offset="100%" stop-color="#49BBF1"/>
</linearGradient>

<g id="Layer0_0_FILL">
<path fill="url(#Gradient_1)" stroke="none" d="
M 1602.8 1342.35
L 1420 1244.5 1277.95 1168.45 1128.75 1088.6 1128.7 1278 1128.75 1278 1128.75 1420 1128.7 1420 1128.75 1596 1602.8 1342.35 Z"/>

<path fill="url(#Gradient_2)" stroke="none" d="
M 504.1 1420
L 504.1 1278.05 142.05 1278.05 142.05 142 1277.95 142 1277.95 1168.45 1420 1244.5 1420 0 0 0 0 1420 504.1 1420 Z"/>

<path fill="url(#Gradient_3)" stroke="none" d="
M 504.1 1278.05
L 504.1 1278 1128.7 1278 1128.75 1088.6 1277.95 1168.45 1277.95 142 142.05 142 142.05 1278.05 504.1 1278.05
M 667.7 270.3
Q 670.8 274.1 669.75 281.25 668.4 288.45 664.3 300.4
L 532.35 692.8
Q 530.65 698.6 527.9 702.35 525.2 705.75 519.05 707.8 512.9 709.55 502.3 710.2 491.7 710.55 474.6 710.55 460.95 710.55 451.35 710.55 441.45 710.2 434.6 709.55 427.75 708.85 423.65 707.45 419.25 706.1 416.5 704.05 413.4 702 412.05 699.25 410.35 696.2 408.95 691.75
L 277.4 299.7
Q 273.3 287.4 272.6 280.25 271.55 273.05 276 269.65 280.1 265.85 290.35 265.2 300.6 264.15 319.1 264.15 334.8 264.15 343.7 264.85 352.6 265.55 357.35 267.25 362.15 268.95 364.2 272.35 365.9 275.8 367.6 280.9
L 475.3 622.05 475.6 622.05 581.25 282.6
Q 582.6 276.8 584.65 273.4 586.7 269.65 591.85 267.6 596.6 265.55 605.85 264.85 615.1 264.15 631.15 264.15 646.85 264.15 655.75 265.2 664.3 266.2 667.7 270.3
M 790.2 652.55
Q 797.7 645.7 809 645.7
L 920.1 645.7
Q 960.75 645.7 989.15 652.55 1017.15 659.4 1036.65 673.4 1055.8 687.05 1066.05 708.25 1076.3 729.45 1076.3 758.15 1076.3 774.25 1072.2 788.6 1068.1 802.6 1060.2 814.2 1052.35 825.85 1041.1 834.75 1029.45 843.6 1014.75 849.1 1033.55 852.5 1049.65 861.05 1065.35 869.6 1077.3 883.25 1088.95 896.6 1095.75 914.7 1102.6 932.8 1102.6 955.4 1102.6 978.95 1096.1 998.1 1089.6 1017.25 1078.35 1031.95 1066.7 1046.65 1051 1057.25 1034.95 1067.85 1015.8 1074.65 996.65 1081.5 975.1 1084.9 953.25 1088 926.6 1088
L 809 1088
Q 797.7 1088 790.2 1081.5 782.35 1074.65 782.35 1059.65
L 782.35 674.1
Q 782.35 659.05 790.2 652.55
M 1004.15 931.1
Q 999.05 918.8 989.15 910.6 979.2 902.4 963.85 897.95 948.45 893.5 923.85 893.5
L 870.55 893.5 870.55 1019.3 935.45 1019.3
Q 954.25 1019.3 967.25 1015.55 979.9 1011.45 989.45 1003.9 998.7 996.05 1004.15 984.8 1009.3 973.15 1009.3 958.45 1009.3 943.1 1004.15 931.1
M 970 727.75
Q 961.8 720.55 949.5 716.8 936.85 713.05 916 713.05
L 870.55 713.05 870.55 827.9 920.75 827.9
Q 940.25 827.9 951.85 823.45 963.5 818.65 971.35 810.8 978.9 802.6 982.65 792 986.4 781.05 986.4 769.1 986.4 755.75 982.3 745.2 978.2 734.6 970 727.75 Z"/>

<path fill="#0F2D86" stroke="none" d="
M 809 645.7
Q 797.7 645.7 790.2 652.55 782.35 659.05 782.35 674.1
L 782.35 1059.65
Q 782.35 1074.65 790.2 1081.5 797.7 1088 809 1088
L 926.6 1088
Q 953.25 1088 975.1 1084.9 996.65 1081.5 1015.8 1074.65 1034.95 1067.85 1051 1057.25 1066.7 1046.65 1078.35 1031.95 1089.6 1017.25 1096.1 998.1 1102.6 978.95 1102.6 955.4 1102.6 932.8 1095.75 914.7 1088.95 896.6 1077.3 883.25 1065.35 869.6 1049.65 861.05 1033.55 852.5 1014.75 849.1 1029.45 843.6 1041.1 834.75 1052.35 825.85 1060.2 814.2 1068.1 802.6 1072.2 788.6 1076.3 774.25 1076.3 758.15 1076.3 729.45 1066.05 708.25 1055.8 687.05 1036.65 673.4 1017.15 659.4 989.15 652.55 960.75 645.7 920.1 645.7
L 809 645.7
M 949.5 716.8
Q 961.8 720.55 970 727.75 978.2 734.6 982.3 745.2 986.4 755.75 986.4 769.1 986.4 781.05 982.65 792 978.9 802.6 971.35 810.8 963.5 818.65 951.85 823.45 940.25 827.9 920.75 827.9
L 870.55 827.9 870.55 713.05 916 713.05
Q 936.85 713.05 949.5 716.8
M 989.15 910.6
Q 999.05 918.8 1004.15 931.1 1009.3 943.1 1009.3 958.45 1009.3 973.15 1004.15 984.8 998.7 996.05 989.45 1003.9 979.9 1011.45 967.25 1015.55 954.25 1019.3 935.45 1019.3
L 870.55 1019.3 870.55 893.5 923.85 893.5
Q 948.45 893.5 963.85 897.95 979.2 902.4 989.15 910.6
M 669.75 281.25
Q 670.8 274.1 667.7 270.3 664.3 266.2 655.75 265.2 646.85 264.15 631.15 264.15 615.1 264.15 605.85 264.85 596.6 265.55 591.85 267.6 586.7 269.65 584.65 273.4 582.6 276.8 581.25 282.6
L 475.6 622.05 475.3 622.05 367.6 280.9
Q 365.9 275.8 364.2 272.35 362.15 268.95 357.35 267.25 352.6 265.55 343.7 264.85 334.8 264.15 319.1 264.15 300.6 264.15 290.35 265.2 280.1 265.85 276 269.65 271.55 273.05 272.6 280.25 273.3 287.4 277.4 299.7
L 408.95 691.75
Q 410.35 696.2 412.05 699.25 413.4 702 416.5 704.05 419.25 706.1 423.65 707.45 427.75 708.85 434.6 709.55 441.45 710.2 451.35 710.55 460.95 710.55 474.6 710.55 491.7 710.55 502.3 710.2 512.9 709.55 519.05 707.8 525.2 705.75 527.9 702.35 530.65 698.6 532.35 692.8
L 664.3 300.4
Q 668.4 288.45 669.75 281.25 Z"/>

<path fill="url(#Gradient_4)" stroke="none" d="
M 504.1 1278
L 504.1 1278.05 504.1 1420 1128.7 1420 1128.75 1420 1128.75 1278 1128.7 1278 504.1 1278 Z"/>
</g>
</defs>

<g transform="matrix( 1, 0, 0, 1, 0,0) ">
<use xlink:href="#Layer0_0_FILL"/>
</g>
</svg>
