<?xml version="1.0" standalone="no"?>
<!DOCTYPE svg PUBLIC "-//W3C//DTD SVG 20010904//EN"
 "http://www.w3.org/TR/2001/REC-SVG-20010904/DTD/svg10.dtd">
<svg version="1.0" xmlns="http://www.w3.org/2000/svg"
 width="400.000000pt" height="400.000000pt" viewBox="0 0 400.000000 400.000000"
 preserveAspectRatio="xMidYMid meet">
<metadata>
Created by potrace 1.15, written by Peter Selinger 2001-2017
</metadata>
<g transform="translate(0.000000,400.000000) scale(0.100000,-0.100000)"
fill="#000000" stroke="none">
<path d="M0 2000 l0 -2000 2000 0 2000 0 0 2000 0 2000 -2000 0 -2000 0 0
-2000z m3721 1479 c25 -18 29 -27 29 -69 0 -41 -4 -52 -27 -71 -19 -15 -24
-23 -15 -26 31 -11 52 -48 52 -89 0 -80 -74 -133 -166 -119 -47 7 -57 15 -48
39 5 12 13 14 33 9 49 -14 84 -7 108 21 13 15 23 35 23 45 0 31 -37 68 -75 75
-26 5 -35 12 -35 26 0 14 7 20 24 20 32 0 76 37 76 64 0 40 -33 60 -90 53 -44
-5 -50 -4 -50 12 0 27 9 31 73 31 44 0 66 -5 88 -21z m-2771 -479 l0 -79 -52
0 c-79 1 -134 -25 -160 -75 -19 -36 -22 -65 -29 -256 -8 -230 -23 -329 -62
-413 -28 -59 -82 -117 -144 -154 -24 -14 -43 -28 -43 -32 0 -4 15 -14 33 -23
92 -44 157 -136 188 -264 15 -65 22 -139 27 -302 7 -186 11 -223 27 -256 30
-59 62 -78 144 -84 l71 -5 0 -80 0 -80 -102 5 c-181 8 -264 66 -308 213 -6 22
-15 148 -20 280 -10 257 -21 326 -63 398 -30 51 -108 97 -164 97 l-33 0 0 98
0 98 58 12 c66 14 123 55 151 110 32 64 42 140 51 382 6 192 12 247 28 298 45
139 126 190 310 191 l92 1 0 -80z m2370 69 c29 -6 69 -25 93 -43 92 -71 116
-159 127 -486 7 -208 10 -242 30 -295 32 -84 82 -131 160 -147 l60 -12 0 -98
0 -98 -32 0 c-47 -1 -108 -31 -145 -73 -54 -62 -64 -115 -73 -377 -9 -255 -23
-344 -66 -418 -47 -80 -149 -122 -296 -122 l-78 0 0 79 0 78 69 5 c78 6 130
32 149 74 20 43 32 151 32 294 0 151 20 294 50 364 25 58 107 146 160 172 22
10 40 22 40 25 0 3 -15 12 -32 21 -18 9 -54 34 -80 57 -96 85 -138 231 -138
480 0 158 -13 263 -38 305 -23 40 -73 64 -150 72 l-62 7 0 73 0 74 85 0 c46 0
107 -5 135 -11z m-566 -294 c38 -8 71 -16 73 -19 4 -3 -25 -127 -31 -134 -2
-1 -23 5 -47 15 -32 12 -78 17 -164 17 -113 1 -123 -1 -172 -27 -82 -42 -124
-121 -109 -201 13 -70 74 -120 253 -208 234 -115 303 -183 334 -327 14 -69 -1
-174 -37 -247 -59 -124 -224 -214 -390 -214 -98 0 -237 32 -293 67 -2 1 2 32
9 68 10 54 16 66 29 61 9 -3 48 -17 88 -31 166 -58 316 -34 400 64 58 68 67
193 20 274 -34 57 -91 96 -264 179 -156 75 -228 129 -264 200 -64 124 -34 289
68 378 38 34 138 84 183 93 58 10 249 6 314 -8z m-968 -350 c266 -807 314
-955 314 -965 0 -7 -28 -10 -76 -8 l-77 3 -23 70 c-12 39 -46 143 -74 233
l-52 162 -217 0 -216 0 -64 -202 c-35 -112 -70 -218 -77 -235 l-13 -33 -75 0
c-42 0 -76 1 -76 3 0 1 25 79 55 172 263 805 348 1066 361 1103 l16 43 91 -3
91 -3 112 -340z"/>
<path d="M1566 2548 c-9 -21 -16 -41 -16 -45 0 -4 -32 -107 -70 -227 -39 -120
-70 -221 -70 -222 0 -2 77 -4 171 -4 l171 0 -7 28 c-3 16 -41 136 -84 268
l-78 239 -17 -37z"/>
</g>
</svg>
