<?xml version="1.0" standalone="no"?>
<!DOCTYPE svg PUBLIC "-//W3C//DTD SVG 20010904//EN"
 "http://www.w3.org/TR/2001/REC-SVG-20010904/DTD/svg10.dtd">
<svg version="1.0" xmlns="http://www.w3.org/2000/svg"
 width="650.000000pt" height="650.000000pt" viewBox="0 0 650.000000 650.000000"
 preserveAspectRatio="xMidYMid meet">
<metadata>
Created by potrace 1.15, written by Peter Selinger 2001-2017
</metadata>
<g transform="translate(0.000000,650.000000) scale(0.100000,-0.100000)"
fill="#000000" stroke="none">
<path d="M0 3250 l0 -3250 3250 0 3250 0 0 3250 0 3250 -3250 0 -3250 0 0
-3250z m3391 2400 c43 -13 344 -181 924 -515 726 -419 869 -505 917 -552 63
-62 110 -147 128 -233 8 -40 10 -331 8 -1085 l-3 -1030 -23 -57 c-36 -90 -100
-169 -178 -220 -117 -77 -1675 -971 -1739 -998 -52 -22 -74 -25 -170 -25 -87
0 -122 5 -166 22 -31 11 -243 128 -470 260 -228 131 -610 351 -849 488 -366
210 -445 260 -496 310 -76 75 -118 160 -133 268 -7 52 -11 405 -11 1035 0
1041 0 1035 57 1152 58 121 76 133 957 640 920 530 914 526 981 545 76 20 192
18 266 -5z"/>
<path d="M3130 5548 c-36 -13 -202 -103 -370 -200 -168 -97 -543 -314 -835
-481 -560 -322 -609 -355 -653 -448 -12 -25 -27 -70 -32 -101 -7 -36 -10 -404
-8 -1054 l3 -999 24 -59 c45 -113 90 -147 526 -396 215 -123 593 -341 840
-483 248 -143 475 -269 505 -280 78 -27 182 -25 257 5 65 27 1699 966 1751
1007 18 14 48 49 67 76 68 101 66 49 63 1186 l-3 1024 -33 67 c-21 42 -50 83
-81 110 -47 42 -1651 973 -1755 1019 -75 33 -184 36 -266 7z m306 -1079 c341
-47 615 -242 766 -544 51 -101 98 -262 98 -332 0 -10 -61 -13 -314 -13 l-313
0 -23 71 c-41 125 -126 214 -242 251 -95 30 -232 22 -311 -17 -109 -54 -203
-183 -241 -330 -59 -226 -40 -461 54 -653 49 -98 115 -168 197 -209 54 -26 67
-28 173 -28 96 0 125 4 171 23 113 45 187 138 211 266 l13 68 80 -6 c44 -3
178 -11 299 -17 l219 -12 -7 -78 c-8 -95 -45 -228 -87 -312 -117 -231 -299
-373 -568 -444 -79 -21 -127 -26 -273 -30 -196 -6 -290 4 -427 43 -357 104
-614 359 -716 711 -78 269 -71 620 18 878 137 398 479 661 932 718 66 8 218 6
291 -4z"/>
</g>
</svg>
