<?xml version="1.0" standalone="no"?>
<!DOCTYPE svg PUBLIC "-//W3C//DTD SVG 20010904//EN"
 "http://www.w3.org/TR/2001/REC-SVG-20010904/DTD/svg10.dtd">
<svg version="1.0" xmlns="http://www.w3.org/2000/svg"
 width="1200.000000pt" height="1349.000000pt" viewBox="0 0 1200.000000 1349.000000"
 preserveAspectRatio="xMidYMid meet">
<metadata>
Created by potrace 1.15, written by Peter Selinger 2001-2017
</metadata>
<g transform="translate(0.000000,1349.000000) scale(0.100000,-0.100000)"
fill="#000000" stroke="none">
<path d="M5815 13483 c-56 -8 -189 -44 -244 -67 -67 -27 -5029 -2890 -5116
-2951 -200 -141 -373 -407 -435 -669 -19 -79 -20 -147 -20 -3057 l0 -2976 25
-97 c61 -241 212 -484 386 -623 57 -45 4949 -2878 5109 -2958 36 -18 99 -44
140 -57 71 -22 90 -23 345 -23 l270 0 94 33 c58 20 163 72 275 137 100 57
1240 715 2534 1462 1740 1005 2372 1374 2424 1418 165 138 302 357 375 600 17
57 18 205 21 3061 l2 3001 -24 97 c-68 268 -258 543 -465 674 -42 27 -1193
693 -2559 1482 -2630 1517 -2549 1473 -2734 1505 -77 14 -326 19 -403 8z m370
-2753 c459 -24 859 -109 1269 -270 830 -326 1529 -918 1985 -1682 l22 -37 -23
-15 c-13 -8 -383 -222 -823 -476 -440 -255 -818 -473 -841 -486 l-41 -24 -37
60 c-140 227 -355 447 -589 603 -580 388 -1332 443 -1959 145 -413 -197 -740
-519 -941 -927 -215 -434 -264 -922 -140 -1401 159 -621 653 -1154 1268 -1370
365 -128 777 -147 1146 -54 483 121 915 425 1184 831 32 48 62 92 66 97 4 5
395 -216 868 -490 l861 -498 -27 -45 c-52 -90 -223 -338 -295 -428 -193 -241
-403 -452 -633 -636 -1064 -852 -2476 -1108 -3760 -682 -1485 493 -2559 1822
-2719 3367 -80 766 52 1511 389 2193 310 627 789 1171 1375 1562 589 393 1282
624 1985 662 206 12 204 12 410 1z m3365 -3550 l0 -220 225 0 225 0 0 -220 0
-220 -225 0 -225 0 0 -225 0 -225 -217 2 -218 3 -3 223 -2 222 -220 0 -220 0
0 220 0 220 220 0 220 0 0 220 0 220 220 0 220 0 0 -220z m1670 0 l0 -220 220
0 220 0 0 -220 0 -220 -220 0 -220 0 0 -225 0 -225 -220 0 -220 0 0 225 0 225
-220 0 -220 0 0 220 0 220 220 0 220 0 0 220 0 220 220 0 220 0 0 -220z"/>
</g>
</svg>
