<?xml version="1.0" standalone="no"?>
<!DOCTYPE svg PUBLIC "-//W3C//DTD SVG 20010904//EN"
 "http://www.w3.org/TR/2001/REC-SVG-20010904/DTD/svg10.dtd">
<svg version="1.0" xmlns="http://www.w3.org/2000/svg"
 width="1920.000000pt" height="1080.000000pt" viewBox="0 0 1920.000000 1080.000000"
 preserveAspectRatio="xMidYMid meet">
<metadata>
Created by potrace 1.15, written by Peter Selinger 2001-2017
</metadata>
<g transform="translate(0.000000,1080.000000) scale(0.100000,-0.100000)"
fill="#000000" stroke="none">
<path d="M0 10235 l0 -565 9600 0 9600 0 0 565 0 565 -9600 0 -9600 0 0 -565z"/>
<path d="M8150 9570 c0 -11 -4 -20 -9 -20 -5 0 -12 -10 -14 -22 l-4 -23 -2 23
c-1 19 -7 22 -41 22 -36 0 -40 -2 -49 -35 -6 -24 -6 -46 1 -65 9 -26 15 -30
49 -30 31 0 39 4 39 18 0 10 4 22 9 28 5 5 11 18 14 29 3 11 5 -1 6 -27 1 -46
2 -48 31 -48 23 0 30 5 30 19 0 11 -4 23 -10 26 -15 9 -12 45 4 45 10 0 16
-14 18 -42 3 -36 7 -44 26 -46 13 -2 30 2 38 8 10 9 14 9 14 1 0 -6 17 -11 40
-11 35 0 40 3 41 23 l0 22 9 -22 c16 -39 40 -29 40 16 0 25 5 41 15 45 12 4
15 -4 15 -39 0 -38 3 -45 20 -45 17 0 20 7 20 39 0 22 5 43 10 46 6 4 10 -12
10 -39 0 -39 3 -46 19 -46 11 0 22 6 24 13 4 10 6 10 6 0 1 -8 16 -13 41 -13
l40 0 0 65 0 65 -41 0 c-41 0 -41 -1 -35 -30 3 -17 1 -30 -4 -30 -6 0 -10 14
-10 30 l0 30 -84 0 c-80 0 -85 -1 -89 -22 l-4 -23 -2 23 c-1 19 -7 22 -41 22
-24 0 -40 -5 -40 -12 0 -6 -9 -1 -20 12 -11 13 -20 27 -20 32 0 17 -29 7 -35
-12 -3 -11 -13 -20 -21 -20 -8 0 -14 9 -14 20 0 13 -7 20 -20 20 -13 0 -20 -7
-20 -20z"/>
<path d="M7384 9566 c-3 -7 -4 -42 -2 -77 l3 -64 68 -3 67 -3 0 46 c0 28 4 44
10 40 6 -3 10 -24 10 -46 0 -56 28 -54 32 3 4 59 28 63 28 4 0 -39 3 -46 20
-46 12 0 20 -7 20 -16 0 -15 23 -44 34 -44 3 0 6 14 6 30 0 27 3 30 30 30 17
0 30 5 30 12 0 9 3 9 12 0 28 -28 38 -13 38 53 0 57 -2 65 -19 65 -11 0 -22
-6 -24 -12 -4 -10 -6 -10 -6 0 -1 8 -18 12 -50 12 -30 0 -51 -5 -54 -12 -4
-10 -6 -10 -6 0 -1 8 -22 12 -72 12 -49 0 -75 4 -85 15 -19 19 -83 20 -90 1z"/>
<path d="M7802 9488 c3 -57 5 -63 26 -66 20 -3 22 1 22 42 0 34 4 46 15 46 10
0 15 -10 15 -31 0 -39 20 -59 62 -59 l33 0 -1 53 c-2 78 -1 77 -38 77 -19 0
-37 -6 -40 -12 -5 -10 -7 -10 -12 0 -3 6 -23 12 -45 12 l-40 0 3 -62z"/>
<path d="M7658 9272 c-16 -3 -18 -16 -18 -98 l0 -94 49 0 c46 0 50 2 54 28 l4
27 2 -27 c1 -27 4 -28 50 -28 l50 0 4 53 3 52 2 -52 c2 -52 3 -53 32 -53 30 0
42 21 20 35 -5 3 -10 17 -10 31 0 13 5 24 10 24 6 0 10 9 10 20 0 11 -4 20
-10 20 -5 0 -10 9 -10 20 0 13 -7 20 -20 20 -13 0 -20 -7 -20 -20 0 -18 -7
-20 -55 -20 -48 0 -55 -3 -55 -19 0 -11 6 -21 13 -24 6 -2 9 -8 5 -12 -12 -12
-28 5 -28 31 0 20 -5 24 -29 24 -26 0 -30 4 -33 33 -2 25 -7 32 -20 29z"/>
<path d="M8352 9263 c-5 -10 -13 -31 -17 -48 -4 -16 -10 -24 -12 -17 -3 6 -20
12 -38 12 -25 0 -34 -5 -39 -22 -8 -30 -8 -72 0 -92 7 -19 74 -23 74 -4 0 9 3
9 12 0 7 -7 26 -12 43 -12 24 0 35 6 43 25 24 52 4 105 -40 105 -15 0 -28 5
-28 10 0 6 14 10 30 10 34 0 38 10 12 33 -23 21 -29 21 -40 0z"/>
<path d="M8550 9260 c-6 -10 -10 -24 -10 -30 0 -6 -5 -17 -12 -24 -10 -11 -15
-11 -25 0 -7 7 -13 20 -13 28 0 25 -36 19 -48 -8 -8 -18 -8 -43 -2 -83 6 -32
10 -59 10 -60 0 -10 59 0 63 10 4 10 6 10 6 0 1 -8 16 -13 41 -13 l40 0 0 65
c0 63 -1 65 -25 65 -14 0 -25 5 -25 10 0 6 6 10 13 10 7 0 18 9 24 19 10 16 9
20 -8 24 -12 3 -23 -1 -29 -13z"/>
<path d="M7020 8920 c0 -25 -4 -30 -24 -30 -27 0 -36 -16 -36 -65 0 -56 8 -65
56 -65 39 0 44 3 45 23 l0 22 11 -22 c9 -20 18 -22 89 -22 l78 0 0 64 -1 65
-33 0 c-18 0 -36 -6 -39 -12 -5 -10 -7 -10 -12 0 -3 6 -20 12 -38 12 -24 0
-36 -6 -44 -22 -9 -20 -11 -16 -11 30 -1 45 -4 52 -21 52 -16 0 -20 -7 -20
-30z"/>
<path d="M8570 8910 c0 -18 -7 -20 -55 -20 l-55 0 0 -65 c0 -58 2 -65 20 -65
17 0 20 7 20 39 0 22 5 43 10 46 6 4 10 -12 10 -39 0 -39 3 -46 20 -46 17 0
20 7 22 53 l1 52 6 -50 c5 -45 9 -50 32 -53 26 -3 26 -3 24 65 -1 37 -6 76
-10 86 -10 24 -45 22 -45 -3z"/>
<path d="M7300 8806 c0 -62 4 -87 15 -96 13 -11 16 -8 21 19 5 22 12 31 26 31
11 0 27 8 36 17 16 16 17 16 20 0 3 -14 16 -17 73 -17 l69 0 0 65 0 65 -40 0
-40 0 0 -40 c0 -29 -4 -40 -15 -40 -11 0 -15 11 -15 40 0 33 -3 40 -19 40 -11
0 -22 -6 -25 -12 -5 -10 -7 -10 -12 0 -3 7 -24 12 -50 12 l-44 0 0 -84z"/>
<path d="M7570 8856 c0 -19 6 -37 13 -39 10 -4 10 -6 0 -6 -7 -1 -13 -12 -13
-26 0 -24 2 -25 75 -25 52 0 75 4 75 12 0 9 3 9 12 0 7 -7 31 -12 55 -12 l43
0 0 65 0 65 -50 0 c-43 0 -50 -3 -50 -19 0 -11 6 -22 13 -24 9 -4 8 -8 -3 -16
-11 -8 -16 -7 -18 4 -2 7 -13 16 -25 18 l-22 4 23 2 c35 2 28 31 -8 31 -22 0
-30 -5 -30 -17 -1 -17 -1 -17 -14 0 -8 10 -26 17 -45 17 -29 0 -31 -3 -31 -34z"/>
<path d="M7956 8874 c-3 -9 -6 -31 -6 -49 0 -53 9 -65 45 -65 27 0 34 5 38 23
l4 22 2 -22 c1 -21 6 -22 86 -22 l85 0 0 35 c0 18 -4 34 -9 34 -5 0 -11 7 -14
14 -4 10 -1 13 9 9 9 -3 14 2 14 16 0 17 -6 21 -34 21 -19 0 -37 -6 -40 -12
-5 -10 -7 -10 -12 0 -3 6 -23 12 -44 12 -36 0 -38 -2 -45 -36 -6 -34 -25 -64
-39 -64 -3 0 -6 16 -6 36 0 31 3 35 20 29 16 -5 20 -2 20 14 0 17 -6 21 -34
21 -22 0 -36 -6 -40 -16z"/>
<path d="M8272 8870 c-16 -27 -15 -78 2 -96 10 -10 39 -14 95 -14 l81 0 0 49
c0 79 -2 81 -89 81 -65 0 -78 -3 -89 -20z"/>
<path d="M8866 8868 c-8 -30 -8 -72 0 -92 5 -13 23 -16 89 -16 76 0 84 2 90
21 9 26 -13 69 -34 70 -10 0 -8 4 7 9 33 14 27 30 -12 30 -24 0 -36 -5 -39
-17 -4 -17 -5 -17 -6 0 -1 13 -10 17 -45 17 -37 0 -45 -4 -50 -22z"/>
<path d="M17370 7890 l0 -600 904 0 c815 0 904 2 910 16 8 20 8 1132 0 1162
l-6 22 -904 0 -904 0 0 -600z"/>
<path d="M6468 7858 c-4 -881 0 -1230 15 -1225 9 3 13 76 15 295 l2 292 80 0
80 0 0 -37 c0 -21 2 -148 4 -283 1 -135 1 -251 -2 -257 -2 -7 -13 -13 -23 -13
-14 0 -19 -7 -19 -25 l0 -25 120 0 120 0 0 94 c0 53 4 98 10 101 6 4 10 73 10
176 l0 169 25 0 25 0 0 140 0 140 -33 0 c-18 0 -38 -5 -45 -12 -9 -9 -12 -7
-12 10 0 13 -6 22 -15 22 -19 0 -9 26 22 60 13 14 23 34 23 46 0 11 9 29 21
40 31 28 43 55 30 64 -7 3 -14 24 -18 46 -7 52 -42 104 -70 104 -16 0 -25 10
-35 43 -18 52 -36 54 -53 5 -12 -35 -36 -68 -50 -68 -22 0 -50 -59 -60 -126
-5 -36 -4 -42 14 -47 15 -3 22 -16 27 -45 3 -22 17 -51 30 -65 27 -29 32 -57
10 -57 -18 0 -45 -41 -53 -80 l-5 -30 -79 0 -79 0 0 350 0 350 320 0 320 0 -2
218 -3 217 -332 3 -332 2 -3 -592z m642 372 l0 -60 -305 0 -305 0 0 60 0 60
305 0 305 0 0 -60z"/>
<path d="M7330 7881 c0 -509 -2 -571 -16 -586 -17 -16 -12 -65 6 -65 6 0 10
-112 10 -305 0 -197 4 -305 10 -305 6 0 10 107 10 300 l0 300 79 0 79 0 3 -43
c2 -23 3 -156 1 -295 -3 -211 -6 -252 -18 -252 -8 0 -14 -10 -14 -25 l0 -25
119 0 119 0 7 128 c4 70 5 191 2 270 l-6 142 35 0 35 0 -3 138 -3 137 -47 1
c-29 1 -53 8 -63 18 -16 16 -16 18 4 35 28 24 51 82 51 126 0 20 5 35 11 35 9
0 10 26 5 92 -9 114 -20 127 -110 129 -34 1 -72 3 -86 5 -52 7 -70 -4 -70 -40
0 -19 -6 -37 -12 -39 -10 -4 -10 -7 -1 -14 6 -5 17 -21 22 -36 10 -26 8 -30
-19 -45 -39 -22 -38 -32 4 -32 36 0 46 -12 46 -56 0 -24 2 -31 34 -91 18 -35
21 -63 6 -63 -5 0 -10 -5 -10 -11 0 -6 -9 -22 -20 -36 -11 -14 -20 -34 -20
-44 0 -17 -9 -19 -80 -19 l-80 0 0 350 0 350 320 0 320 0 0 220 0 220 -330 0
-330 0 0 -569z m110 379 l0 -30 65 0 65 0 0 30 0 30 84 0 83 0 6 -52 c2 -29 3
-56 0 -60 -2 -5 -42 -8 -89 -8 -77 0 -84 2 -84 20 0 18 -7 20 -65 20 -58 0
-65 -2 -65 -20 0 -17 -7 -20 -45 -20 l-45 0 0 60 0 60 45 0 c43 0 45 -1 45
-30z"/>
<path d="M8170 8243 c-1 -115 0 -369 0 -566 1 -309 -1 -360 -15 -373 -19 -20
-19 -48 0 -68 21 -20 20 -96 -1 -96 -11 0 -14 -6 -8 -22 3 -13 11 -24 15 -26
5 -2 9 -104 9 -227 0 -202 7 -264 24 -219 3 9 6 104 6 211 0 192 0 196 19 175
10 -12 30 -22 45 -22 14 0 26 -4 26 -10 0 -5 14 -10 30 -10 l30 0 0 -169 c0
-138 -3 -171 -15 -181 -8 -7 -15 -23 -15 -36 0 -24 1 -24 108 -24 59 0 113 4
121 9 10 6 12 19 7 42 -15 71 -18 131 -7 142 7 7 11 73 11 189 l0 178 29 0 28
0 5 122 c4 81 2 129 -6 140 -11 19 -56 25 -56 8 0 -15 -30 -12 -47 5 -14 14
-13 17 4 33 10 9 26 33 35 52 20 44 34 205 19 215 -6 3 -11 24 -11 46 0 21 -4
39 -10 39 -5 0 -10 6 -10 13 0 9 -21 12 -77 10 -43 0 -81 -2 -84 -2 -13 -2
-45 -191 -32 -191 5 0 8 -34 7 -75 -2 -62 0 -75 13 -75 15 0 53 -36 53 -50 0
-4 -8 -10 -19 -13 -10 -2 -27 -23 -37 -46 l-18 -41 -73 0 -73 0 0 340 0 340
318 2 317 3 0 215 0 215 -332 3 -333 2 0 -207z m310 120 c-26 -5 -70 -44 -70
-63 0 -5 -4 -10 -10 -10 -5 0 -10 -25 -10 -55 0 -30 4 -55 8 -55 4 0 16 -13
25 -30 15 -24 25 -30 53 -30 19 0 34 -4 34 -10 0 -6 -27 -10 -60 -10 -50 0
-63 4 -85 25 -14 14 -25 30 -25 35 0 6 -4 10 -10 10 -14 0 -12 101 3 133 6 14
22 32 35 38 12 7 22 16 22 21 0 4 26 7 58 7 31 -1 46 -4 32 -6z m-122 -1203
l2 -60 -40 0 c-22 0 -40 5 -40 10 0 6 -15 10 -34 10 -38 0 -46 12 -46 66 l0
34 78 0 77 0 3 -60z"/>
<path d="M3470 8195 l0 -225 340 0 340 0 0 -330 0 -330 -89 0 c-70 0 -90 3
-95 15 -3 8 -11 15 -18 15 -7 0 -21 7 -31 14 -15 12 -15 14 -3 19 9 4 23 -1
31 -10 9 -8 19 -12 23 -8 4 4 1 10 -5 12 -7 3 -13 9 -13 15 0 6 -9 19 -20 28
-18 15 -19 21 -9 44 7 14 16 26 21 26 4 0 8 9 8 20 0 11 5 40 12 65 9 32 17
45 30 45 10 0 18 5 18 10 0 6 -9 10 -19 10 -22 0 -37 30 -21 40 10 6 40 56 40
66 0 2 -72 4 -160 4 -136 0 -160 -2 -160 -15 0 -8 5 -15 10 -15 6 0 10 -9 10
-20 0 -11 5 -20 10 -20 6 0 10 -13 10 -30 0 -16 5 -30 10 -30 6 0 10 -18 10
-40 0 -22 5 -40 10 -40 6 0 10 -11 10 -25 0 -13 11 -35 25 -49 l25 -25 -22
-26 c-22 -25 -48 -33 -48 -15 0 14 -33 13 -48 -2 -8 -8 -12 -54 -12 -139 0
-133 2 -139 48 -139 15 0 17 -14 14 -122 -1 -68 1 -186 5 -263 l8 -140 119 -3
c89 -2 121 1 128 10 14 22 9 37 -14 40 -23 3 -23 4 -26 197 -2 149 1 196 10
202 10 7 11 12 1 29 -7 11 -13 49 -13 85 l0 65 90 0 90 0 0 -290 c0 -187 4
-290 10 -290 6 0 10 106 10 297 0 252 2 299 15 313 15 17 11 50 -6 50 -5 0 -9
240 -9 565 l0 565 -350 0 -350 0 0 -225z m680 135 l0 -60 -237 0 -238 0 0 60
-1 60 238 0 238 0 0 -60z"/>
<path d="M4370 8195 l0 -225 335 0 335 0 0 -330 0 -330 -85 0 -85 0 0 28 c-1
30 -41 82 -65 82 -20 0 -19 9 4 29 31 27 51 78 51 131 0 43 3 50 20 50 25 0
25 5 1 31 -16 17 -17 25 -8 50 6 16 15 29 19 29 4 0 8 9 8 20 0 19 -7 20 -155
20 -148 0 -155 -1 -155 -20 0 -11 5 -20 10 -20 6 0 10 -7 10 -15 0 -8 5 -15
10 -15 6 0 10 -18 10 -40 0 -22 4 -40 9 -40 5 0 8 -24 7 -53 -1 -52 27 -137
46 -137 4 0 8 -11 8 -24 0 -24 -32 -46 -38 -27 -2 6 -19 11 -37 11 -41 0 -41
-4 -37 -167 l3 -111 30 -11 29 -10 0 -109 c0 -60 3 -177 7 -260 l6 -152 119 0
118 0 0 25 c0 15 -6 25 -15 25 -12 0 -15 37 -17 238 -2 131 -1 264 0 295 l4
57 84 0 84 0 2 -292 c2 -219 6 -292 15 -295 10 -4 13 67 16 304 2 169 4 313 4
318 0 6 -2 270 -4 588 l-3 577 -350 0 -350 0 0 -225z"/>
<path d="M5260 8195 l0 -225 340 0 340 0 0 -330 0 -330 -90 0 c-83 0 -90 2
-90 19 0 11 -11 32 -25 47 -14 15 -25 30 -25 35 0 4 -7 9 -16 11 -13 2 -9 10
15 35 17 18 31 42 31 53 0 11 5 20 10 20 6 0 10 18 10 39 0 22 5 41 12 43 12
4 -14 40 -70 95 -36 35 -80 44 -108 21 -55 -47 -71 -66 -78 -90 -3 -16 -2 -28
2 -28 5 0 12 -27 16 -61 5 -50 11 -66 36 -89 33 -31 37 -45 16 -66 -17 -16
-46 -19 -46 -3 0 6 -12 9 -27 7 -36 -4 -41 -28 -34 -168 l6 -115 29 -3 c27 -3
28 -5 21 -40 -13 -67 -17 -272 -6 -272 7 0 11 -39 11 -110 l0 -110 130 0 130
0 0 25 c0 18 -5 25 -20 25 -18 0 -20 7 -20 85 0 50 4 85 10 85 6 0 10 45 10
115 0 70 -4 115 -10 115 -6 0 -10 37 -10 90 l0 90 90 0 90 0 0 -295 c0 -190 4
-295 10 -295 6 0 10 107 10 301 0 245 3 303 14 315 15 14 11 54 -5 54 -5 0 -9
245 -9 565 l0 565 -350 0 -350 0 0 -225z m450 0 l0 -195 -105 0 -105 0 0 195
0 195 105 0 105 0 0 -195z"/>
<path d="M11045 7760 c6 -19 2 -20 -59 -20 l-66 0 0 -45 c0 -38 3 -45 20 -45
16 0 20 7 20 30 0 22 5 30 18 29 10 0 12 -3 5 -6 -7 -2 -13 -16 -13 -29 0 -23
3 -24 59 -24 l60 0 4 38 4 37 1 -37 2 -38 55 0 c53 0 55 1 56 28 2 40 -2 56
-14 64 -9 6 -9 8 1 8 6 0 12 7 12 15 0 8 -9 15 -20 15 -13 0 -20 -7 -20 -20 0
-11 -7 -20 -15 -20 -8 0 -15 5 -15 10 0 6 -9 10 -20 10 -11 0 -20 -4 -20 -10
0 -5 -5 -10 -11 -10 -6 0 -8 9 -4 20 5 17 2 20 -20 20 -22 0 -25 -3 -20 -20z"/>
<path d="M10882 7460 c0 -70 0 -70 28 -70 16 0 31 6 33 13 4 10 6 10 6 0 1 -8
14 -13 31 -13 26 0 30 4 30 26 0 22 2 25 15 14 8 -7 15 -19 15 -27 0 -25 43
-11 51 17 l7 25 1 -27 c1 -32 24 -38 40 -10 10 16 10 16 11 0 0 -13 8 -18 30
-18 29 0 30 1 30 50 l0 50 -70 0 c-55 0 -71 -3 -79 -17 -10 -17 -10 -17 -11 0
0 9 -4 17 -10 17 -5 0 -14 -8 -19 -17 -10 -17 -10 -17 -11 0 0 9 -4 17 -10 17
-5 0 -10 9 -10 20 0 13 -7 20 -20 20 -22 0 -28 -25 -7 -33 10 -4 10 -6 0 -6
-7 -1 -13 -8 -13 -17 0 -13 -2 -13 -17 2 -13 13 -14 19 -5 22 25 8 12 32 -17
32 l-30 0 1 -70z"/>
<path d="M6200 7476 c0 -9 -4 -16 -10 -16 -5 0 -10 -10 -10 -23 0 -39 -19 -49
-54 -29 -17 9 -32 20 -34 25 -2 4 -8 7 -13 7 -12 0 -12 -47 0 -52 5 -1 12 -20
16 -40 7 -36 6 -38 -19 -38 -14 0 -26 -4 -26 -10 0 -5 -7 -10 -15 -10 -29 0
-15 -22 25 -38 36 -15 40 -20 35 -42 -4 -14 -11 -26 -16 -28 -5 -2 -9 -12 -9
-23 0 -14 7 -19 25 -19 14 0 25 4 25 9 0 5 9 11 20 14 16 4 20 0 20 -19 0 -13
5 -24 10 -24 6 0 10 -13 10 -30 0 -16 4 -30 8 -30 11 0 28 36 36 73 4 18 13
27 26 27 11 0 20 -4 20 -10 0 -5 6 -10 14 -10 8 0 17 -7 20 -16 3 -8 10 -12
16 -9 13 8 13 45 0 45 -5 0 -10 11 -10 25 0 14 -4 25 -10 25 -5 0 -10 7 -10
15 0 9 9 15 23 15 25 0 67 26 67 41 0 5 -11 9 -25 9 -14 0 -25 5 -25 10 0 6
-9 10 -20 10 -13 0 -20 7 -20 20 0 11 5 20 10 20 6 0 10 7 10 15 0 8 5 15 10
15 6 0 10 9 10 20 0 13 -7 20 -20 20 -11 0 -20 -4 -20 -10 0 -5 -9 -10 -20
-10 -11 0 -20 -6 -20 -12 0 -7 -7 0 -15 16 -8 15 -15 39 -15 52 0 12 -4 26
-10 29 -5 3 -10 -1 -10 -9z"/>
<path d="M11610 7375 l0 -65 39 0 c33 0 40 4 44 23 l4 22 2 -22 c1 -19 7 -23
31 -23 33 0 43 25 13 33 -14 4 -12 5 5 6 16 1 22 -5 22 -19 0 -13 7 -20 20
-20 15 0 20 7 20 29 0 34 10 44 30 30 10 -6 11 -9 3 -9 -7 0 -13 -11 -13 -25
0 -21 5 -25 30 -25 29 0 30 2 30 46 0 45 0 46 -32 44 -48 -3 -53 -1 -40 12 17
17 15 28 -7 28 -12 0 -24 -13 -34 -37 -9 -21 -16 -30 -16 -21 -1 9 -7 19 -13
21 -10 4 -9 8 2 16 8 5 11 13 7 17 -4 4 -15 -3 -26 -14 -23 -27 -37 -28 -44
-2 -4 15 -14 20 -41 20 l-36 0 0 -65z"/>
<path d="M330 7180 l0 -110 53 0 c52 0 54 1 75 39 33 59 28 127 -14 168 -7 7
-35 13 -63 13 l-51 0 0 -110z"/>
<path d="M1850 7250 c0 -11 -4 -20 -10 -20 -5 0 -10 -7 -10 -15 0 -8 5 -15 10
-15 6 0 10 -19 10 -42 0 -71 8 -88 41 -88 19 0 29 5 29 15 0 8 -7 15 -15 15
-11 0 -15 12 -15 50 0 47 2 50 25 50 23 0 25 -3 25 -48 0 -58 17 -85 50 -80
30 4 39 28 11 28 -18 0 -21 6 -21 49 0 41 3 50 21 54 23 6 17 27 -7 27 -8 0
-14 9 -14 20 0 13 -7 20 -20 20 -13 0 -20 -7 -20 -20 0 -15 -7 -20 -25 -20
-18 0 -25 5 -25 20 0 13 -7 20 -20 20 -13 0 -20 -7 -20 -20z"/>
<path d="M10689 7240 c-6 -16 -15 -30 -20 -30 -14 0 -10 -40 5 -56 8 -8 26
-14 40 -14 19 0 26 6 29 28 l4 27 2 -27 1 -28 84 0 85 0 4 33 4 32 1 -32 2
-33 79 0 80 0 4 33 4 32 1 -32 c1 -18 6 -33 11 -33 6 0 12 15 14 33 l4 32 1
-32 2 -33 94 0 95 0 4 38 4 37 1 -37 c2 -34 5 -38 30 -38 26 0 27 2 26 48 -1
26 -2 50 -3 55 -2 12 -51 8 -51 -5 0 -10 -18 -12 -64 -10 -35 2 -74 -1 -85 -8
-15 -7 -21 -8 -21 0 0 7 -33 10 -97 9 -65 -1 -98 2 -101 10 -5 14 -32 15 -32
1 0 -5 -18 -10 -40 -10 -33 0 -40 3 -40 20 0 13 -7 20 -20 20 -13 0 -20 -7
-20 -20 0 -15 -7 -20 -29 -20 -20 0 -31 -6 -34 -17 -4 -17 -5 -17 -6 0 0 9 -6
17 -13 17 -9 0 -9 3 0 12 18 18 15 28 -9 28 -13 0 -23 -10 -30 -30z"/>
<path d="M503 7215 c-17 -19 -16 -105 1 -127 9 -12 27 -18 54 -18 39 0 41 2
57 44 16 41 16 46 0 80 -16 33 -21 36 -59 36 -22 -1 -47 -7 -53 -15z"/>
<path d="M640 7150 c0 -73 2 -80 20 -80 18 0 20 7 20 54 0 35 5 58 15 66 12
10 14 2 17 -52 2 -50 6 -63 21 -66 14 -3 17 4 17 48 0 34 5 57 16 67 23 23 34
2 34 -65 0 -46 3 -53 18 -50 14 3 17 14 17 63 -1 95 0 95 -105 95 l-90 0 0
-80z"/>
<path d="M1363 7215 c-17 -19 -16 -105 1 -127 9 -12 27 -18 54 -18 39 0 41 2
57 44 16 41 16 46 0 80 -16 33 -21 36 -59 36 -22 -1 -47 -7 -53 -15z"/>
<path d="M1713 7215 c-18 -20 -17 -113 1 -131 8 -8 33 -14 55 -14 34 0 41 3
41 20 0 11 5 20 10 20 6 0 10 20 10 45 0 25 -4 45 -10 45 -5 0 -10 7 -10 15 0
20 -80 20 -97 0z"/>
<path d="M2042 7218 c-7 -7 -12 -37 -12 -68 0 -31 5 -61 12 -68 7 -7 31 -12
55 -12 36 0 43 3 43 19 0 11 5 23 10 26 14 9 13 56 -2 88 -11 23 -19 27 -53
27 -23 0 -46 -5 -53 -12z"/>
<path d="M2170 7149 c0 -78 1 -80 23 -77 18 2 22 10 25 43 7 103 32 119 32 20
0 -58 2 -65 20 -65 17 0 20 7 20 51 0 56 17 85 38 63 7 -7 12 -36 12 -65 0
-42 3 -50 16 -45 9 3 18 6 20 6 9 0 3 89 -6 95 -5 3 -10 17 -10 31 0 24 -1 24
-95 24 l-95 0 0 -81z"/>
<path d="M18140 6900 l0 -330 -4408 0 -4408 0 -37 -40 c-20 -22 -41 -50 -48
-62 -6 -12 -22 -32 -35 -45 -13 -13 -24 -28 -24 -34 0 -5 -15 -25 -32 -44 -60
-63 -78 -84 -78 -90 0 -3 -11 -17 -24 -30 -14 -13 -27 -34 -31 -45 -3 -11 -11
-20 -17 -20 -5 0 -8 -6 -6 -12 3 -9 48 -14 158 -18 l153 -5 -29 -31 c-16 -17
-38 -43 -49 -59 -11 -15 -30 -38 -42 -51 -13 -13 -23 -28 -23 -34 0 -5 -4 -10
-8 -10 -5 0 -15 -12 -23 -27 -14 -29 -29 -47 -86 -108 -18 -19 -33 -38 -33
-43 0 -5 -7 -15 -15 -22 -8 -7 -15 -16 -15 -21 0 -5 70 -9 155 -9 97 0 155 -4
155 -10 0 -5 -4 -10 -8 -10 -4 0 -15 -12 -24 -27 -9 -16 -28 -41 -42 -58 -14
-16 -26 -33 -26 -37 0 -3 -17 -24 -38 -46 -20 -22 -46 -52 -57 -67 -11 -16
-32 -41 -47 -57 -15 -16 -30 -38 -33 -49 -4 -10 -11 -19 -17 -19 -5 0 -8 -6
-6 -12 3 -9 48 -14 158 -18 144 -5 153 -6 137 -22 -9 -9 -17 -20 -17 -23 0 -4
-13 -19 -28 -33 -16 -15 -37 -42 -47 -59 -11 -18 -23 -33 -27 -33 -4 0 -8 -7
-8 -15 0 -8 -18 -34 -40 -57 -23 -23 -39 -48 -38 -57 3 -15 399 -16 4456 -19
4597 -2 4478 -1 4443 -38 -14 -13 -17 -82 -5 -94 10 -10 17 -6 72 40 9 9 12
-122 12 -650 0 -580 2 -660 15 -660 13 0 15 80 15 661 0 600 1 659 16 645 8
-9 20 -16 25 -16 5 0 9 -120 9 -295 0 -256 2 -295 15 -295 8 0 15 4 15 9 0 4
13 24 30 42 16 19 30 40 30 47 0 6 5 12 10 12 6 0 10 7 10 16 0 9 8 24 18 33
9 9 31 36 47 61 17 25 33 47 38 48 4 2 7 9 7 16 0 6 9 18 20 26 11 8 20 19 20
24 0 5 11 24 25 42 14 18 25 36 25 41 0 5 9 15 20 23 11 8 20 20 20 28 0 7 11
25 25 40 14 15 31 39 38 55 6 15 15 27 19 27 5 0 8 5 8 11 0 7 8 19 19 28 10
9 26 31 35 49 9 18 25 42 34 53 9 12 25 30 35 41 9 12 17 24 17 28 0 6 12 22
50 67 5 7 10 17 10 23 0 5 5 10 10 10 6 0 10 7 10 15 0 9 10 27 23 40 38 42
47 54 47 67 0 8 9 20 20 28 11 8 20 18 20 23 0 4 5 13 10 20 39 47 50 62 55
78 4 11 11 19 16 19 5 0 9 7 9 15 0 8 4 15 9 15 5 0 12 9 16 19 3 11 19 34 35
53 16 18 30 39 30 46 0 6 5 12 10 12 6 0 10 7 10 15 0 8 4 15 8 15 5 0 17 16
28 35 10 19 21 35 25 35 6 0 29 46 29 59 0 4 -8 17 -17 29 -10 11 -25 30 -33
42 -8 12 -25 34 -38 48 -12 15 -25 35 -28 45 -3 9 -9 17 -14 17 -5 0 -11 8
-15 19 -3 10 -13 28 -23 39 -44 52 -51 62 -63 83 -13 25 -23 38 -56 74 -13 13
-23 29 -23 35 0 5 -3 10 -8 10 -4 0 -16 17 -27 38 -11 20 -37 54 -57 74 -21
20 -38 43 -38 51 0 8 -7 20 -15 27 -8 7 -15 17 -15 22 0 5 -18 27 -40 48 -22
21 -40 44 -40 51 0 14 -44 75 -72 100 -10 9 -18 22 -18 29 0 14 -31 56 -77
105 -18 19 -33 39 -33 45 0 6 -11 23 -25 38 -14 15 -25 30 -25 35 0 4 -11 19
-24 32 -14 13 -27 34 -31 45 -3 11 -10 20 -15 20 -5 0 -11 8 -15 19 -3 10 -19
33 -35 50 -17 17 -30 34 -30 38 0 5 -11 21 -25 37 -14 16 -25 32 -25 35 0 9
-46 61 -54 61 -3 0 -6 -148 -6 -330z m-7140 -1125 l0 -765 -130 0 -130 0 0
765 0 765 130 0 130 0 0 -765z m1170 585 l0 -180 -75 0 -75 0 0 180 0 180 75
0 75 0 0 -180z m1160 -200 l0 -380 -155 0 -155 0 0 380 0 380 155 0 155 0 0
-380z m-2920 1 c0 -102 -4 -118 -27 -100 -9 9 -13 8 -13 0 0 -6 -13 -11 -28
-11 -21 0 -32 7 -40 25 -27 58 -5 125 40 125 24 0 28 4 28 29 0 28 16 44 33
34 4 -2 7 -48 7 -102z m-790 89 c0 -5 6 -10 13 -10 19 0 37 -44 37 -89 0 -57
-36 -91 -95 -91 l-45 0 0 100 0 100 45 0 c25 0 45 -4 45 -10z m2915 -27 c-57
-137 -59 -185 -12 -315 5 -16 13 -28 18 -28 5 0 9 -4 9 -10 0 -22 -34 -8 -65
26 -38 41 -45 69 -45 168 1 108 31 175 79 176 18 0 22 -4 16 -17z m-1264 -55
c0 -10 2 -10 6 0 2 6 13 12 24 12 15 0 19 -7 19 -36 0 -21 4 -33 10 -29 6 3
10 19 10 36 0 22 5 29 20 29 24 0 25 -8 6 -36 -8 -11 -17 -41 -21 -67 -6 -37
-11 -47 -26 -47 -11 0 -19 5 -19 10 0 6 5 10 10 10 6 0 10 9 10 20 0 11 -4 20
-10 20 -5 0 -10 14 -10 31 0 17 -4 28 -10 24 -5 -3 -10 -16 -10 -29 0 -42 -46
-62 -76 -32 -17 18 -18 62 -1 81 15 18 67 20 68 3z m6789 -373 l0 -255 -2675
0 -2675 0 0 105 0 105 485 0 485 0 0 150 0 150 2190 0 2190 0 0 -255z m920
240 c0 -9 11 -28 25 -43 14 -15 25 -31 25 -35 0 -5 14 -22 30 -37 17 -15 30
-33 30 -39 0 -7 11 -24 25 -39 14 -15 25 -32 25 -39 0 -7 4 -13 10 -13 13 0
-29 -71 -67 -115 -7 -7 -13 -18 -13 -24 0 -6 -4 -11 -8 -11 -4 0 -21 -22 -37
-50 l-30 -50 -452 0 -453 0 0 255 0 255 445 0 c394 0 445 -2 445 -15z m-7060
-175 c28 0 50 -2 50 -4 0 -17 -15 -36 -27 -36 -9 0 -22 -8 -29 -17 -16 -21
-18 -53 -4 -53 6 0 10 -9 10 -20 0 -25 -15 -25 -40 0 -21 21 -50 17 -50 -6 0
-8 -7 -14 -15 -14 -11 0 -14 10 -13 40 1 30 -4 45 -22 60 -22 19 -22 20 -2 20
34 0 52 11 52 31 0 10 5 19 10 19 6 0 10 10 11 23 1 17 3 15 10 -10 9 -32 12
-33 59 -33z m-1790 -51 c0 21 38 11 54 -14 19 -29 20 -64 4 -100 -9 -21 -18
-26 -42 -23 -28 3 -31 0 -34 -29 -2 -23 -7 -30 -18 -26 -11 4 -14 26 -14 98 0
94 9 115 38 92 8 -6 12 -6 12 2z m-44 -419 c8 0 14 5 14 10 0 14 47 12 54 -2
5 -10 7 -10 12 0 8 18 61 15 68 -4 3 -9 6 -43 6 -76 0 -43 -3 -59 -12 -56 -7
3 -14 18 -16 34 -1 16 -5 44 -8 62 -4 28 -7 30 -19 19 -8 -8 -15 -36 -17 -63
-2 -37 -7 -50 -20 -52 -16 -3 -18 5 -18 62 0 36 -2 66 -5 66 -3 0 -14 -8 -25
-17 -14 -12 -20 -30 -20 -60 0 -23 -4 -45 -10 -48 -6 -4 -10 22 -9 72 0 43 3
72 6 66 2 -7 11 -13 19 -13z m8009 -307 c8 -7 32 -13 54 -13 23 0 41 -4 41
-10 0 -5 -5 -10 -10 -10 -19 0 -60 -48 -60 -70 0 -11 5 -20 10 -20 6 0 10 -9
10 -20 0 -11 -2 -20 -5 -20 -3 0 -15 9 -27 20 -12 11 -27 20 -33 20 -6 0 -21
-9 -33 -20 -12 -11 -24 -20 -27 -20 -3 0 -5 9 -5 20 0 11 5 20 10 20 18 0 10
42 -11 61 -21 18 -21 19 -3 26 32 12 64 51 65 80 l2 28 4 -29 c3 -16 11 -35
18 -43z"/>
<path d="M10883 7018 c-20 -10 -23 -19 -23 -75 0 -56 2 -63 20 -63 17 0 20 7
20 45 0 33 4 45 15 45 11 0 15 -12 15 -45 l0 -45 79 0 80 0 4 33 4 32 1 -32
c3 -50 22 -39 22 12 l0 45 -70 0 c-40 0 -70 4 -70 10 0 6 7 10 15 10 8 0 15 7
15 16 0 13 -8 15 -35 12 -19 -2 -35 0 -35 4 0 11 -30 9 -57 -4z"/>
<path d="M10717 7014 c-4 -4 -7 -16 -7 -26 0 -10 -5 -18 -11 -18 -16 0 -39
-26 -39 -44 0 -9 5 -16 10 -16 6 0 10 -7 10 -15 0 -12 15 -15 75 -15 l75 0 0
45 0 45 -39 0 c-33 0 -40 4 -43 22 -3 22 -19 33 -31 22z"/>
<path d="M11210 6995 c0 -22 -4 -25 -40 -25 l-40 0 0 -65 c0 -58 2 -65 20 -65
13 0 20 7 20 20 0 18 7 20 55 20 54 0 55 0 55 30 0 17 5 30 10 30 6 0 10 -13
10 -30 0 -28 2 -30 40 -30 l40 0 0 45 0 45 -71 0 c-62 0 -70 2 -65 17 4 9 1
20 -6 25 -21 13 -28 9 -28 -17z"/>
<path d="M11720 6925 l0 -64 74 0 75 0 4 37 4 37 1 -37 2 -38 85 0 85 0 0 65
c0 63 -1 65 -25 65 -14 0 -25 -4 -25 -10 0 -5 7 -10 15 -10 8 0 15 -4 15 -10
0 -5 -9 -10 -19 -10 -11 0 -22 -6 -24 -12 -4 -10 -6 -10 -6 0 -1 7 -15 12 -36
12 -19 0 -35 5 -35 10 0 6 -7 10 -15 10 -8 0 -15 -4 -15 -10 0 -5 -16 -10 -35
-10 -24 0 -35 -5 -35 -14 0 -8 5 -16 12 -18 7 -3 6 -7 -5 -11 -11 -4 -17 -1
-17 7 0 8 -6 17 -12 19 -10 4 -10 8 1 15 12 9 12 13 -2 26 -8 9 -27 16 -41 16
-25 0 -26 -2 -26 -65z"/>
<path d="M970 6836 c0 -35 -1 -36 -38 -36 -36 0 -38 -2 -49 -41 -14 -55 0
-107 31 -115 13 -3 38 -4 57 -2 l34 3 0 110 c0 97 -2 110 -17 113 -15 3 -18
-4 -18 -32z"/>
<path d="M1830 6810 c0 -52 2 -60 19 -60 49 0 68 -34 37 -66 -17 -16 -36 -19
-36 -4 0 6 -4 10 -10 10 -5 0 -10 -11 -10 -25 0 -22 4 -25 38 -25 47 0 72 27
72 76 0 40 -19 64 -49 64 -17 0 -21 6 -21 30 0 28 3 30 35 30 36 0 47 13 19
24 -9 3 -33 6 -55 6 l-39 0 0 -60z"/>
<path d="M2122 6851 c-19 -16 -22 -29 -22 -100 0 -47 4 -81 10 -81 6 0 10 -7
10 -15 0 -23 62 -19 83 5 17 20 23 74 11 104 -4 10 -18 16 -40 16 -24 0 -34 5
-34 16 0 32 60 63 60 32 0 -7 5 -5 11 5 5 9 7 22 4 27 -10 17 -71 11 -93 -9z"/>
<path d="M1032 6775 c-32 -70 -1 -135 64 -135 38 0 49 12 35 37 -6 10 -11 12
-11 6 0 -17 -28 -16 -46 1 -22 22 -17 26 31 26 50 0 57 14 33 65 -9 21 -18 25
-53 25 -35 0 -44 -4 -53 -25z"/>
<path d="M1170 6690 c0 -114 11 -139 33 -80 8 21 18 30 34 30 29 0 43 27 43
84 0 69 -5 76 -61 76 l-49 0 0 -110z"/>
<path d="M10840 6746 c0 -9 -7 -12 -20 -9 -11 3 -31 2 -45 -1 -21 -5 -25 -12
-25 -46 0 -34 4 -41 25 -46 38 -9 55 2 56 38 l2 33 6 -35 c6 -33 9 -35 46 -37
26 -1 44 4 53 15 11 14 12 14 12 -1 0 -12 8 -17 30 -17 22 0 30 5 30 18 1 16
1 16 11 0 16 -28 27 -21 32 20 l4 37 1 -36 2 -35 93 0 92 1 6 35 6 35 2 -38
c2 -56 26 -43 26 14 l0 44 -132 3 c-119 2 -132 1 -136 -15 -4 -17 -5 -17 -6 0
-1 12 -10 17 -31 17 -22 0 -30 -5 -31 -17 0 -14 -2 -15 -6 -3 -14 35 -47 51
-56 28 -4 -10 -6 -10 -6 0 -1 17 -41 15 -41 -2z"/>
<path d="M0 5775 l0 -795 1445 0 1445 0 18 21 c9 12 23 27 30 34 6 8 12 16 12
20 0 6 12 21 45 58 11 12 33 40 49 62 17 22 38 47 48 56 10 9 18 22 18 28 0 7
9 21 20 33 10 12 17 25 14 30 -3 4 -73 8 -156 8 -146 0 -151 1 -135 18 10 10
17 22 17 26 0 3 15 21 33 39 17 18 43 50 57 70 14 20 28 37 33 37 4 0 7 7 7
15 0 9 15 31 33 49 42 43 77 85 77 92 0 3 6 12 14 20 11 11 49 14 170 14 89 0
156 -4 156 -9 0 -5 -7 -16 -15 -25 -8 -8 -15 -19 -15 -25 0 -6 -4 -11 -10 -11
-5 0 -10 -6 -10 -13 0 -7 -9 -19 -20 -27 -11 -8 -20 -18 -20 -23 0 -4 -9 -18
-20 -30 -55 -60 -90 -102 -90 -108 0 -3 -16 -24 -35 -45 -19 -21 -35 -44 -35
-51 0 -7 -4 -13 -10 -13 -5 0 -10 -7 -10 -15 0 -13 24 -15 156 -15 l156 0 -26
-32 c-14 -18 -34 -42 -45 -54 -10 -11 -34 -45 -54 -75 -20 -30 -50 -68 -67
-86 -16 -18 -30 -42 -30 -53 0 -20 3 -20 729 -20 l728 0 7 -30 c3 -16 10 -30
16 -30 5 0 10 14 10 30 l0 30 670 0 c619 0 671 -1 690 -17 23 -20 25 -52 8
-99 -23 -65 14 -78 70 -24 31 29 49 27 82 -11 9 -9 27 -19 40 -20 20 -3 26 1
28 20 2 13 0 26 -6 30 -5 3 -12 23 -15 43 -4 27 -1 42 12 57 18 21 24 21 625
21 l606 0 0 -30 c0 -16 5 -30 10 -30 6 0 10 14 10 30 l0 30 546 0 546 0 34 38
c18 20 34 40 34 44 0 4 11 18 23 31 13 12 40 48 60 78 20 29 50 68 67 86 16
18 30 42 30 53 0 19 -6 20 -145 20 -80 0 -145 4 -145 9 0 5 12 23 27 39 41 44
77 92 87 113 5 11 13 19 18 19 4 0 8 5 8 10 0 6 15 26 33 44 49 50 77 85 77
96 0 6 4 10 8 10 9 0 32 44 32 60 0 6 -62 10 -150 10 l-151 0 12 22 c6 12 21
31 33 44 11 12 35 38 51 59 17 20 40 47 53 60 12 13 22 28 22 32 0 4 14 23 30
42 17 18 30 37 30 42 0 5 16 24 35 43 19 20 35 44 35 56 0 19 -6 20 -145 20
-80 0 -145 4 -145 9 0 5 12 23 28 40 35 39 92 116 92 124 0 4 22 30 50 58 27
28 50 55 50 60 0 4 11 19 24 32 30 30 49 65 41 77 -4 7 -956 10 -2710 10
l-2704 0 -23 -25 c-60 -64 -68 -75 -68 -85 0 -6 -10 -21 -22 -34 -13 -12 -32
-35 -43 -50 -11 -16 -29 -38 -40 -50 -11 -12 -38 -44 -60 -71 -22 -28 -43 -51
-47 -53 -5 -2 -8 -12 -8 -23 0 -10 -4 -19 -10 -19 -5 0 -10 -7 -10 -15 0 -13
24 -15 155 -15 l155 0 -23 -26 c-12 -15 -28 -32 -34 -40 -7 -7 -13 -15 -13
-19 0 -3 -10 -16 -22 -29 -13 -13 -32 -36 -43 -51 -11 -16 -26 -34 -32 -41 -7
-7 -13 -18 -13 -24 0 -6 -19 -30 -42 -55 -52 -53 -68 -72 -68 -80 0 -25 -33
-30 -183 -27 l-157 3 17 30 c10 16 21 29 25 29 4 0 8 7 8 15 0 8 5 15 10 15 6
0 10 5 10 10 0 6 15 26 33 45 42 44 57 63 57 70 0 6 18 27 78 90 17 19 32 39
32 45 0 6 9 20 20 32 11 12 20 25 20 30 0 4 -70 8 -155 8 -85 0 -155 2 -155 5
0 6 13 23 45 58 11 12 38 45 60 72 22 28 43 52 48 53 4 2 7 10 7 18 0 8 20 35
45 62 25 26 45 52 45 57 0 6 9 17 20 25 11 8 20 25 20 37 l0 23 -1565 0 -1565
0 0 -795z m1525 510 c33 -16 62 -33 63 -37 2 -4 10 -8 18 -8 8 0 14 -4 14 -10
0 -6 -32 -10 -75 -10 -43 0 -75 -4 -75 -10 0 -5 -18 -10 -40 -10 -22 0 -40 -4
-40 -10 0 -5 -11 -10 -25 -10 -14 0 -25 -4 -25 -10 0 -5 -7 -10 -15 -10 -9 0
-27 -10 -40 -22 -13 -13 -30 -28 -37 -34 -26 -22 -58 -65 -58 -77 0 -7 -9 -19
-20 -27 -11 -8 -20 -22 -20 -32 0 -10 -4 -18 -10 -18 -5 0 -10 -8 -10 -18 0
-10 -6 -24 -12 -31 -9 -8 -13 -54 -13 -153 0 -104 3 -142 13 -146 6 -2 12 -12
12 -23 0 -10 5 -19 10 -19 6 0 10 -9 10 -20 0 -11 5 -20 10 -20 6 0 10 -7 10
-15 0 -8 5 -15 10 -15 6 0 10 -6 10 -12 0 -13 118 -128 131 -128 4 0 14 -6 21
-12 16 -16 78 -38 106 -38 11 0 24 -4 27 -10 3 -5 36 -10 73 -11 61 -1 64 -2
35 -11 -18 -6 -33 -15 -33 -19 0 -5 -16 -9 -35 -9 -19 0 -35 -4 -35 -10 0 -6
-62 -10 -165 -10 -103 0 -165 4 -165 10 0 6 -11 10 -25 10 -14 0 -25 4 -25 8
0 5 -18 17 -41 27 -22 10 -58 36 -80 57 -21 21 -41 38 -44 38 -10 0 -55 49
-55 60 0 5 -3 10 -7 10 -5 0 -21 28 -37 63 -16 34 -33 70 -37 79 -5 10 -9 31
-9 47 0 17 -4 33 -10 36 -13 8 -13 215 0 215 6 0 10 15 10 34 0 19 5 38 10 41
6 3 10 17 10 31 0 13 4 24 8 24 5 0 16 16 26 36 32 67 143 194 171 194 8 0 15
5 15 10 0 6 7 10 15 10 8 0 15 5 15 10 0 6 10 10 23 10 13 0 27 4 33 9 22 22
87 30 214 27 125 -2 139 -5 195 -31z m423 -341 c12 -16 22 -32 22 -36 0 -4 18
-8 40 -8 22 0 40 5 40 10 0 6 11 10 25 10 14 0 25 5 25 10 0 6 8 10 18 10 10
0 23 5 30 12 6 6 14 10 16 7 6 -6 -26 -73 -36 -77 -4 -2 -8 -12 -8 -23 0 -10
-4 -19 -9 -19 -5 0 -14 -13 -21 -29 -12 -31 -3 -58 31 -91 8 -8 28 -33 44 -54
l30 -39 -35 7 c-19 4 -52 10 -73 13 -20 3 -40 9 -43 14 -9 16 -44 10 -51 -8
-4 -10 -9 -20 -12 -23 -7 -6 -22 -30 -58 -94 l-28 -50 -11 95 c-14 121 -18
129 -60 129 -19 0 -34 4 -34 9 0 5 -20 12 -45 15 -29 5 -45 12 -45 22 0 8 9
14 20 14 11 0 20 5 20 10 0 6 11 10 25 10 14 0 25 4 25 10 0 5 12 13 27 16 57
15 58 21 37 193 l-6 44 39 -40 c21 -22 48 -53 61 -69z m4280 -886 c7 -30 12
-33 50 -36 l42 -3 -29 -28 c-26 -25 -29 -35 -25 -72 2 -24 1 -38 -2 -31 -3 6
-14 12 -24 12 -10 0 -20 6 -23 13 -3 8 -11 5 -24 -10 -25 -28 -48 -31 -38 -5
17 39 15 58 -5 80 -14 15 -17 22 -7 22 24 0 57 36 57 64 0 36 18 33 28 -6z"/>
<path d="M12896 4884 c-3 -9 -6 -30 -6 -47 -1 -27 -2 -29 -11 -14 -8 13 -24
17 -74 17 l-65 0 0 -61 c0 -52 2 -60 17 -57 12 2 20 16 24 41 9 55 19 57 19 4
0 -26 3 -47 8 -47 19 1 31 19 35 55 l4 40 1 -45 2 -45 60 -2 c65 -2 80 9 80
61 0 39 -10 56 -35 56 -17 0 -24 7 -28 30 -7 33 -21 39 -31 14z"/>
<path d="M10840 4800 c0 -80 6 -92 33 -65 13 13 16 13 21 -1 9 -23 39 -13 47
16 l7 25 1 -27 c1 -21 6 -28 21 -28 12 0 20 7 20 17 0 15 1 15 13 -1 9 -12 23
-17 47 -14 l35 3 0 55 0 55 -40 0 c-37 0 -40 -2 -40 -27 -1 -15 -4 -30 -8 -34
-4 -4 -7 18 -7 49 0 56 0 57 -29 57 -24 0 -30 -5 -34 -30 -4 -16 -11 -30 -17
-30 -5 0 -10 14 -10 30 0 27 -3 30 -30 30 l-30 0 0 -80z"/>
<path d="M11792 4858 c2 -19 -1 -22 -19 -20 -20 3 -23 -1 -24 -35 l-2 -38 -6
35 c-4 22 -12 36 -23 38 -16 3 -18 -5 -18 -57 l0 -61 65 2 65 2 0 78 c0 72 -2
78 -21 78 -15 0 -20 -5 -17 -22z"/>
<path d="M12050 4866 c0 -10 -7 -24 -15 -32 -8 -9 -15 -11 -15 -5 0 6 -18 11
-40 11 l-40 0 0 -55 c0 -49 2 -55 24 -61 32 -8 58 -2 64 14 2 7 -6 12 -22 12
-14 0 -26 5 -26 10 0 6 11 10 25 10 18 0 25 5 25 20 0 11 5 20 10 20 6 0 10
-20 10 -45 0 -41 2 -45 24 -45 26 0 47 21 28 28 -14 4 -16 62 -2 62 24 0 10
25 -33 59 -15 12 -17 11 -17 -3z"/>
<path d="M12284 4856 c-8 -32 3 -66 22 -66 8 0 14 -10 14 -22 0 -19 -2 -20
-10 -8 -9 13 -11 13 -20 0 -16 -25 -6 -35 35 -35 33 0 40 4 46 25 l6 25 4 -25
c4 -22 9 -25 47 -24 38 1 42 -2 42 -23 0 -16 6 -23 20 -23 13 0 20 7 20 20 0
13 7 20 19 20 24 0 33 13 42 60 6 34 7 33 8 -12 1 -44 3 -48 26 -48 14 0 28 7
31 15 6 14 8 14 18 -1 8 -10 23 -14 41 -12 29 3 30 5 30 58 l0 55 -37 3 c-24
2 -38 -1 -38 -8 0 -7 -13 2 -29 19 -34 36 -41 38 -41 11 0 -18 -7 -20 -55 -20
-36 0 -55 -4 -55 -12 0 -9 -3 -9 -12 0 -7 7 -27 12 -45 12 -28 0 -33 -3 -33
-25 l0 -24 -25 23 c-14 13 -25 27 -25 32 0 5 5 2 10 -6 9 -13 11 -13 20 0 19
29 11 40 -30 40 -34 0 -41 -4 -46 -24z"/>
<path d="M15264 4806 c-3 -7 3 -40 14 -72 10 -33 25 -80 33 -106 7 -27 17 -48
21 -48 4 0 8 -16 8 -35 0 -19 4 -35 9 -35 4 0 11 -19 14 -42 4 -24 20 -83 36
-133 17 -49 31 -100 31 -112 0 -13 5 -23 10 -23 6 0 10 -11 10 -25 0 -14 5
-25 10 -25 6 0 10 -12 10 -26 0 -15 5 -44 12 -65 l11 -39 79 0 c45 0 78 -4 78
-10 0 -6 102 -10 285 -10 303 0 316 2 258 45 -15 11 -37 30 -49 43 -13 12 -28
22 -34 22 -5 0 -10 5 -10 10 0 6 -4 10 -9 10 -5 0 -30 20 -54 45 -25 25 -48
45 -52 45 -4 0 -20 14 -35 30 -15 17 -35 30 -44 30 -9 0 -16 7 -16 15 0 8 -3
15 -8 15 -4 0 -26 18 -50 40 -23 22 -46 40 -50 40 -4 0 -14 9 -22 20 -8 11
-20 20 -27 20 -7 0 -13 5 -13 10 0 6 -7 10 -15 10 -8 0 -15 6 -15 13 0 7 -12
21 -27 32 -15 11 -37 30 -49 43 -13 12 -28 22 -34 22 -5 0 -10 5 -10 10 0 6
-4 10 -10 10 -5 0 -32 21 -59 48 -77 74 -110 102 -122 102 -6 0 -30 20 -53 45
-47 49 -54 52 -62 31z"/>
<path d="M15187 4766 c-20 -20 -40 -36 -45 -36 -5 0 -23 -13 -40 -30 -18 -16
-34 -30 -38 -30 -3 0 -21 -16 -40 -35 -18 -19 -36 -35 -39 -35 -5 0 -44 -34
-90 -77 -13 -13 -27 -23 -30 -23 -8 0 -35 -27 -35 -35 0 -11 -28 -35 -42 -35
-7 0 -19 -9 -26 -20 -7 -11 -17 -20 -23 -20 -6 0 -40 -29 -75 -65 -36 -36 -69
-65 -74 -65 -11 0 -49 -32 -131 -112 -32 -32 -63 -58 -69 -58 -15 0 -90 -72
-84 -82 8 -12 524 -10 524 2 0 6 37 10 90 10 l89 0 10 38 c6 20 11 45 11 55 0
9 5 17 10 17 6 0 10 16 10 35 0 19 5 35 10 35 6 0 10 14 10 30 0 17 5 30 10
30 6 0 10 14 10 30 0 17 5 30 10 30 6 0 10 11 10 25 0 14 7 42 15 62 8 19 15
46 15 59 0 13 5 24 10 24 6 0 10 13 10 29 0 17 5 33 10 36 6 3 10 19 10 36 0
16 5 29 10 29 6 0 10 14 10 30 0 17 5 30 10 30 6 0 10 8 10 17 0 9 5 32 12 50
19 53 -2 62 -45 19z"/>
<path d="M3004 4685 c-3 -14 -10 -25 -15 -25 -5 0 -9 -13 -9 -30 0 -16 4 -30
8 -30 5 0 14 -12 21 -26 10 -23 16 -26 46 -21 19 3 35 4 35 1 0 -3 -11 -17
-25 -32 -22 -23 -28 -25 -45 -14 -18 11 -20 10 -20 -13 0 -23 4 -25 41 -25 42
0 69 17 69 44 0 8 5 18 10 21 6 3 10 35 10 71 0 36 -4 64 -10 64 -5 0 -10 9
-10 20 0 17 -7 20 -50 20 -45 0 -50 -3 -56 -25z"/>
<path d="M3360 4696 c0 -8 -11 -34 -25 -57 -14 -24 -25 -52 -25 -61 0 -10 -4
-18 -10 -18 -16 0 -11 -37 6 -44 9 -3 29 -6 45 -6 22 0 29 -5 29 -20 0 -13 7
-20 20 -20 13 0 20 7 20 19 0 11 4 21 9 23 4 2 12 13 15 26 6 16 3 22 -8 22
-13 0 -16 14 -16 75 l0 75 -30 0 c-19 0 -30 -5 -30 -14z"/>
<path d="M4448 4688 c-25 -31 -22 -48 7 -48 24 0 25 -3 25 -59 0 -54 -2 -60
-22 -63 -15 -2 -24 -11 -26 -25 -3 -22 0 -23 67 -23 39 0 71 4 71 9 0 23 -14
41 -31 41 -17 0 -19 8 -19 95 l0 95 -27 0 c-17 0 -35 -9 -45 -22z"/>
<path d="M4602 4698 c-7 -7 -12 -22 -12 -34 0 -12 -6 -25 -12 -27 -9 -4 -10
-8 -3 -14 6 -4 15 -21 20 -38 9 -25 16 -30 48 -33 32 -3 35 -5 23 -18 -8 -8
-28 -14 -45 -14 -26 0 -31 -4 -31 -25 0 -22 4 -25 39 -25 49 0 71 8 71 26 0 8
5 14 10 14 17 0 13 169 -4 186 -18 17 -87 19 -104 2z"/>
<path d="M4767 4692 c-23 -26 -22 -52 3 -52 18 0 20 -7 20 -60 0 -53 -2 -60
-20 -60 -15 0 -20 -7 -20 -25 0 -24 2 -25 65 -25 63 0 65 1 65 25 0 16 -6 25
-15 25 -12 0 -15 17 -15 95 l0 95 -33 0 c-20 0 -41 -8 -50 -18z"/>
<path d="M4900 4645 l0 -65 31 0 c36 0 62 -22 52 -45 -5 -14 -14 -16 -44 -12
-38 5 -39 4 -39 -24 0 -28 1 -29 51 -29 64 0 81 16 81 76 0 34 -6 50 -23 65
-12 10 -28 19 -36 19 -7 0 -13 7 -13 15 0 10 11 15 35 15 31 0 35 3 35 25 0
24 -2 25 -65 25 l-65 0 0 -65z"/>
<path d="M5912 4684 c-24 -28 -21 -44 9 -44 17 0 19 -7 19 -60 0 -46 -3 -60
-15 -60 -16 0 -38 -34 -28 -44 3 -3 33 -6 65 -6 55 0 58 1 58 25 0 18 -5 25
-20 25 -19 0 -20 7 -20 95 0 92 -1 95 -22 95 -13 0 -33 -12 -46 -26z"/>
<path d="M6063 4695 c-7 -8 -13 -35 -13 -61 0 -55 27 -88 66 -78 13 3 24 2 24
-3 0 -18 -25 -33 -57 -33 -29 0 -33 -3 -33 -25 0 -23 4 -25 46 -25 68 0 83 23
84 128 0 59 -4 88 -14 98 -19 18 -87 18 -103 -1z"/>
<path d="M6250 4700 c0 -5 -6 -10 -14 -10 -7 0 -16 -9 -19 -21 -4 -15 0 -23
14 -26 16 -5 19 -14 19 -64 0 -44 -4 -59 -14 -59 -18 0 -28 -40 -12 -46 8 -3
38 -4 67 -2 43 2 55 7 57 21 3 12 -4 20 -17 24 -19 5 -21 12 -21 99 l0 94 -30
0 c-16 0 -30 -4 -30 -10z"/>
<path d="M6383 4682 c-19 -23 -23 -39 -23 -102 1 -47 6 -82 14 -92 16 -22 81
-24 102 -4 21 22 28 72 14 106 -11 26 -18 30 -51 30 -22 0 -39 3 -39 6 0 15
32 34 59 34 26 0 31 4 31 25 0 23 -4 25 -42 25 -35 0 -47 -6 -65 -28z"/>
<path d="M7273 4695 c-7 -8 -13 -18 -13 -24 0 -5 -6 -11 -12 -14 -7 -2 -1 -8
15 -12 26 -7 27 -10 27 -66 0 -46 -3 -59 -15 -59 -8 0 -15 -7 -15 -15 0 -8 -6
-15 -12 -15 -9 0 -8 -4 2 -10 8 -5 39 -10 68 -10 49 0 52 1 52 25 0 16 -6 25
-15 25 -12 0 -15 17 -15 95 l0 95 -27 0 c-16 -1 -34 -7 -40 -15z"/>
<path d="M7412 4690 c-17 -28 -15 -98 4 -117 8 -9 29 -16 45 -15 50 1 31 -35
-21 -40 -27 -2 -36 -8 -38 -25 -3 -21 1 -23 44 -23 39 0 51 5 70 28 21 23 24
37 24 102 -1 93 -12 110 -71 110 -33 0 -47 -5 -57 -20z"/>
<path d="M7600 4700 c0 -5 -7 -10 -15 -10 -9 0 -15 -9 -15 -25 0 -18 5 -25 20
-25 18 0 20 -7 20 -60 0 -53 -2 -60 -20 -60 -15 0 -20 -7 -20 -25 0 -24 2 -25
65 -25 59 0 65 2 65 21 0 12 -8 23 -20 26 -18 5 -20 14 -20 99 l0 94 -30 0
c-16 0 -30 -4 -30 -10z"/>
<path d="M7712 4688 c2 -19 10 -24 41 -26 29 -3 37 -7 37 -23 0 -10 -4 -19 -8
-19 -5 0 -15 -23 -22 -51 -8 -27 -18 -52 -22 -55 -4 -3 -8 -14 -8 -25 0 -14 7
-19 30 -19 27 0 30 3 30 30 0 17 5 30 10 30 6 0 10 11 10 25 0 14 3 25 8 25
10 0 32 73 32 105 0 24 -2 25 -71 25 -67 0 -70 -1 -67 -22z"/>
<path d="M8680 4700 c0 -5 -7 -10 -15 -10 -9 0 -15 -9 -15 -25 0 -16 6 -25 15
-25 12 0 15 -14 15 -70 0 -56 -3 -70 -15 -70 -8 0 -15 -7 -15 -15 0 -12 14
-15 66 -15 48 0 65 3 62 13 -3 6 -14 13 -26 15 -21 3 -22 8 -22 108 l0 104
-25 0 c-14 0 -25 -4 -25 -10z"/>
<path d="M8801 4694 c-7 -9 -15 -32 -18 -52 -6 -49 31 -97 71 -90 31 6 33 -1
6 -33 -17 -19 -24 -21 -39 -12 -22 13 -31 8 -31 -19 0 -15 8 -18 46 -18 54 0
66 10 83 73 14 48 11 90 -8 140 -9 24 -16 27 -53 27 -26 -1 -48 -7 -57 -16z"/>
<path d="M9110 4679 c-10 -24 -10 -35 0 -55 7 -13 17 -24 22 -24 4 0 8 -4 8
-10 0 -5 -6 -10 -14 -10 -27 0 -35 -62 -12 -92 16 -21 95 -25 114 -6 14 14 16
98 2 98 -5 0 -10 9 -10 20 0 11 5 20 10 20 15 0 12 60 -4 76 -8 8 -34 14 -59
14 -40 0 -46 -3 -57 -31z"/>
<path d="M5107 4643 c-4 -3 -7 -35 -7 -70 l0 -63 330 0 c197 0 330 4 330 9 0
5 9 13 20 16 15 5 20 15 20 44 0 33 -4 39 -35 54 -31 15 -76 17 -344 17 -169
0 -311 -3 -314 -7z"/>
<path d="M11040 4554 c0 -21 4 -24 20 -19 14 5 20 2 20 -10 0 -9 -9 -25 -20
-37 -11 -12 -20 -30 -20 -40 0 -15 8 -18 49 -18 30 0 51 5 54 13 4 10 6 10 6
0 1 -8 16 -13 41 -13 l40 0 0 75 0 75 -40 0 c-22 0 -40 -4 -40 -10 0 -5 -7
-10 -15 -10 -8 0 -15 5 -15 10 0 6 -18 10 -40 10 -36 0 -40 -2 -40 -26z"/>
<path d="M11862 4558 c2 -16 9 -22 21 -20 23 4 22 -24 -3 -50 -11 -12 -20 -30
-20 -40 0 -15 8 -18 50 -18 28 0 50 5 50 10 0 6 -11 10 -25 10 -29 0 -31 6
-10 26 8 9 15 24 15 35 0 10 5 19 10 19 6 0 10 -15 10 -34 0 -56 8 -66 51 -66
l39 0 0 75 0 75 -40 0 c-22 0 -40 -4 -40 -10 0 -5 -7 -10 -15 -10 -8 0 -15 5
-15 10 0 6 -18 10 -41 10 -36 0 -40 -2 -37 -22z"/>
<path d="M12722 4558 c2 -16 9 -22 21 -20 23 4 22 -24 -3 -50 -11 -12 -20 -30
-20 -40 0 -15 8 -18 49 -18 30 0 51 5 54 13 4 10 6 10 6 0 1 -8 16 -13 41 -13
l40 0 0 75 0 75 -40 0 c-22 0 -40 -4 -40 -10 0 -5 -7 -10 -15 -10 -8 0 -15 5
-15 10 0 6 -18 10 -41 10 -36 0 -40 -2 -37 -22z"/>
<path d="M7370 4402 c0 -4 5 -13 12 -20 9 -9 9 -12 0 -12 -7 0 -12 5 -12 10 0
6 -9 10 -20 10 -16 0 -20 -7 -21 -37 -1 -27 -3 -31 -6 -14 -5 27 -26 51 -43
51 -12 0 -11 -15 6 -97 5 -28 11 -33 35 -33 26 0 29 4 29 30 0 17 5 30 10 30
6 0 10 -13 10 -30 0 -23 5 -30 19 -30 11 0 22 6 24 13 4 10 6 10 6 0 1 -7 14
-13 30 -13 16 0 32 6 34 13 4 10 6 10 6 0 1 -7 12 -13 25 -13 13 0 27 6 29 13
4 10 6 10 6 0 1 -9 23 -13 76 -13 l75 0 0 34 c0 18 7 39 15 46 13 11 15 6 15
-34 l0 -46 38 0 38 0 2 56 2 56 -42 -2 c-97 -4 -110 -2 -103 20 5 16 2 20 -19
20 -14 0 -26 -4 -26 -10 0 -5 5 -10 10 -10 6 0 10 -4 10 -10 0 -5 -20 -10 -44
-10 -46 0 -46 0 -66 -70 -7 -23 -8 -23 -9 8 0 17 4 32 9 32 6 0 10 7 10 15 0
8 -4 15 -9 15 -5 0 -13 9 -16 21 l-7 20 -18 -20 c-9 -12 -29 -21 -44 -21 -18
0 -26 -5 -26 -17 0 -9 -3 -13 -7 -10 -3 4 -6 20 -5 37 0 23 -4 30 -19 30 -10
0 -19 -4 -19 -8z"/>
<path d="M6200 3995 l0 -355 -540 0 -540 0 0 -1240 0 -1240 1073 -3 c589 -1
-563 -3 -2560 -5 l-3633 -2 0 -575 0 -575 9600 0 9600 0 0 575 0 575 -5962 0
-5963 0 3 1245 2 1245 -530 0 -530 0 0 355 c0 230 -4 355 -10 355 -6 0 -10
-125 -10 -355z m1060 -1590 l0 -1215 -1060 0 -1060 0 0 1215 0 1215 1060 0
1060 0 0 -1215z"/>
<path d="M5637 3573 c-4 -3 -7 -15 -7 -25 0 -10 -4 -18 -10 -18 -5 0 -10 -13
-10 -30 0 -16 -4 -30 -10 -30 -5 0 -10 -13 -10 -29 0 -17 -4 -33 -10 -36 -5
-3 -12 -28 -16 -55 -4 -28 -10 -50 -15 -50 -5 0 -9 -13 -9 -30 0 -16 -4 -30
-10 -30 -15 0 -12 -39 4 -56 8 -8 26 -14 40 -14 14 0 26 -4 26 -10 0 -5 11
-10 25 -10 14 0 25 -4 25 -9 0 -5 10 -13 23 -17 24 -7 102 -40 129 -55 10 -5
25 -9 33 -9 8 0 15 -4 15 -10 0 -5 11 -10 25 -10 14 0 25 -4 25 -10 0 -5 11
-10 25 -10 14 0 25 -4 25 -10 0 -5 11 -10 25 -10 14 0 25 -4 25 -10 0 -5 11
-12 25 -16 24 -6 36 -34 15 -34 -5 0 -10 -7 -10 -16 0 -8 -11 -49 -25 -90 -14
-41 -25 -86 -25 -99 0 -14 -4 -25 -10 -25 -5 0 -10 -16 -10 -35 0 -31 -3 -35
-25 -35 -14 0 -25 -4 -25 -10 0 -5 -13 -10 -30 -10 -16 0 -30 -4 -30 -9 0 -5
-12 -11 -27 -14 -16 -3 -54 -15 -85 -27 -53 -19 -59 -20 -74 -6 -8 9 -20 16
-27 16 -6 0 4 13 21 28 27 24 33 38 38 90 8 71 10 70 -111 75 -65 3 -63 3 21
5 88 2 114 11 114 39 0 10 -25 13 -100 13 -60 0 -100 4 -100 10 0 6 5 10 10
10 6 0 10 5 10 10 0 19 -17 10 -28 -14 -6 -14 -9 -56 -6 -102 7 -107 11 -122
34 -129 19 -6 29 -45 12 -45 -18 0 -32 -88 -32 -200 l0 -120 91 0 91 0 -2 28
c-1 15 -2 48 -1 75 l1 47 85 0 85 0 0 -30 c0 -16 -4 -30 -10 -30 -5 0 -10 -11
-10 -25 0 -14 -4 -25 -10 -25 -5 0 -10 -13 -10 -30 0 -16 -4 -30 -10 -30 -5 0
-10 -11 -10 -24 0 -36 -28 -96 -46 -96 -18 0 -44 -23 -44 -39 0 -6 5 -11 10
-11 6 0 10 -13 10 -30 0 -16 5 -30 10 -30 6 0 10 -14 10 -30 0 -51 17 -59 67
-36 31 16 43 27 43 44 0 17 -6 22 -26 22 -25 0 -26 1 -21 63 7 79 17 127 28
127 4 0 11 23 15 50 4 28 11 53 15 56 5 3 9 18 9 35 0 16 5 29 10 29 6 0 10 8
10 18 0 11 9 27 19 36 11 10 17 24 14 32 -7 19 17 116 34 132 9 9 11 25 7 48
-4 22 -2 34 5 34 6 0 11 14 11 30 0 17 5 30 10 30 6 0 10 11 10 25 0 14 4 33
10 43 16 29 40 111 40 137 0 14 5 25 10 25 6 0 10 16 10 35 0 19 5 35 10 35 6
0 10 11 10 24 0 14 5 28 10 31 6 3 10 17 10 31 0 13 5 24 10 24 6 0 10 11 10
24 0 13 7 40 15 59 8 20 15 48 15 62 0 14 5 25 10 25 6 0 10 10 10 23 0 26
-44 54 -122 77 -27 8 -48 18 -48 22 0 4 -11 8 -25 8 -14 0 -25 5 -25 10 0 6
-11 10 -25 10 -14 0 -25 5 -25 10 0 6 -13 10 -30 10 -16 0 -30 5 -30 10 0 6
-11 10 -25 10 -14 0 -25 4 -25 8 0 5 -19 16 -42 26 -24 10 -54 22 -68 28 -14
6 -33 14 -42 19 -21 11 -23 11 -31 2z m108 -329 c28 -11 52 -22 53 -26 2 -5
15 -8 28 -8 13 0 24 -4 24 -10 0 -5 11 -10 25 -10 14 0 25 -4 25 -10 0 -5 11
-10 25 -10 14 0 25 -4 25 -10 0 -5 11 -10 25 -10 14 0 25 -4 25 -9 0 -5 20
-15 45 -22 32 -9 45 -19 45 -31 0 -10 -4 -18 -10 -18 -5 0 -10 -17 -11 -37 0
-21 -3 -32 -6 -25 -2 6 -18 12 -34 12 -16 0 -29 4 -29 8 0 10 -71 42 -93 42
-10 0 -17 5 -17 10 0 6 -9 10 -20 10 -11 0 -20 5 -20 10 0 6 -11 10 -25 10
-14 0 -25 5 -25 10 0 6 -11 10 -25 10 -14 0 -25 5 -25 10 0 6 -13 10 -30 10
-16 0 -30 5 -30 10 0 6 -9 10 -20 10 -11 0 -20 4 -20 9 0 5 -16 15 -35 21 -34
11 -48 30 -22 30 6 0 23 9 37 20 27 22 41 22 115 -6z"/>
<path d="M6580 3383 c-1 -109 0 -340 0 -514 1 -272 -1 -319 -15 -332 -20 -20
-20 -67 0 -67 10 0 15 -11 15 -35 0 -24 -5 -35 -15 -35 -19 0 -19 -30 0 -56
11 -15 14 -59 15 -216 0 -125 4 -198 10 -198 6 0 10 67 10 180 0 99 2 180 5
180 2 0 20 -9 40 -20 20 -11 49 -20 65 -20 l30 0 0 -155 c0 -131 -2 -155 -15
-155 -9 0 -15 -9 -15 -25 l0 -25 110 0 110 0 -3 73 c-1 39 -1 150 1 245 l2
172 30 0 30 0 0 120 c0 112 -1 120 -19 120 -11 0 -22 6 -25 13 -5 10 -7 10
-12 0 -8 -17 -22 -16 -40 1 -18 19 -18 21 9 49 28 27 37 58 43 145 2 38 0 62
-6 62 -5 0 -10 18 -10 39 0 69 -3 71 -91 71 l-78 0 -10 -37 c-15 -63 -23 -133
-14 -133 5 0 8 -29 7 -65 -1 -39 2 -65 8 -65 12 0 48 -39 48 -50 0 -5 -7 -10
-15 -14 -8 -3 -23 -21 -32 -41 -16 -33 -19 -35 -69 -35 -29 0 -59 -3 -68 -6
-14 -6 -16 25 -16 305 l0 311 285 0 285 0 0 205 0 205 -295 0 -295 0 0 -197z
m260 97 c0 -5 -6 -10 -14 -10 -8 0 -18 -9 -21 -20 -3 -11 -11 -20 -16 -20 -5
0 -9 -24 -9 -53 0 -41 4 -56 20 -67 11 -8 20 -20 20 -27 0 -7 5 -13 10 -13 6
0 10 -4 10 -10 0 -16 -39 -12 -72 8 -17 10 -32 28 -35 45 -3 15 -9 27 -14 27
-5 0 -9 16 -9 35 0 19 5 35 10 35 6 0 10 7 10 15 0 28 43 64 78 64 17 1 32 -3
32 -9z"/>
<path d="M6307 2953 c-4 -3 -10 -28 -13 -55 -7 -48 -15 -57 -37 -38 -46 39
-61 50 -69 50 -11 0 -10 -57 1 -62 5 -1 12 -20 16 -40 6 -33 5 -38 -12 -38
-28 0 -84 -30 -78 -41 4 -5 15 -9 26 -9 10 0 19 -4 19 -10 0 -5 12 -10 26 -10
25 0 26 -2 19 -37 -4 -21 -10 -40 -14 -43 -13 -9 -20 -39 -11 -45 5 -3 25 4
46 15 46 26 64 20 64 -22 1 -18 7 -44 15 -58 l14 -25 7 33 c4 18 11 35 15 38
5 3 9 16 9 30 0 29 9 30 38 4 12 -11 28 -20 37 -20 8 0 15 -4 15 -10 0 -5 5
-10 10 -10 6 0 10 11 10 25 0 14 -4 25 -10 25 -5 0 -10 9 -10 20 0 11 -4 20
-10 20 -15 0 -12 29 4 46 8 8 26 14 40 14 33 0 56 37 29 46 -10 3 -26 10 -35
15 -10 5 -25 9 -33 9 -8 0 -15 7 -15 15 0 8 4 15 8 15 11 0 42 89 33 94 -12 8
-61 -17 -61 -31 0 -19 -37 -16 -44 3 -3 9 -6 27 -6 41 0 13 -6 31 -14 39 -16
16 -20 17 -29 7z"/>
<path d="M5210 1795 c0 -8 -4 -15 -10 -15 -5 0 -10 -13 -10 -29 0 -16 -4 -31
-8 -33 -5 -1 -12 -22 -16 -45 -5 -36 -3 -43 10 -43 9 0 18 9 21 20 3 13 14 20
28 20 15 0 26 -8 30 -20 3 -11 10 -20 15 -20 4 0 10 -9 13 -20 3 -11 12 -20
21 -20 9 0 16 -4 16 -10 0 -5 7 -10 15 -10 8 0 15 5 15 10 0 6 6 10 13 10 7 0
18 9 25 20 7 11 19 20 27 20 11 0 15 13 15 55 0 30 5 55 10 55 6 0 10 -18 10
-39 0 -22 3 -46 6 -55 8 -21 54 -21 54 -1 0 8 -4 15 -10 15 -5 0 -10 18 -10
40 0 22 5 40 10 40 6 0 10 7 10 15 0 8 -4 15 -9 15 -5 0 -11 9 -14 20 -7 29
-37 26 -37 -4 0 -23 -3 -23 -72 -22 l-73 1 -3 -43 c-3 -37 -6 -42 -18 -31 -8
6 -14 24 -14 40 0 16 -4 29 -10 29 -5 0 -10 11 -10 25 0 18 -5 25 -20 25 -11
0 -20 -7 -20 -15z"/>
<path d="M6260 1791 c-14 -27 -13 -101 3 -134 11 -25 16 -27 57 -25 l45 3 0
65 0 65 -37 3 c-30 3 -38 7 -38 23 0 25 -16 25 -30 0z"/>
<path d="M6928 1788 c-3 -20 -8 -23 -45 -20 -34 3 -43 0 -43 -12 0 -9 -4 -16
-10 -16 -5 0 -10 7 -10 16 0 9 -7 14 -17 12 -15 -3 -19 -16 -21 -69 l-3 -66
61 -1 c51 -1 62 2 71 20 14 26 -6 68 -33 68 -10 0 -18 5 -18 10 0 6 9 10 20
10 11 0 20 -4 20 -10 0 -5 7 -10 15 -10 11 0 15 -12 15 -45 0 -43 1 -45 30
-45 30 0 42 21 20 35 -5 3 -10 17 -10 31 0 13 5 24 10 24 6 0 10 11 10 25 0
14 -4 25 -10 25 -5 0 -10 9 -10 20 0 29 -38 27 -42 -2z"/>
<path d="M5690 1455 c0 -32 -2 -35 -30 -35 -24 0 -30 -4 -31 -22 l0 -23 -11
23 c-9 18 -19 22 -60 22 l-48 0 0 -65 c0 -51 3 -65 15 -65 11 0 15 11 15 39 0
24 5 41 14 44 20 8 26 -2 26 -45 0 -31 4 -38 19 -38 12 0 21 8 24 23 l4 22 2
-23 c1 -21 5 -23 49 -20 l47 3 3 65 c4 82 -5 130 -23 130 -10 0 -15 -11 -15
-35z"/>
<path d="M6360 1391 c0 -94 1 -101 20 -101 18 0 20 7 20 58 0 40 3 53 10 42 5
-8 10 -34 10 -57 0 -41 1 -43 30 -43 20 0 30 5 30 15 0 8 -4 15 -10 15 -14 0
-13 46 1 73 9 16 9 22 0 25 -6 2 -11 12 -11 23 0 12 -7 19 -20 19 -13 0 -20
-7 -20 -20 0 -33 -18 -23 -22 12 -2 22 -9 34 -20 36 -16 3 -18 -7 -18 -97z"/>
<path d="M6970 1390 l0 -100 45 0 c33 0 45 4 45 15 0 8 5 15 10 15 6 0 13 -7
16 -15 4 -10 20 -15 46 -15 35 0 40 3 35 19 -3 11 2 29 9 40 11 16 12 25 2 45
-9 21 -18 26 -50 26 -21 0 -38 -4 -38 -10 0 -5 -7 -10 -15 -10 -8 0 -15 5 -15
10 0 6 -11 10 -24 10 -19 0 -25 7 -30 35 -4 21 -13 35 -21 35 -12 0 -15 -19
-15 -100z"/>
<path d="M5206 1445 c-33 -33 -40 -61 -25 -98 19 -47 33 -57 77 -57 35 0 41 3
46 26 4 15 4 39 1 55 -5 24 -12 29 -35 29 -16 0 -30 -7 -34 -16 -8 -22 -8 -24
8 -24 19 0 27 -13 18 -27 -11 -18 -31 0 -38 33 -4 21 0 36 15 53 12 13 21 19
21 13 0 -7 11 -12 25 -12 29 0 32 12 9 34 -23 23 -60 20 -88 -9z"/>
<path d="M5904 1457 c-3 -8 -4 -47 -2 -88 2 -61 6 -74 21 -77 13 -3 17 3 17
27 0 17 5 31 10 31 6 0 10 -7 10 -16 0 -33 52 -60 63 -31 4 10 6 10 6 0 1 -8
16 -13 42 -13 35 0 41 3 36 19 -5 20 9 51 23 51 6 0 10 -9 10 -19 0 -35 12
-51 36 -51 17 0 24 6 24 19 0 11 4 21 9 23 12 5 21 88 9 88 -15 0 -38 -27 -39
-47 0 -10 -5 -3 -10 15 -10 33 -42 45 -52 20 -4 -10 -6 -10 -6 0 -1 7 -16 12
-40 12 -43 0 -51 -10 -51 -66 0 -19 -4 -34 -10 -34 -5 0 -10 9 -10 19 0 11 -6
22 -12 24 -10 4 -10 6 0 6 19 1 16 87 -4 95 -28 11 -74 6 -80 -7z"/>
<path d="M5320 1355 c0 -58 2 -65 20 -65 17 0 20 7 20 45 0 41 2 45 25 45 14
0 25 -4 25 -10 0 -5 -4 -10 -10 -10 -5 0 -10 -16 -10 -35 l0 -35 50 0 50 0 0
49 c0 80 -1 81 -91 81 l-79 0 0 -65z"/>
<path d="M6780 1355 c0 -58 2 -65 20 -65 17 0 20 7 20 45 0 41 2 45 24 45 14
0 28 -4 31 -10 3 -5 2 -10 -3 -10 -14 0 -22 -25 -15 -49 4 -17 13 -21 49 -21
l44 0 0 65 0 65 -85 0 -85 0 0 -65z"/>
<path d="M8940 3920 c0 -267 3 -410 10 -410 7 0 10 143 10 410 0 267 -3 410
-10 410 -7 0 -10 -143 -10 -410z"/>
<path d="M12300 4290 c-7 -17 -16 -30 -21 -30 -5 0 -9 -12 -9 -27 -1 -25 -2
-26 -14 -10 -7 9 -18 17 -25 17 -6 0 -11 5 -11 10 0 6 9 10 20 10 11 0 20 5
20 10 0 6 -13 10 -30 10 -42 0 -52 -41 -19 -76 l22 -24 -26 0 c-17 0 -27 -5
-27 -15 0 -22 59 -20 76 3 13 16 13 16 14 0 0 -14 8 -18 35 -18 28 0 35 -4 35
-20 0 -13 7 -20 20 -20 13 0 20 7 20 20 0 13 7 20 19 20 11 0 21 6 24 13 4 10
7 10 18 0 7 -7 26 -13 41 -13 27 0 28 1 28 55 0 54 0 55 -30 55 -36 0 -43 -29
-7 -31 20 -1 20 -2 2 -6 -11 -3 -23 -10 -27 -17 -5 -7 -8 -4 -8 7 0 32 -26 47
-79 47 -28 0 -51 5 -51 10 0 6 5 10 10 10 12 0 13 27 1 34 -5 3 -14 -8 -21
-24z"/>
<path d="M13020 4285 c0 -18 -5 -25 -19 -25 -28 0 -45 -49 -30 -83 16 -36 75
-39 89 -4 l9 22 0 -22 c1 -19 7 -23 35 -23 44 0 56 17 19 27 l-28 7 25 6 c49
12 29 70 -24 70 -18 0 -26 -6 -29 -22 -2 -13 -5 -4 -6 18 -1 28 -6 44 -17 48
-23 9 -24 8 -24 -19z"/>
<path d="M12670 4270 c0 -6 -32 -10 -75 -10 l-75 0 0 -55 c0 -42 3 -55 15 -55
10 0 15 10 15 34 0 21 6 36 15 40 12 4 15 -3 15 -34 0 -40 0 -40 39 -40 l40 0
4 48 3 47 2 -47 2 -48 39 0 c29 0 41 5 44 18 4 16 5 16 6 0 1 -12 9 -18 27
-18 32 0 54 21 54 53 0 44 -10 57 -45 57 -27 0 -34 -5 -38 -22 l-4 -23 -2 23
c-1 18 -7 22 -31 22 -16 0 -30 5 -30 10 0 6 -4 10 -10 10 -5 0 -10 -4 -10 -10z"/>
<path d="M4960 4210 c0 -29 0 -29 -67 -32 l-68 -3 0 -65 c0 -58 2 -65 20 -65
16 0 21 8 23 43 2 28 8 42 18 42 10 0 14 -12 14 -45 l0 -45 50 0 50 0 0 100
c0 93 -1 100 -20 100 -15 0 -20 -7 -20 -30z"/>
<path d="M10763 4225 c-7 -8 -13 -19 -13 -26 0 -6 -10 -20 -22 -31 -23 -20
-23 -20 -26 3 -6 33 -26 49 -67 49 l-36 0 3 -77 3 -78 33 -3 c37 -4 62 16 63
50 0 14 3 17 6 8 15 -46 28 -60 55 -60 18 0 28 5 28 15 0 8 -9 15 -20 15 -11
0 -20 5 -20 10 0 20 45 10 55 -12 8 -20 18 -23 60 -23 l50 1 3 73 c2 41 1 80
-2 87 -8 22 -36 4 -36 -22 0 -20 -5 -24 -29 -24 -16 0 -31 -6 -35 -15 -7 -19
-26 -20 -26 -1 0 8 -6 16 -12 19 -10 4 -10 7 0 18 13 14 16 39 5 39 -5 -1 -14
-7 -20 -15z"/>
<path d="M4407 4169 c-10 -28 -17 -62 -17 -75 0 -13 -4 -24 -10 -24 -17 0 -11
-17 7 -25 12 -4 24 1 35 15 19 24 58 20 58 -6 0 -20 38 -17 43 4 4 16 5 16 6
0 1 -14 10 -18 41 -18 31 0 40 4 40 18 1 16 1 16 11 0 6 -12 22 -18 44 -18 27
0 35 4 35 18 1 16 1 16 11 0 13 -23 79 -25 79 -3 0 8 5 15 10 15 15 0 12 80
-4 96 -20 19 -66 18 -82 -3 -13 -17 -13 -17 -14 0 0 13 -8 17 -35 17 -22 0
-38 -6 -44 -17 -10 -17 -10 -17 -11 0 0 13 -9 17 -39 17 -38 0 -39 -1 -52 -47
-13 -47 -13 -47 -17 -15 -2 17 -7 32 -13 32 -5 0 -9 16 -9 35 0 32 -3 35 -28
35 -26 0 -31 -5 -45 -51z"/>
<path d="M5630 4200 c0 -17 -7 -20 -45 -20 -28 0 -45 -4 -45 -12 0 -9 -3 -9
-12 0 -7 7 -27 12 -45 12 l-33 0 0 -71 c0 -62 2 -70 18 -67 12 2 18 15 20 46
4 57 32 60 32 3 0 -43 10 -51 66 -51 l34 0 2 58 1 57 6 -55 c6 -51 8 -55 34
-58 19 -2 27 1 27 12 0 9 -4 16 -10 16 -5 0 -10 14 -10 30 0 17 5 30 10 30 6
0 10 11 10 25 0 14 -4 25 -10 25 -5 0 -10 9 -10 20 0 13 -7 20 -20 20 -13 0
-20 -7 -20 -20z"/>
<path d="M11170 4200 c0 -23 8 -22 -132 -22 -87 1 -108 -2 -108 -14 0 -8 9
-14 20 -14 11 0 20 -4 20 -10 0 -5 -9 -10 -21 -10 -17 0 -20 -5 -17 -32 3 -33
3 -33 58 -32 l55 0 3 42 c3 41 4 42 38 42 19 0 34 -4 34 -10 0 -5 -9 -10 -20
-10 -16 0 -20 -7 -20 -36 0 -35 1 -35 38 -32 36 3 37 4 43 48 l5 45 5 -45 c4
-44 5 -45 39 -45 l35 0 3 58 3 57 -31 0 c-23 0 -30 4 -30 20 0 11 -4 20 -10
20 -5 0 -10 -9 -10 -20z"/>
<path d="M7673 4183 c-7 -2 -13 -21 -14 -41 0 -20 -3 -31 -6 -24 -2 6 -21 12
-40 12 -27 0 -34 -3 -29 -15 3 -8 1 -25 -4 -37 -8 -20 -9 -18 -9 15 -1 37 -1
37 -42 37 l-40 0 3 -52 c3 -46 6 -53 25 -56 19 -3 22 2 26 45 l3 48 2 -47 c2
-47 16 -65 25 -30 4 16 5 16 6 0 1 -16 13 -18 102 -18 55 0 109 5 120 10 11 7
19 7 19 1 0 -5 27 -10 60 -10 44 0 60 4 60 14 0 7 -10 16 -22 18 l-23 4 23 2
c18 1 22 7 22 36 0 32 -2 35 -30 35 -16 0 -30 -5 -30 -11 0 -15 -24 11 -34 36
-7 20 -8 20 -26 -2 -13 -16 -29 -23 -54 -23 -34 0 -36 2 -30 25 5 18 2 25 -9
25 -8 0 -21 2 -29 4 -7 3 -19 2 -25 -1z"/>
<path d="M15243 4175 c-7 -8 -13 -26 -13 -40 0 -14 -4 -25 -10 -25 -5 0 -10
-11 -10 -25 0 -14 -4 -33 -9 -43 -14 -28 -41 -118 -41 -137 0 -39 -23 -45
-167 -45 -160 0 -178 -6 -140 -44 14 -14 31 -26 37 -26 5 0 10 -6 10 -14 0 -8
9 -18 20 -21 11 -3 20 -13 20 -21 0 -8 5 -14 11 -14 6 0 28 -18 49 -40 21 -22
41 -40 45 -40 4 0 13 -7 21 -15 11 -11 12 -19 4 -34 -5 -11 -13 -47 -17 -81
-3 -33 -10 -60 -14 -60 -5 0 -9 -13 -9 -29 0 -17 -4 -33 -10 -36 -5 -3 -10
-24 -10 -45 0 -21 -5 -40 -11 -42 -5 -2 -7 -11 -4 -20 8 -19 35 -13 35 8 0 8
8 14 18 14 10 0 24 9 32 20 8 11 18 20 23 20 4 0 19 10 32 23 13 12 44 38 69
57 25 19 46 38 46 42 0 7 35 -21 86 -69 18 -18 39 -33 46 -33 8 0 20 -9 28
-20 8 -11 18 -20 23 -20 4 0 19 -11 33 -25 35 -35 44 -31 44 20 0 25 -4 45
-10 45 -5 0 -10 16 -10 35 0 19 -4 35 -8 35 -5 0 -14 30 -20 68 -6 37 -14 79
-18 93 -4 19 1 33 24 57 17 18 34 32 39 32 4 0 38 29 76 65 37 36 72 65 77 65
6 0 10 11 10 25 l0 25 -155 0 c-124 0 -155 3 -155 14 0 7 -10 46 -23 87 -13
41 -30 95 -37 122 -8 26 -18 47 -22 47 -4 0 -8 14 -8 30 0 33 -8 37 -27 15z"/>
<path d="M5156 4164 c-10 -25 -7 -52 5 -56 9 -3 9 -10 0 -26 -16 -30 -6 -42
35 -42 30 0 34 3 35 28 l1 27 10 -27 c9 -25 15 -28 54 -28 41 0 44 2 45 28 l1
27 10 -27 c8 -23 16 -28 44 -28 30 0 34 3 34 25 0 25 -20 37 -20 13 0 -7 -5
-5 -11 5 -6 10 -8 30 -4 45 4 15 10 21 12 15 8 -22 23 -14 23 12 0 22 -4 25
-34 25 -28 0 -35 -4 -41 -27 -5 -19 -9 -23 -13 -13 -9 26 -30 40 -59 40 -23 0
-31 -7 -44 -38 l-17 -37 5 38 c6 37 5 37 -30 37 -23 0 -37 -6 -41 -16z"/>
<path d="M7370 4155 c0 -14 -4 -25 -10 -25 -5 0 -10 6 -10 14 0 23 -31 29 -37
6 -4 -16 -14 -20 -48 -20 -25 0 -45 -5 -48 -12 -4 -10 -6 -10 -6 0 -1 7 -16
12 -41 12 l-40 0 0 -55 c0 -48 2 -55 20 -55 17 0 20 7 22 48 l1 47 6 -45 6
-45 57 -3 57 -3 4 48 3 48 2 -47 2 -48 85 0 85 0 0 55 0 55 -45 0 c-25 0 -45
5 -45 10 0 6 5 10 10 10 6 0 10 7 10 15 0 8 -9 15 -20 15 -15 0 -20 -7 -20
-25z"/>
<path d="M12560 3995 c0 -19 5 -35 10 -35 6 0 10 -20 10 -45 0 -25 5 -45 10
-45 6 0 10 7 10 15 0 8 5 15 10 15 6 0 10 14 10 30 0 17 5 30 10 30 6 0 10 -9
10 -20 0 -11 7 -20 15 -20 10 0 15 10 15 28 0 15 5 34 10 42 7 11 10 4 10 -27
0 -36 3 -43 20 -43 18 0 20 7 20 54 l0 55 -55 -2 c-30 -1 -60 -8 -67 -15 -16
-16 -28 -15 -28 3 0 8 -4 15 -10 15 -5 0 -10 -16 -10 -35z"/>
<path d="M16233 3993 c-7 -3 -13 -11 -13 -19 0 -8 -7 -14 -16 -14 -9 0 -29
-13 -44 -30 -15 -16 -31 -30 -35 -30 -10 0 -75 -72 -75 -82 0 -4 -5 -8 -11 -8
-6 0 -24 -13 -39 -30 -15 -16 -31 -30 -34 -30 -6 0 -30 -21 -121 -107 -24 -24
-47 -43 -50 -43 -17 0 -145 -141 -145 -159 0 -12 5 -21 10 -21 6 0 10 -18 10
-40 0 -22 5 -40 10 -40 6 0 10 -12 10 -26 0 -29 27 -158 40 -189 9 -21 18 -60
27 -112 3 -18 9 -33 14 -33 5 0 9 -18 9 -40 0 -22 5 -40 10 -40 6 0 10 -12 10
-27 0 -25 19 -110 40 -179 11 -34 13 -80 3 -54 -9 22 -30 40 -47 40 -9 0 -16
7 -16 15 0 8 -4 15 -9 15 -5 0 -27 18 -50 40 -22 22 -46 40 -51 40 -6 0 -10 5
-10 10 0 6 -7 10 -15 10 -8 0 -15 5 -15 10 0 6 -4 10 -9 10 -5 0 -36 25 -67
55 -32 30 -63 55 -69 55 -6 0 -17 9 -25 20 -8 11 -19 20 -25 20 -6 0 -17 9
-25 20 -8 11 -22 20 -32 20 -10 0 -18 6 -18 13 0 7 -12 21 -27 32 -15 11 -37
30 -49 43 -13 12 -28 22 -34 22 -6 0 -21 -10 -34 -22 -12 -13 -35 -32 -51 -43
-15 -11 -43 -35 -61 -52 -18 -18 -37 -33 -41 -33 -5 0 -15 -9 -23 -20 -8 -11
-20 -20 -26 -20 -7 0 -33 -20 -60 -45 -26 -25 -51 -45 -56 -45 -4 0 -8 -4 -8
-10 0 -5 -7 -10 -15 -10 -8 0 -15 -4 -15 -10 0 -5 -5 -10 -11 -10 -6 0 -24
-13 -39 -30 -15 -16 -31 -30 -34 -30 -7 0 -47 -33 -82 -67 -13 -13 -28 -23
-34 -23 -5 0 -10 -9 -10 -20 0 -20 7 -20 595 -20 429 0 601 3 620 12 18 8 25
19 25 40 0 15 5 28 10 28 6 0 10 14 10 30 0 17 4 38 9 48 5 9 14 35 19 57 6
22 21 74 33 115 12 41 24 94 27 118 2 23 9 42 13 42 5 0 9 14 9 30 0 17 5 30
10 30 6 0 10 14 10 30 0 17 4 38 9 48 19 36 63 199 78 290 3 18 9 35 14 38 5
3 9 18 9 35 0 16 5 29 10 29 6 0 10 11 10 25 0 13 4 34 9 47 20 52 41 132 41
159 0 16 4 29 9 29 7 0 25 90 19 95 -2 1 -9 0 -15 -2z"/>
<path d="M10853 3965 c-7 -8 -10 -21 -7 -29 3 -9 1 -16 -6 -16 -20 0 -40 -27
-40 -55 0 -33 21 -55 54 -55 30 0 36 26 9 33 -14 4 -13 5 4 6 19 1 22 -5 25
-41 3 -46 28 -67 28 -24 0 22 4 26 29 26 16 0 32 6 35 13 5 10 7 10 12 0 7
-15 74 -17 74 -3 0 6 -10 15 -22 20 -22 8 -22 9 5 9 21 1 27 -4 27 -19 0 -13
7 -20 19 -20 16 0 21 8 24 43 l4 42 1 -42 c2 -38 5 -43 26 -43 18 0 26 7 29
23 l4 22 2 -22 c1 -20 7 -23 41 -23 l40 0 0 85 c0 69 -3 85 -15 85 -10 0 -15
-10 -15 -30 0 -25 -4 -30 -25 -30 -19 0 -25 -5 -25 -22 l0 -21 -19 21 c-21 25
-86 31 -94 10 -4 -10 -6 -10 -6 0 -1 7 -15 12 -35 12 -19 0 -37 -6 -40 -12 -5
-10 -7 -10 -12 0 -7 15 -94 17 -94 1 0 -6 -8 -3 -17 7 -13 13 -14 19 -5 22 13
4 17 42 5 42 -5 -1 -14 -7 -20 -15z"/>
<path d="M14260 3970 c0 -5 5 -10 10 -10 6 0 10 -11 10 -25 0 -14 4 -33 9 -43
5 -9 17 -53 27 -97 9 -44 21 -84 26 -90 4 -5 8 -18 8 -29 0 -21 17 -80 31
-108 5 -10 9 -31 9 -48 0 -16 5 -30 10 -30 6 0 10 -10 10 -23 0 -13 6 -43 14
-68 7 -24 19 -64 26 -89 7 -25 16 -54 20 -65 19 -50 30 -93 30 -113 0 -12 5
-22 10 -22 6 0 10 -9 10 -20 0 -21 26 -128 40 -165 18 -50 30 -93 30 -113 0
-12 5 -22 10 -22 6 0 10 -11 10 -24 0 -43 12 -86 25 -86 16 0 29 31 49 115 9
39 21 86 26 105 5 19 10 50 10 68 0 17 5 32 10 32 6 0 10 14 10 30 0 17 4 30
9 30 5 0 11 17 14 38 8 55 23 119 46 191 12 35 21 79 21 97 0 18 5 36 10 39
24 15 10 44 -49 99 -19 17 -49 46 -67 64 -18 17 -36 32 -39 32 -3 0 -39 34
-81 75 -42 41 -80 75 -85 75 -5 0 -38 29 -74 65 -35 36 -67 65 -70 65 -4 0
-24 18 -45 40 -36 38 -70 52 -70 30z"/>
<path d="M7480 3930 c0 -5 -9 -10 -20 -10 -18 0 -20 -7 -20 -80 l0 -80 56 3
c34 2 59 9 65 18 7 11 9 11 9 -4 0 -14 7 -18 32 -15 39 4 51 28 14 28 -14 0
-26 5 -26 10 0 6 14 10 30 10 17 0 30 2 30 4 0 1 -5 17 -11 35 -9 25 -17 31
-39 31 -19 0 -30 -6 -33 -17 -3 -10 -5 -2 -6 17 -1 33 -20 81 -21 53 0 -7 -9
-13 -20 -13 -11 0 -20 5 -20 10 0 6 -4 10 -10 10 -5 0 -10 -4 -10 -10z"/>
<path d="M8080 3851 l0 -89 75 0 75 0 0 60 0 60 -32 -2 c-88 -5 -98 -2 -98 30
0 17 -4 30 -10 30 -6 0 -10 -36 -10 -89z"/>
<path d="M4480 3891 c0 -25 -4 -30 -27 -33 -27 -3 -28 -5 -28 -68 l0 -65 48
-3 47 -3 0 100 c0 94 -1 101 -20 101 -15 0 -20 -7 -20 -29z"/>
<path d="M4900 3890 c0 -23 -4 -30 -20 -30 -15 0 -20 -7 -20 -26 0 -23 -2 -24
-15 -10 -8 8 -15 19 -15 25 0 6 -9 11 -20 11 -13 0 -20 7 -20 20 0 16 -7 20
-33 20 -18 0 -38 -5 -45 -12 -26 -26 -6 -98 27 -98 6 0 11 -10 10 -22 0 -13
-3 -17 -6 -10 -2 6 -13 12 -24 12 -14 0 -19 -7 -19 -25 0 -23 4 -25 45 -25
l45 0 0 45 c0 32 -6 51 -21 66 -23 23 -21 33 5 23 9 -3 16 -15 16 -25 0 -10 4
-19 9 -19 5 0 12 -26 16 -57 6 -54 23 -113 24 -85 1 6 8 12 16 12 9 0 15 9 15
23 0 12 7 42 14 67 l15 45 0 -41 c1 -29 6 -44 17 -48 23 -9 24 -8 25 17 1 16
2 18 6 5 5 -18 49 -36 60 -24 4 3 -1 22 -10 41 -21 43 -21 40 -1 59 19 20 10
36 -21 36 -14 0 -25 -7 -28 -17 -3 -10 -5 3 -6 30 -1 40 -4 47 -21 47 -16 0
-20 -7 -20 -30z"/>
<path d="M7310 3900 c-10 -14 -26 -20 -52 -20 -35 0 -37 -2 -41 -37 -3 -35 -4
-34 -5 10 l-2 47 -40 0 -40 0 0 -70 0 -70 35 0 c21 0 37 6 43 16 8 15 10 15
15 0 9 -23 74 -22 80 2 4 14 5 14 6 1 1 -13 13 -16 61 -17 l60 -1 0 61 0 61
-40 -6 c-35 -4 -42 -2 -53 19 -12 24 -13 24 -27 4z"/>
<path d="M11460 3865 l0 -55 39 0 c22 0 42 5 44 13 4 10 6 10 6 0 1 -16 71
-18 71 -3 0 6 -10 15 -22 20 -22 8 -22 9 5 9 28 1 35 19 21 55 -7 19 -70 22
-77 4 -4 -10 -6 -10 -6 0 -1 7 -16 12 -41 12 l-40 0 0 -55z"/>
<path d="M5280 3810 c0 -83 1 -90 20 -90 16 0 20 7 20 35 0 32 2 35 29 35 25
0 30 5 34 28 2 15 5 -1 6 -35 1 -56 3 -63 21 -63 18 0 20 7 20 71 0 71 0 71
-25 67 -21 -4 -25 -1 -25 18 0 22 -4 24 -50 24 l-50 0 0 -90z"/>
<path d="M5660 3869 c-9 -21 -16 -27 -23 -20 -17 17 -77 14 -77 -4 0 -8 -4
-15 -10 -15 -5 0 -10 7 -10 15 0 10 -11 15 -35 15 -39 0 -55 -20 -55 -70 0
-50 16 -70 55 -70 24 0 35 5 35 15 0 8 5 15 10 15 6 0 10 -7 10 -15 0 -10 11
-15 35 -15 38 0 54 19 57 67 0 18 3 12 7 -17 5 -38 10 -46 30 -48 33 -5 44 10
30 41 -9 20 -9 33 -1 51 9 19 8 32 -4 55 -20 39 -38 39 -54 0z"/>
<path d="M7826 3888 c-19 -63 -27 -108 -21 -117 9 -16 25 -13 25 4 0 8 5 15
11 15 6 0 17 -7 25 -15 20 -20 34 -19 34 3 1 16 1 16 11 0 5 -10 17 -18 24
-18 8 0 15 -9 15 -20 0 -13 7 -20 20 -20 13 0 20 7 20 19 0 16 8 20 38 23 l37
3 3 58 3 58 -78 -3 c-70 -3 -79 -5 -88 -25 -14 -33 -25 -28 -25 12 0 31 -3 35
-25 35 -14 0 -27 -6 -29 -12z"/>
<path d="M12932 3855 c-18 -20 -22 -38 -22 -89 l0 -64 100 -1 100 -1 0 45 c0
25 5 45 10 45 6 0 10 -20 10 -45 l0 -45 55 0 55 0 0 35 c0 24 -5 35 -15 35 -8
0 -15 5 -15 10 0 6 7 10 15 10 8 0 15 5 15 10 0 6 -14 10 -31 10 -17 0 -37 7
-45 15 -9 8 -20 15 -25 15 -5 0 -9 -7 -9 -15 0 -11 -13 -15 -54 -15 -31 0 -56
5 -58 11 -2 6 -16 13 -32 14 -28 3 -50 15 -28 15 7 0 12 7 12 15 0 22 -13 18
-38 -10z"/>
<path d="M5030 3845 c0 -8 -4 -15 -10 -15 -5 0 -10 -18 -10 -40 0 -22 5 -40
10 -40 6 0 10 -7 10 -15 0 -11 11 -15 41 -15 37 0 41 2 36 21 -3 13 1 28 9 37
13 13 17 12 29 -4 7 -11 11 -21 8 -24 -3 -3 -8 1 -10 8 -8 21 -23 13 -23 -13
0 -22 4 -25 34 -25 34 0 46 13 46 50 0 10 -5 20 -11 22 -9 3 -9 10 0 26 16 30
6 42 -35 42 -26 0 -34 -4 -34 -17 -1 -17 -1 -17 -11 0 -13 22 -79 24 -79 2z"/>
<path d="M12470 3781 c0 -16 6 -32 13 -35 10 -5 10 -7 0 -12 -7 -3 -13 -12
-13 -20 0 -23 87 -14 99 11 10 20 10 20 10 -1 1 -20 6 -22 76 -22 l75 0 0 54
c0 40 -4 54 -14 54 -10 0 -16 -13 -19 -37 l-4 -38 -1 38 c-2 29 -6 37 -21 37
-11 0 -22 -6 -24 -12 -4 -10 -6 -10 -6 0 -1 7 -14 12 -31 12 -24 0 -30 -4 -31
-22 l0 -23 -11 23 c-9 18 -19 22 -55 22 -41 0 -43 -1 -43 -29z"/>
<path d="M11060 3695 c0 -8 -4 -15 -9 -15 -6 0 -6 -12 0 -30 7 -19 18 -30 30
-30 12 0 19 -7 19 -20 0 -22 -40 -29 -40 -7 0 6 -5 4 -11 -6 -15 -25 -3 -37
37 -37 24 0 34 5 34 15 0 8 4 15 9 15 5 0 12 10 14 23 2 12 5 -4 6 -36 1 -50
4 -58 19 -55 11 2 18 14 20 36 2 17 7 32 13 32 5 0 10 15 11 33 1 27 2 25 7
-12 7 -53 31 -69 31 -21 0 17 6 38 14 46 13 12 15 9 18 -28 2 -31 8 -44 21
-46 11 -2 17 3 17 15 1 17 1 17 11 1 13 -23 79 -25 79 -4 0 8 -12 17 -27 19
l-28 4 28 2 c24 1 27 5 27 35 0 22 -6 36 -16 40 -28 11 -53 6 -63 -11 -9 -15
-10 -16 -11 -2 0 13 -12 16 -65 16 -61 0 -65 -2 -65 -24 0 -30 -14 -29 -28 3
-14 28 -32 24 -32 -8 0 -21 0 -21 -20 2 -24 27 -25 40 -5 40 8 0 15 7 15 15 0
10 -10 15 -30 15 -20 0 -30 -5 -30 -15z"/>
<path d="M17836 3545 c-8 -8 -18 -24 -21 -35 -3 -11 -11 -20 -16 -20 -5 0 -9
-25 -9 -56 l0 -55 43 3 c45 3 53 19 15 29 -22 5 -22 5 5 11 15 3 27 1 27 -4 0
-34 75 -53 83 -20 4 16 5 16 6 0 1 -14 10 -18 41 -18 47 0 57 26 13 33 l-28 4
28 2 c24 1 27 5 27 36 0 34 -1 35 -39 35 -22 0 -42 -5 -44 -12 -4 -10 -6 -10
-6 0 -1 14 -61 17 -61 2 0 -15 -20 -12 -38 7 -12 12 -13 18 -4 21 14 4 16 38
3 47 -5 3 -16 -2 -25 -10z"/>
<path d="M18230 3465 l0 -85 33 0 c18 0 38 5 45 12 9 9 12 9 12 0 0 -7 9 -12
20 -12 17 0 20 7 20 45 0 33 4 45 14 45 10 0 16 -14 18 -42 3 -40 5 -43 35
-46 18 -2 40 1 50 7 15 8 12 11 -17 18 l-35 9 33 7 c35 7 42 28 18 53 -19 18
-152 20 -159 2 -4 -10 -6 -10 -6 0 -1 6 -10 12 -21 12 -12 0 -20 7 -20 16 0
15 -23 44 -34 44 -3 0 -6 -38 -6 -85z"/>
<path d="M17673 3533 c-9 -3 -13 -29 -13 -79 l0 -74 46 0 c57 0 73 17 74 81 0
32 -6 51 -18 62 -18 16 -63 21 -89 10z"/>
<path d="M10893 3455 c-7 -8 -13 -29 -13 -47 -1 -27 -2 -30 -11 -15 -8 13 -24
17 -74 17 -41 0 -65 -4 -68 -12 -4 -10 -6 -10 -6 0 -1 17 -41 15 -41 -3 0 -8
-4 -15 -10 -15 -5 0 -10 6 -10 14 0 10 -15 14 -55 15 l-55 0 0 -34 c0 -19 -4
-35 -10 -35 -5 0 -10 -9 -10 -20 0 -17 7 -20 50 -20 l50 0 2 43 c1 36 2 38 5
10 2 -18 8 -33 14 -33 5 0 9 -9 9 -20 0 -11 -4 -20 -10 -20 -5 0 -10 -7 -10
-15 0 -8 9 -15 20 -15 11 0 20 7 20 15 0 8 5 15 10 15 6 0 10 14 10 30 l0 31
27 -27 c18 -18 23 -29 15 -32 -20 -6 -14 -32 8 -32 15 0 20 7 20 25 0 24 2 25
75 25 l75 0 0 85 c0 85 -4 96 -27 70z"/>
<path d="M10970 3375 l0 -75 44 0 c26 0 47 5 50 13 5 10 7 10 12 0 3 -7 23
-13 43 -13 l38 0 -1 53 -1 52 -37 3 c-31 3 -38 0 -39 -15 -1 -20 -4 -12 -13
30 -6 25 -10 27 -51 27 l-45 0 0 -75z"/>
<path d="M11755 3430 c3 -11 2 -28 -4 -37 -10 -17 -10 -17 -11 0 0 15 -7 18
-37 15 -35 -3 -39 -6 -44 -38 -4 -19 -7 -27 -8 -18 0 9 -7 19 -13 21 -10 4
-10 6 0 6 6 1 12 8 12 16 0 10 -10 15 -30 15 -28 0 -30 -3 -30 -37 0 -34 -1
-35 -14 -17 -8 10 -10 21 -5 22 5 2 9 10 9 18 0 10 -13 13 -50 13 l-50 -2 0
-35 c0 -40 -16 -34 -22 8 -2 14 -11 26 -20 28 -15 3 -18 -5 -18 -52 l0 -56 79
0 c54 0 81 4 84 13 4 10 6 10 6 0 1 -7 14 -13 30 -13 16 0 32 6 34 13 4 10 6
10 6 0 1 -16 81 -18 81 -3 0 6 -9 10 -20 10 -11 0 -20 5 -20 10 0 6 11 10 25
10 18 0 25 -5 25 -20 0 -15 7 -20 25 -20 25 0 25 1 24 75 -1 72 -2 75 -26 75
-20 0 -23 -4 -18 -20z"/>
<path d="M10160 3329 c0 -71 2 -80 18 -77 9 2 18 13 20 26 2 14 10 22 22 22
10 0 21 6 23 13 4 10 6 10 6 0 1 -9 22 -13 71 -13 l70 0 0 40 c0 22 5 40 10
40 6 0 10 7 10 15 0 10 -10 15 -30 15 -22 0 -30 -5 -30 -17 -1 -17 -1 -17 -11
0 -12 20 -69 23 -87 5 -9 -9 -12 -9 -12 0 0 7 -16 12 -40 12 l-40 0 0 -81z"/>
<path d="M8080 3371 c0 -11 5 -23 10 -26 6 -3 10 -19 10 -36 0 -16 5 -29 10
-29 6 0 10 -11 10 -25 0 -21 5 -25 29 -25 23 0 30 5 34 28 3 15 10 43 15 62 9
33 10 31 11 -27 1 -55 3 -63 20 -63 11 0 22 8 24 18 4 16 5 16 6 0 1 -14 10
-18 41 -18 25 0 40 5 40 13 0 9 2 9 8 1 10 -17 144 -17 154 -1 11 18 10 65 -3
89 -10 18 -17 20 -59 14 -43 -6 -50 -4 -60 15 -10 19 -13 19 -28 6 -9 -9 -33
-17 -52 -19 -27 -2 -36 -8 -41 -28 -7 -24 -7 -24 -9 5 -1 17 -2 38 -1 48 2 14
-6 17 -37 17 -41 0 -42 -1 -62 -70 -7 -23 -8 -23 -9 8 0 17 -5 32 -11 32 -5 0
-10 7 -10 15 0 8 -9 15 -20 15 -13 0 -20 -7 -20 -19z"/>
<path d="M9050 3376 c0 -8 6 -16 13 -19 6 -2 9 -8 4 -12 -4 -5 -20 1 -35 12
l-28 20 -22 -31 c-16 -22 -22 -26 -22 -13 0 24 -65 24 -79 0 -10 -17 -10 -17
-11 0 0 15 -7 18 -42 15 l-43 -3 -3 -57 c-3 -53 -1 -58 18 -58 16 0 20 6 20
35 0 24 5 35 15 35 11 0 15 -11 15 -35 l0 -36 63 3 62 3 6 45 5 45 5 -45 4
-45 48 -3 47 -3 0 80 c0 74 -2 81 -20 81 -11 0 -20 -6 -20 -14z"/>
<path d="M9470 3310 l0 -81 58 3 c56 3 57 3 60 36 3 27 0 32 -17 32 -12 0 -21
5 -21 10 0 6 11 10 25 10 23 0 25 -4 25 -45 0 -43 1 -45 30 -45 20 0 30 5 30
15 0 8 -4 15 -10 15 -5 0 -10 14 -10 30 0 17 5 30 10 30 15 0 12 17 -7 40 -21
25 -43 26 -43 3 0 -15 -10 -18 -55 -20 -30 0 -55 3 -55 8 0 5 5 9 10 9 6 0 10
7 10 15 0 8 -9 15 -20 15 -18 0 -20 -7 -20 -80z"/>
<path d="M9217 3343 c-4 -3 -7 -31 -7 -60 0 -51 2 -54 23 -51 18 2 23 11 28
48 l6 45 1 -47 c2 -40 5 -48 21 -48 11 0 22 6 24 13 4 10 6 10 6 0 1 -8 16
-13 41 -13 l40 0 0 61 0 60 -37 -3 c-34 -3 -38 -6 -38 -30 -1 -15 -4 -30 -8
-34 -4 -4 -7 9 -7 29 0 37 0 37 -43 37 -24 0 -47 -3 -50 -7z"/>
<path d="M18080 3215 c0 -18 5 -25 20 -25 13 0 20 -7 20 -18 0 -10 -9 -24 -20
-32 -11 -8 -20 -25 -20 -37 0 -21 5 -23 50 -23 28 0 50 5 50 10 0 14 48 12 52
-2 3 -7 12 -9 22 -5 14 6 16 18 14 79 -3 71 -4 73 -30 76 -20 2 -28 -1 -28
-12 0 -9 -4 -16 -10 -16 -5 0 -10 -9 -10 -20 0 -11 -4 -20 -10 -20 -5 0 -10
-13 -10 -30 0 -26 -3 -30 -27 -29 -16 0 -22 3 -15 6 6 2 12 11 12 19 0 8 4 14
9 14 11 0 20 46 14 71 -4 15 -14 19 -44 19 -35 0 -39 -3 -39 -25z"/>
<path d="M10953 3196 c-13 -6 -23 -14 -23 -18 0 -5 -5 -8 -11 -8 -12 0 -39
-25 -39 -36 0 -3 -15 -23 -32 -43 -18 -20 -42 -49 -53 -65 -11 -15 -31 -40
-43 -54 -31 -35 -72 -125 -72 -157 0 -14 -4 -25 -10 -25 -5 0 -10 -9 -10 -20
0 -11 5 -20 10 -20 6 0 10 -9 10 -21 0 -24 22 -49 44 -49 9 0 16 -4 16 -10 0
-5 23 -10 50 -10 l50 0 0 39 c0 44 18 185 27 216 5 15 10 8 19 -30 8 -27 14
-60 14 -72 0 -13 5 -23 10 -23 6 0 10 -7 10 -15 0 -21 28 -63 62 -97 42 -40
37 -58 -17 -58 -46 0 -54 -7 -33 -28 9 -9 9 -26 0 -74 -7 -36 -13 -161 -14
-290 -1 -206 -3 -227 -20 -239 -10 -7 -18 -17 -18 -22 0 -4 -9 -18 -21 -30
-11 -12 -28 -35 -36 -52 -9 -16 -24 -37 -34 -46 -11 -9 -19 -21 -19 -28 0 -6
-4 -11 -9 -11 -5 0 -12 -8 -16 -19 -5 -16 -16 -31 -55 -78 -14 -17 -13 -90 3
-96 17 -5 47 3 47 14 0 5 7 9 15 9 8 0 15 5 15 10 0 6 11 22 25 36 14 14 25
29 25 33 0 4 9 19 20 32 31 38 34 42 49 72 8 15 18 27 22 27 3 0 10 -133 14
-295 l7 -295 194 0 194 0 0 35 c0 33 -2 35 -35 35 l-35 0 0 360 c0 207 4 360
9 360 5 0 10 103 10 235 1 154 -2 235 -9 235 -5 0 -10 9 -10 20 0 11 -4 20
-10 20 -5 0 -10 5 -10 11 0 12 -52 63 -78 78 -14 8 -14 10 0 25 9 9 21 16 27
16 6 0 11 5 11 10 0 6 16 10 35 10 33 0 35 2 29 25 -7 29 -7 44 5 155 4 47 12
93 16 103 7 16 -4 17 -144 17 -94 0 -151 4 -151 10 0 6 57 10 150 10 l150 0 0
61 c0 62 -13 89 -44 89 -9 0 -16 4 -16 8 0 29 -216 44 -267 18z m170 -1504 c3
-181 3 -339 0 -350 -3 -14 -13 -22 -28 -22 -21 0 -22 3 -28 158 -4 86 -7 244
-7 350 l0 192 28 0 29 0 6 -328z"/>
<path d="M8740 3010 c0 -81 6 -93 34 -64 14 13 16 13 16 1 0 -13 17 -15 95
-14 l95 2 0 32 c0 23 5 33 15 33 10 0 15 -10 15 -34 0 -33 1 -34 40 -34 l40
-1 0 46 c0 53 10 51 19 -4 4 -24 12 -38 21 -38 11 0 15 13 15 55 l0 55 -47 3
c-41 3 -48 0 -48 -15 -1 -17 -1 -17 -11 0 -12 21 -72 23 -92 2 -13 -13 -16
-13 -21 2 -5 12 -16 14 -51 10 -37 -4 -47 -1 -55 14 -6 10 -17 16 -25 13 -8
-4 -15 -1 -15 5 0 6 -9 11 -20 11 -18 0 -20 -7 -20 -80z"/>
<path d="M9322 2993 l3 -58 48 -3 c33 -2 47 1 47 9 0 10 3 10 12 1 7 -7 26
-12 44 -12 31 0 31 1 33 52 0 32 -4 55 -12 60 -21 13 -56 9 -66 -9 -10 -17
-10 -17 -11 0 0 10 -8 17 -20 17 -17 0 -20 -7 -20 -47 0 -53 -10 -51 -19 4 -4
25 -12 39 -24 41 -16 3 -18 -3 -15 -55z"/>
<path d="M18363 2995 c-19 -20 -23 -35 -23 -95 l0 -70 40 0 c22 0 40 5 40 10
0 6 -9 10 -20 10 -13 0 -20 7 -20 20 0 11 5 20 11 20 7 0 18 8 25 18 12 15 13
11 14 -30 l0 -48 65 0 65 0 0 55 0 55 -45 0 c-25 0 -45 5 -45 10 0 18 -35 11
-50 -10 -17 -23 -40 -27 -40 -6 0 7 10 16 22 19 17 5 19 9 9 20 -6 8 -9 22 -5
31 9 24 -17 19 -43 -9z"/>
<path d="M17500 2905 c0 -68 2 -75 20 -75 16 0 20 7 20 30 0 19 5 30 14 30 7
0 19 -13 26 -30 11 -26 17 -30 52 -30 l39 0 -3 52 c-2 41 -7 54 -20 56 -15 3
-18 -4 -18 -42 0 -25 -4 -46 -10 -46 -5 0 -10 20 -10 45 0 33 -4 45 -14 45 -8
0 -18 -4 -21 -10 -9 -15 -35 -12 -35 4 0 7 9 16 21 19 31 8 13 27 -27 27 l-34
0 0 -75z"/>
<path d="M18090 2960 c0 -12 -7 -20 -16 -20 -21 0 -43 -29 -44 -57 0 -42 10
-53 51 -53 32 0 39 3 39 20 0 11 5 20 10 20 6 0 10 -9 10 -20 0 -17 7 -20 40
-20 22 0 40 5 40 10 0 6 -13 10 -30 10 -16 0 -30 5 -30 10 0 6 11 10 24 10 30
0 40 14 32 46 -5 20 -13 24 -41 24 -28 0 -35 -4 -35 -20 0 -11 -4 -20 -10 -20
-5 0 -10 18 -10 40 0 29 -4 40 -15 40 -8 0 -15 -9 -15 -20z"/>
<path d="M8976 2814 c-3 -9 -6 -47 -6 -85 0 -66 1 -69 24 -69 13 0 27 6 29 13
4 10 6 10 6 0 1 -8 16 -13 39 -13 l38 0 2 55 2 55 -39 0 c-22 0 -42 -5 -44
-12 -3 -7 -6 -2 -7 12 -1 23 -21 60 -33 60 -2 0 -8 -7 -11 -16z"/>
<path d="M9460 2823 c0 -7 -7 -13 -15 -13 -11 0 -15 -14 -16 -57 -1 -33 -4
-45 -6 -28 -3 17 -9 34 -14 40 -5 5 -9 17 -9 27 0 13 -8 18 -30 18 -25 0 -30
-4 -30 -24 0 -14 -4 -27 -9 -30 -5 -3 -11 -18 -13 -33 -3 -16 -9 -36 -13 -45
-6 -15 -2 -18 19 -18 14 0 26 5 26 10 0 6 11 10 25 10 14 0 25 -4 25 -10 0 -5
18 -10 40 -10 l40 0 0 73 c0 39 -5 79 -10 87 -6 10 -10 11 -10 3z"/>
<path d="M8719 2794 c-9 -11 -19 -26 -22 -34 -3 -9 -6 -10 -6 -2 -1 7 -16 12
-41 12 l-40 0 0 -55 0 -55 49 0 c30 0 51 5 54 13 4 10 6 10 6 0 1 -10 27 -13
96 -13 l95 0 0 75 c0 68 -2 75 -20 75 -21 0 -27 -15 -10 -25 6 -4 4 -12 -6
-22 -12 -13 -18 -13 -24 -4 -4 7 -24 12 -46 11 -59 -3 -62 -2 -66 21 -3 21 -3
21 -19 3z"/>
<path d="M9490 2715 l0 -55 45 0 c37 0 45 -3 45 -19 0 -10 7 -22 16 -25 23 -9
24 -8 24 19 0 21 5 25 29 25 17 0 31 6 35 16 10 26 7 69 -6 82 -16 16 -95 16
-101 0 -4 -10 -6 -10 -6 0 -1 7 -16 12 -41 12 l-40 0 0 -55z"/>
<path d="M18320 2605 l0 -75 41 0 c28 0 46 6 55 18 13 16 13 16 14 0 0 -14 9
-18 40 -18 l40 0 0 55 0 55 -38 0 c-26 0 -42 6 -52 20 -11 15 -26 20 -57 20
l-43 0 0 -75z"/>
<path d="M18527 2633 c-4 -3 -7 -28 -7 -55 0 -41 3 -48 20 -48 16 0 20 7 20
35 0 19 5 35 10 35 6 0 10 -16 10 -35 0 -28 4 -35 19 -35 15 0 21 8 24 38 l4
37 1 -37 c2 -30 6 -38 21 -38 11 0 22 6 24 13 4 10 6 10 6 0 1 -9 23 -13 75
-13 59 0 75 3 80 16 9 24 -2 52 -22 57 -14 3 -12 6 8 14 23 10 23 12 6 19 -10
4 -32 2 -47 -3 -16 -7 -29 -7 -29 -2 0 5 -16 9 -35 9 -40 0 -46 -16 -12 -30
12 -5 16 -9 8 -9 -8 -1 -20 -9 -27 -18 -12 -16 -13 -14 -14 20 l0 37 -68 0
c-38 0 -72 -3 -75 -7z"/>
<path d="M18060 2405 l0 -105 -330 0 -330 0 0 -570 0 -570 673 2 672 3 3 568
2 567 -330 0 -330 0 0 105 c0 87 -3 105 -15 105 -12 0 -15 -18 -15 -105z"/>
<path d="M13765 2332 c-29 -21 -49 -102 -25 -102 6 0 10 -9 10 -20 0 -17 7
-20 41 -20 53 0 69 18 69 75 0 27 -6 52 -14 61 -15 15 -64 19 -81 6z"/>
<path d="M14226 2318 c-19 -27 -20 -67 -4 -103 9 -21 18 -25 53 -25 35 0 44 4
53 25 7 14 12 37 12 50 0 13 -5 36 -12 50 -15 34 -79 36 -102 3z"/>
<path d="M8486 2243 c-3 -4 -6 -17 -6 -30 0 -18 -6 -23 -24 -23 -25 0 -34 -26
-28 -82 3 -25 7 -28 41 -28 20 0 43 6 50 13 11 10 14 10 18 0 3 -8 22 -13 45
-13 47 0 48 21 2 31 l-29 7 27 1 c33 1 42 14 34 47 -5 20 -13 24 -41 24 -19 0
-35 -4 -35 -10 0 -5 -4 -10 -10 -10 -5 0 -10 12 -10 26 0 26 -23 58 -34 47z"/>
<path d="M9180 2165 c0 -85 4 -96 29 -72 11 10 14 10 18 0 7 -19 83 -17 83 2
0 9 -10 16 -27 17 -16 1 -4 4 26 7 59 7 84 31 32 31 -24 0 -31 4 -31 20 0 17
-7 20 -40 20 -22 0 -40 -4 -40 -10 0 -5 -4 -10 -10 -10 -5 0 -10 11 -10 24 0
31 -10 56 -21 56 -5 0 -9 -38 -9 -85z"/>
<path d="M8000 2210 c-10 -14 -26 -20 -51 -20 -27 0 -39 -5 -42 -17 -4 -17 -5
-17 -6 0 -1 10 -9 17 -21 17 -18 0 -20 -7 -20 -55 0 -48 3 -55 19 -55 11 0 22
6 24 13 4 10 6 10 6 0 1 -8 16 -13 40 -13 22 0 42 6 45 13 5 10 7 10 12 0 7
-15 44 -18 44 -4 0 6 -4 13 -10 16 -14 9 -12 48 3 64 10 11 10 14 0 18 -7 3
-13 13 -13 24 0 25 -12 24 -30 -1z"/>
<path d="M9590 2210 c-11 -15 -26 -20 -57 -20 l-43 0 0 -55 c0 -30 5 -55 10
-55 6 0 10 18 10 40 0 29 4 40 15 40 11 0 15 -11 15 -40 0 -32 4 -40 18 -40
10 0 23 5 30 12 9 9 12 9 12 0 0 -16 37 -15 43 1 4 10 6 10 6 0 1 -19 81 -17
81 1 0 8 -12 17 -27 19 l-28 4 28 2 c24 1 27 5 27 36 0 34 -1 35 -40 35 -22 0
-40 -5 -40 -11 0 -6 -7 -4 -15 5 -8 8 -15 22 -15 30 0 22 -13 20 -30 -4z"/>
<path d="M9860 2210 c-11 -15 -26 -20 -62 -20 l-48 0 0 -56 c0 -47 3 -55 18
-52 12 2 18 14 20 41 5 53 32 51 32 -3 0 -57 20 -50 22 8 1 39 2 41 5 13 7
-51 51 -83 67 -48 5 10 7 10 12 0 3 -7 23 -13 46 -13 47 0 48 21 2 31 l-29 7
27 1 c33 1 42 14 34 47 -5 20 -13 24 -41 24 -19 0 -35 -4 -35 -10 0 -21 -18
-9 -30 20 -15 35 -21 37 -40 10z"/>
<path d="M14460 1987 c0 -32 -1 -33 -35 -29 -27 3 -35 1 -35 -12 0 -9 -4 -16
-10 -16 -5 0 -10 -22 -10 -50 0 -27 5 -50 10 -50 6 0 10 -7 10 -15 0 -13 10
-15 48 -13 l47 3 3 108 c2 91 0 107 -13 107 -10 0 -15 -10 -15 -33z"/>
<path d="M15512 1995 c-7 -14 -12 -32 -12 -40 0 -17 43 -65 58 -65 8 0 22 -22
22 -36 0 -10 -59 -3 -63 9 -2 6 -8 -1 -12 -16 -10 -38 3 -49 56 -45 34 2 46 8
55 27 l12 24 4 -24 c3 -22 8 -24 61 -27 57 -3 87 10 87 37 0 6 5 11 10 11 6 0
10 27 10 60 0 52 -4 65 -25 86 -22 22 -32 25 -83 22 l-57 -3 -3 -62 -3 -61
-36 36 -35 37 31 3 c25 3 31 8 31 28 0 22 -4 24 -48 24 -43 0 -50 -3 -60 -25z"/>
<path d="M15814 2007 c-3 -8 -3 -56 -2 -108 3 -89 4 -94 26 -97 21 -3 22 0 23
65 1 37 4 58 6 46 2 -13 9 -23 14 -23 5 0 9 -9 9 -20 0 -11 5 -20 10 -20 6 0
10 -11 10 -25 0 -21 5 -25 30 -25 l30 0 0 110 0 110 -25 0 c-23 0 -25 -4 -26
-52 -1 -29 -4 -43 -6 -30 -2 12 -8 22 -12 22 -5 0 -11 14 -14 30 -6 25 -11 30
-37 30 -17 0 -33 -6 -36 -13z"/>
<path d="M9557 1982 c-9 -10 -17 -23 -17 -29 0 -14 -40 -24 -68 -16 -20 5 -22
2 -22 -31 0 -25 -4 -36 -15 -36 -10 0 -15 11 -15 35 0 38 -10 44 -33 20 -13
-13 -16 -13 -21 0 -6 17 -76 21 -76 5 0 -5 -4 -10 -10 -10 -5 0 -10 14 -10 30
0 27 -3 30 -30 30 -26 0 -31 -5 -44 -47 -12 -38 -15 -42 -15 -20 -1 15 -5 27
-11 27 -5 0 -10 9 -10 21 0 16 -5 20 -27 17 -28 -3 -28 -4 -28 -78 0 -68 2
-75 20 -75 12 0 22 9 26 25 l7 25 1 -27 c1 -20 6 -28 19 -28 20 0 39 29 45 70
2 14 5 4 6 -22 1 -50 14 -60 40 -35 11 10 14 10 18 0 7 -19 72 -16 79 2 8 19
34 20 34 0 0 -11 17 -14 93 -12 l92 2 3 73 c3 87 -6 112 -31 84z"/>
<path d="M8052 1968 c-7 -7 -12 -19 -12 -27 0 -9 -7 -36 -16 -60 -12 -36 -13
-46 -2 -52 18 -12 24 -11 38 6 16 19 40 19 40 1 0 -11 12 -15 40 -14 39 0 40
1 40 34 0 46 27 47 32 2 2 -22 9 -34 21 -36 13 -3 17 4 19 35 1 35 1 36 5 6 7
-55 52 -55 54 0 l2 32 6 -35 c4 -22 12 -36 24 -38 16 -3 18 3 15 55 l-3 58
-105 0 c-101 0 -105 -1 -108 -22 -5 -34 -22 -28 -22 7 0 17 -4 30 -10 30 -5 0
-10 7 -10 15 0 18 -31 20 -48 3z"/>
<path d="M8570 1955 c0 -18 -4 -23 -15 -19 -8 4 -15 12 -15 20 0 20 -18 17
-31 -4 -8 -13 -20 -17 -45 -14 -33 4 -34 3 -34 -32 0 -25 4 -36 15 -36 8 0 15
-4 15 -10 0 -5 -7 -10 -15 -10 -8 0 -15 -7 -15 -15 0 -21 48 -20 72 2 16 14
18 15 18 0 0 -21 79 -22 87 -1 7 18 23 18 23 -1 0 -11 15 -14 68 -14 37 0 75
3 85 6 28 7 20 23 -13 23 -16 0 -30 5 -30 10 0 6 14 10 30 10 22 0 30 5 30 18
-1 38 -22 50 -98 50 -72 1 -72 1 -72 -26 l-1 -27 -14 25 c-7 14 -11 35 -8 48
4 17 1 22 -16 22 -16 0 -21 -6 -21 -25z"/>
<path d="M14720 1848 c0 -65 4 -108 10 -108 6 0 10 14 10 30 0 27 3 30 31 30
41 0 58 24 59 78 0 67 -12 82 -65 80 l-45 -2 0 -108z"/>
<path d="M9683 1933 c-8 -3 -13 -24 -13 -53 0 -57 2 -58 103 -58 49 0 67 3 67
13 0 7 6 15 13 18 8 3 4 12 -13 27 -17 15 -21 24 -12 27 25 9 12 33 -18 33
-21 0 -30 -5 -30 -16 0 -14 -1 -14 -16 0 -15 15 -55 20 -81 9z"/>
<path d="M8792 1662 c2 -11 0 -20 -4 -20 -20 -5 -28 -1 -28 13 0 8 -3 15 -6
15 -10 0 -32 -26 -37 -46 -4 -16 -5 -16 -6 -1 -1 13 -10 17 -41 17 l-40 0 0
-60 0 -60 34 0 c19 0 41 7 50 15 18 19 26 19 26 1 0 -21 77 -19 90 3 9 15 11
15 20 -1 13 -22 68 -24 76 -3 5 13 8 13 21 0 22 -23 33 -18 33 16 0 17 7 37
15 45 13 14 15 11 15 -24 0 -43 6 -53 26 -45 17 6 19 65 4 94 -12 21 -58 26
-90 9 -13 -7 -21 -7 -25 0 -3 5 -21 10 -40 10 -27 0 -34 -4 -38 -22 -3 -22 -4
-22 -12 -3 -5 11 -13 23 -19 27 -7 5 -7 8 2 8 6 0 12 7 12 15 0 8 -9 15 -21
15 -14 0 -19 -5 -17 -18z"/>
<path d="M9213 1655 c-5 -7 -28 -15 -53 -17 -38 -3 -46 -7 -54 -30 -12 -35 3
-81 27 -86 10 -2 29 -1 43 2 20 5 24 13 26 49 l1 42 6 -45 c4 -33 11 -46 25
-48 22 -5 48 18 29 25 -7 3 -13 18 -13 34 0 22 5 29 20 29 17 0 20 -7 20 -44
l0 -43 58 -1 c90 -1 93 1 90 61 l-3 52 -46 1 c-25 1 -58 9 -72 19 -24 16 -27
16 -27 1 0 -9 -8 -16 -20 -16 -11 0 -20 4 -20 9 0 16 -29 21 -37 6z"/>
<path d="M8240 1623 c0 -20 23 -89 32 -99 4 -3 16 -3 27 1 15 4 21 15 21 36 0
16 4 29 9 29 5 0 8 -15 7 -32 -1 -31 1 -33 35 -36 23 -2 42 3 52 12 13 14 16
14 21 1 6 -17 51 -20 61 -5 3 5 1 18 -4 27 -6 10 -11 12 -11 6 0 -28 -20 -11
-20 17 0 24 4 30 17 28 10 -2 19 4 21 15 3 13 -3 17 -27 17 -18 0 -34 -7 -41
-17 -10 -17 -10 -17 -20 0 -8 13 -24 17 -65 17 -51 0 -54 -1 -57 -27 l-4 -28
-12 28 c-13 30 -42 37 -42 10z"/>
<path d="M9452 1583 c2 -46 7 -59 21 -61 14 -3 17 5 19 45 l1 48 6 -45 c5 -36
10 -45 26 -45 16 0 21 9 26 45 l5 45 5 -45 c3 -33 9 -46 22 -48 16 -3 18 3 15
55 l-3 58 -73 3 -73 3 3 -58z"/>
<path d="M9619 1638 c0 -2 -1 -28 -2 -58 l-2 -55 65 0 65 0 6 45 6 45 1 -41
c2 -29 7 -44 19 -48 26 -10 34 7 31 60 l-3 49 -47 3 c-41 3 -48 0 -48 -15 -1
-17 -1 -17 -11 0 -6 11 -22 17 -44 17 -19 0 -35 -1 -36 -2z"/>
<path d="M13790 1613 c-8 -4 -20 -12 -27 -19 -15 -15 -17 -64 -3 -64 6 0 10
-5 10 -11 0 -14 25 -39 39 -39 6 0 11 -10 11 -21 0 -19 -4 -21 -35 -16 -32 5
-35 4 -35 -19 0 -22 4 -24 49 -24 54 0 61 8 61 67 0 31 -18 63 -35 63 -8 0
-35 26 -35 34 0 3 16 6 35 6 28 0 35 4 35 19 0 24 -37 36 -70 24z"/>
<path d="M14706 1613 c-3 -4 -6 -19 -6 -35 0 -25 -4 -28 -31 -28 -42 0 -59
-21 -59 -73 0 -72 4 -77 71 -77 l59 0 0 104 c0 80 -3 105 -14 109 -8 3 -17 3
-20 0z"/>
<path d="M13450 1505 l0 -105 49 0 c30 0 51 5 54 13 4 10 6 10 6 0 1 -9 18
-13 51 -13 l50 0 0 75 0 75 -49 0 c-35 0 -51 -4 -55 -16 -10 -25 -8 -27 29
-20 28 6 35 4 35 -9 0 -9 -9 -15 -23 -15 -15 0 -29 -9 -37 -25 -10 -19 -21
-25 -39 -23 -25 3 -26 5 -29 86 -3 74 -5 82 -22 82 -19 0 -20 -7 -20 -105z"/>
<path d="M15610 1580 c0 -24 -4 -30 -21 -30 -42 0 -64 -54 -47 -116 9 -33 10
-34 63 -34 l55 0 0 105 0 105 -25 0 c-21 0 -25 -5 -25 -30z"/>
<path d="M16340 1580 c0 -27 -3 -30 -33 -30 -39 0 -57 -27 -57 -86 0 -49 19
-64 79 -64 l51 0 0 105 c0 98 -1 105 -20 105 -16 0 -20 -7 -20 -30z"/>
<path d="M14190 1530 c0 -11 -4 -20 -10 -20 -5 0 -10 -16 -10 -35 0 -19 5 -35
10 -35 6 0 10 -9 10 -20 0 -18 7 -20 55 -20 48 0 55 2 55 20 0 13 -7 20 -20
20 -11 0 -20 -4 -20 -10 0 -17 -25 -11 -38 10 -11 19 -10 20 33 20 43 0 45 2
45 28 -1 43 -22 62 -69 62 -34 0 -41 -3 -41 -20z"/>
<path d="M15820 1459 c0 -50 5 -99 10 -109 15 -27 40 -14 40 21 0 24 4 29 26
29 38 0 54 22 54 75 0 27 -6 52 -14 61 -18 17 -63 18 -69 2 -4 -10 -6 -10 -6
0 -1 6 -10 12 -21 12 -19 0 -20 -7 -20 -91z"/>
<path d="M8176 1404 c-3 -9 -6 -47 -6 -85 l0 -69 70 0 70 0 0 33 c0 66 -8 77
-56 77 -33 0 -44 4 -44 16 0 8 -6 22 -14 29 -12 12 -15 12 -20 -1z"/>
<path d="M9016 1404 c-3 -9 -6 -47 -6 -85 0 -66 1 -69 24 -69 13 0 27 6 29 13
4 10 6 10 6 0 1 -8 16 -13 42 -13 45 0 50 19 8 31 -21 6 -21 7 9 8 33 1 37 8
26 49 -5 18 -13 22 -44 22 -28 0 -40 -5 -43 -17 -3 -10 -5 -4 -6 14 -1 42 -10
63 -26 63 -7 0 -16 -7 -19 -16z"/>
<path d="M9483 1405 c-7 -8 -13 -27 -14 -42 0 -15 -3 -22 -6 -15 -3 8 -30 12
-84 12 l-79 0 0 -55 c0 -52 1 -55 24 -55 21 0 25 5 28 37 4 52 28 56 28 4 l0
-41 94 0 c66 0 96 4 99 13 4 10 6 10 6 0 1 -7 10 -13 21 -13 19 0 20 6 19 75
-1 68 -3 75 -21 75 -15 0 -19 -5 -15 -19 2 -10 1 -25 -4 -32 -6 -10 -9 -11 -9
-1 0 7 -13 12 -30 12 -27 0 -30 3 -30 30 0 33 -8 37 -27 15z"/>
<path d="M7970 1380 c0 -14 -7 -20 -24 -20 -28 0 -36 -16 -36 -71 l0 -39 49 0
c30 0 51 5 54 13 4 10 6 10 6 0 1 -19 81 -17 81 1 0 8 -10 17 -22 19 -17 3
-14 5 10 6 25 1 32 5 32 21 0 11 -4 20 -10 20 -5 0 -10 7 -10 15 0 22 -66 20
-79 -2 -8 -15 -10 -11 -11 20 0 30 -4 37 -20 37 -13 0 -20 -7 -20 -20z"/>
<path d="M8675 1380 c6 -18 2 -20 -49 -20 l-56 0 0 -55 c0 -48 2 -55 20 -55
15 0 20 7 20 28 0 15 5 34 10 42 7 11 10 4 10 -27 l0 -43 40 0 40 0 0 75 c0
69 -2 75 -21 75 -16 0 -19 -4 -14 -20z"/>
<path d="M8830 1326 c0 -24 5 -36 18 -39 16 -4 16 -5 0 -6 -10 0 -18 -8 -18
-16 0 -12 16 -15 85 -15 l85 0 0 55 c0 48 -3 55 -19 55 -16 0 -21 -8 -24 -42
l-4 -43 -1 43 -2 42 -60 0 -60 0 0 -34z"/>
<path d="M9740 1305 l0 -55 49 0 c30 0 51 5 54 13 4 10 6 10 6 0 1 -8 16 -13
41 -13 l40 0 0 55 0 55 -39 0 c-22 0 -42 -5 -44 -12 -4 -10 -6 -10 -6 0 -1 6
-10 12 -21 12 -17 0 -20 -7 -20 -42 0 -32 -3 -39 -10 -28 -5 8 -10 27 -10 43
0 20 -5 27 -20 27 -18 0 -20 -7 -20 -55z"/>
</g>
</svg>
