<?xml version="1.0" standalone="no"?>
<!DOCTYPE svg PUBLIC "-//W3C//DTD SVG 20010904//EN"
 "http://www.w3.org/TR/2001/REC-SVG-20010904/DTD/svg10.dtd">
<svg version="1.0" xmlns="http://www.w3.org/2000/svg"
 width="730.000000pt" height="833.000000pt" viewBox="0 0 730.000000 833.000000"
 preserveAspectRatio="xMidYMid meet">
<metadata>
Created by potrace 1.15, written by Peter Selinger 2001-2017
</metadata>
<g transform="translate(0.000000,833.000000) scale(0.100000,-0.100000)"
fill="#000000" stroke="none">
<path d="M0 8297 c0 -18 7 -111 15 -207 13 -163 65 -789 185 -2265 28 -335 59
-718 70 -850 20 -241 121 -1466 205 -2505 113 -1372 133 -1611 136 -1615 14
-13 3056 -856 3078 -853 34 6 2954 848 2960 853 5 6 -7 -131 186 2085 25 283
61 693 80 910 42 477 104 1187 230 2635 53 600 107 1216 120 1370 14 154 28
324 32 378 l6 97 -3651 0 -3652 0 0 -33z m5918 -2009 l-3 -442 -1052 -431
c-578 -237 -1055 -434 -1059 -438 -4 -4 433 -7 970 -7 l978 0 -6 -47 c-7 -52
-223 -2533 -233 -2671 -5 -75 -8 -85 -29 -92 -74 -28 -1796 -560 -1813 -560
-21 0 -1902 518 -1910 526 -5 5 -120 1320 -121 1382 l0 42 440 0 c344 0 442
-3 445 -12 2 -7 22 -163 43 -346 22 -183 41 -334 43 -336 2 -3 220 -59 484
-125 l480 -121 535 101 c294 55 537 103 539 105 5 5 120 1143 121 1192 l0 32
-1588 0 -1589 0 -60 423 c-50 344 -59 424 -48 433 7 5 491 217 1074 470 583
252 1061 462 1061 467 0 4 -492 7 -1094 7 l-1094 0 -6 33 c-6 34 -116 841
-116 851 0 3 1037 6 2305 6 l2305 0 -2 -442z"/>
</g>
</svg>
