<?xml version="1.0" standalone="no"?>
<!DOCTYPE svg PUBLIC "-//W3C//DTD SVG 20010904//EN"
 "http://www.w3.org/TR/2001/REC-SVG-20010904/DTD/svg10.dtd">
<svg version="1.0" xmlns="http://www.w3.org/2000/svg"
 width="1600.000000pt" height="1816.000000pt" viewBox="0 0 1600.000000 1816.000000"
 preserveAspectRatio="xMidYMid meet">
<metadata>
Created by potrace 1.15, written by Peter Selinger 2001-2017
</metadata>
<g transform="translate(0.000000,1816.000000) scale(0.100000,-0.100000)"
fill="#000000" stroke="none">
<path d="M0 18128 c0 -58 1449 -16280 1454 -16286 9 -9 6507 -1842 6529 -1842
24 0 6553 1833 6562 1842 6 6 1455 16225 1455 16286 l0 32 -8000 0 -8000 0 0
-32z m13015 -3311 c8 -9 -44 -630 -89 -1070 -30 -292 -60 -590 -65 -662 -6
-71 -14 -156 -17 -187 l-6 -58 -3829 0 -3829 0 0 -27 c0 -16 38 -470 85 -1010
47 -540 85 -991 85 -1003 l0 -20 3655 0 c2687 0 3655 -3 3655 -11 0 -6 -16
-129 -35 -273 -23 -176 -110 -1120 -265 -2896 -126 -1449 -237 -2714 -247
-2811 l-17 -176 -2005 -553 c-1103 -304 -2027 -560 -2053 -568 l-46 -14 -2059
567 c-1132 312 -2059 568 -2060 569 -1 1 -56 693 -122 1536 -66 844 -122 1552
-125 1573 l-4 37 988 0 989 0 5 -32 c3 -18 35 -375 72 -793 37 -418 68 -762
70 -764 6 -6 2216 -601 2235 -601 20 0 2226 594 2234 602 3 2 59 569 125 1259
66 690 122 1271 125 1291 l5 38 -3477 2 -3477 3 -248 2755 c-136 1515 -255
2878 -265 3027 l-18 273 2500 2 c2577 3 7527 0 7530 -5z"/>
</g>
</svg>
