<?xml version="1.0" standalone="no"?>
<!DOCTYPE svg PUBLIC "-//W3C//DTD SVG 20010904//EN"
 "http://www.w3.org/TR/2001/REC-SVG-20010904/DTD/svg10.dtd">
<svg version="1.0" xmlns="http://www.w3.org/2000/svg"
 width="602.000000pt" height="681.000000pt" viewBox="0 0 602.000000 681.000000"
 preserveAspectRatio="xMidYMid meet">
<metadata>
Created by potrace 1.15, written by Peter Selinger 2001-2017
</metadata>
<g transform="translate(0.000000,681.000000) scale(0.100000,-0.100000)"
fill="#000000" stroke="none">
<path d="M42 6802 l-44 -3 6 -47 c3 -26 10 -105 16 -177 28 -349 114 -1369
140 -1675 55 -630 70 -798 165 -1850 99 -1084 108 -1191 178 -1929 l42 -444
25 -8 c14 -4 126 -35 250 -69 227 -62 735 -205 930 -261 58 -17 159 -46 225
-64 66 -19 302 -86 525 -150 223 -64 432 -119 466 -122 51 -5 84 1 205 35 79
23 250 71 379 107 129 37 339 96 465 131 127 36 302 85 390 110 88 25 189 54
225 64 36 11 133 38 215 61 83 23 213 59 290 81 77 22 181 51 230 65 50 14 91
26 93 28 2 1 12 108 23 236 31 369 136 1592 144 1674 10 106 26 293 55 615 55
624 110 1241 215 2399 58 635 105 1165 105 1177 l0 24 -2957 -2 c-1627 -1
-2978 -4 -3001 -6z m2696 -1317 c1 -1 2 -897 2 -1991 0 -1094 0 -1992 0 -1996
0 -9 -308 72 -760 199 -206 58 -404 113 -440 123 -36 9 -117 31 -180 49 -63
17 -164 44 -225 60 l-110 28 -7 64 c-4 35 -10 191 -14 347 -6 253 -5 282 9
282 30 0 523 -129 837 -219 173 -49 317 -87 320 -84 3 2 5 521 5 1151 0 631 1
1339 3 1574 l2 428 278 -6 c152 -4 278 -8 280 -9z m2414 -45 c-4 -87 -61 -652
-67 -658 -1 -1 -286 -2 -634 -2 l-631 0 0 -525 0 -525 28 0 c51 0 528 53 772
85 148 20 388 40 395 33 3 -3 1 -54 -4 -114 -23 -242 -42 -515 -36 -524 3 -5
1 -17 -4 -27 -5 -10 -15 -90 -20 -178 -9 -132 -27 -366 -56 -740 -13 -180 -27
-304 -36 -326 -12 -31 -46 -51 -129 -74 -36 -9 -94 -26 -130 -36 -36 -10 -105
-28 -155 -39 -49 -12 -97 -24 -105 -27 -8 -3 -22 -7 -30 -8 -8 -2 -82 -21
-165 -43 -278 -73 -589 -153 -670 -172 -44 -10 -107 -25 -140 -34 -112 -29
-101 -67 -95 336 l5 353 120 30 c66 17 126 34 133 39 7 4 16 6 18 3 3 -3 44 6
92 20 48 14 112 31 142 39 30 7 123 31 205 53 83 22 216 57 296 78 l146 38 7
135 c4 74 9 209 12 299 l5 163 -38 -7 c-59 -12 -206 -38 -468 -84 -132 -23
-259 -46 -282 -51 -37 -9 -81 -16 -298 -50 -33 -5 -68 -10 -77 -10 -17 0 -18
69 -18 1304 l0 1303 957 -1 957 -1 -2 -55z"/>
</g>
</svg>
