<?xml version="1.0" standalone="no"?>
<!DOCTYPE svg PUBLIC "-//W3C//DTD SVG 20010904//EN"
 "http://www.w3.org/TR/2001/REC-SVG-20010904/DTD/svg10.dtd">
<svg version="1.0" xmlns="http://www.w3.org/2000/svg"
 width="720.000000pt" height="720.000000pt" viewBox="0 0 720.000000 720.000000"
 preserveAspectRatio="xMidYMid meet">
<metadata>
Created by potrace 1.15, written by Peter Selinger 2001-2017
</metadata>
<g transform="translate(0.000000,720.000000) scale(0.100000,-0.100000)"
fill="#000000" stroke="none">
<path d="M3250 7069 c-1106 -58 -2022 -433 -2257 -926 -73 -152 -67 -8 -70
-1732 l-4 -1554 -115 -110 c-195 -187 -306 -347 -379 -547 -39 -109 -56 -210
-56 -335 -1 -307 138 -596 413 -860 502 -484 1334 -795 2373 -886 183 -16 710
-16 900 0 1049 88 1914 416 2405 911 182 184 302 381 357 585 23 87 26 120 27
250 0 133 -3 161 -27 250 -67 245 -229 485 -463 687 l-94 81 0 1531 c0 1703 5
1579 -69 1731 -291 592 -1574 995 -2941 924z m-1817 -1485 c261 -236 749 -416
1367 -503 295 -41 376 -46 785 -46 406 0 533 8 820 51 592 87 1070 266 1317
493 l66 61 102 0 101 0 -18 -31 c-10 -17 -43 -59 -73 -94 -271 -311 -904 -546
-1700 -630 -229 -24 -591 -38 -825 -31 -911 25 -1727 266 -2068 610 -55 56
-127 151 -127 168 0 5 43 8 96 8 l96 0 61 -56z"/>
</g>
</svg>
