<?xml version="1.0" standalone="no"?>
<!DOCTYPE svg PUBLIC "-//W3C//DTD SVG 20010904//EN"
 "http://www.w3.org/TR/2001/REC-SVG-20010904/DTD/svg10.dtd">
<svg version="1.0" xmlns="http://www.w3.org/2000/svg"
 width="512.000000pt" height="512.000000pt" viewBox="0 0 512.000000 512.000000"
 preserveAspectRatio="xMidYMid meet">
<metadata>
Created by potrace 1.15, written by Peter Selinger 2001-2017
</metadata>
<g transform="translate(0.000000,512.000000) scale(0.100000,-0.100000)"
fill="#000000" stroke="none">
<path d="M2260 4689 c-343 -28 -724 -131 -948 -256 -145 -81 -299 -217 -354
-313 -61 -106 -58 -15 -58 -1621 0 -1412 1 -1470 19 -1528 25 -82 67 -145 148
-223 89 -84 171 -139 307 -203 478 -226 1227 -296 1838 -170 l66 14 92 -40
c153 -66 240 -83 420 -83 167 -1 256 15 392 71 406 165 660 595 612 1038 l-8
80 -7 -150 c-8 -173 -33 -274 -101 -409 -43 -87 -112 -189 -148 -221 -13 -11
-4 5 19 35 80 105 168 313 190 450 15 92 14 265 -3 352 -54 280 -236 529 -486
665 -38 21 -70 44 -70 51 0 9 7 11 20 7 20 -6 20 -2 20 863 0 948 2 919 -58
1022 -55 96 -209 232 -354 313 -231 129 -605 228 -972 257 -149 12 -424 11
-576 -1z m775 -78 c365 -56 667 -164 864 -311 94 -70 152 -135 194 -220 28
-58 32 -74 32 -150 0 -74 -4 -93 -31 -151 -240 -506 -1538 -733 -2458 -428
-310 103 -528 255 -609 426 -28 60 -32 78 -32 153 0 76 4 92 32 150 42 85 100
150 194 220 200 149 509 259 865 309 213 30 201 29 519 26 236 -2 316 -7 430
-24z m-1924 -1015 c103 -111 283 -219 477 -286 73 -26 91 -36 94 -54 3 -18 12
-22 58 -28 34 -4 57 -3 61 4 4 7 31 5 80 -7 186 -42 331 -57 604 -62 302 -6
482 8 707 53 122 25 127 25 147 8 12 -10 21 -24 21 -30 0 -28 -349 -89 -607
-106 -304 -20 -669 14 -956 88 -56 14 -119 30 -139 35 -47 11 -222 81 -291
115 -94 47 -211 131 -274 196 l-61 65 -7 -91 c-4 -50 -5 -203 -3 -341 3 -245
4 -251 29 -306 14 -30 55 -86 90 -125 l63 -69 -68 65 c-48 46 -78 86 -104 139
l-37 75 -2 425 -3 426 31 -63 c17 -35 57 -91 90 -126z m7 -918 c233 -242 677
-392 1265 -429 292 -18 647 13 920 80 l118 28 -3 -35 -3 -36 -135 -33 c-245
-60 -401 -77 -700 -78 -272 0 -392 9 -590 47 -436 82 -726 209 -899 394 l-71
76 0 -324 c0 -394 3 -410 106 -548 l26 -35 -32 35 c-56 62 -93 121 -112 182
-16 54 -18 99 -18 466 l0 407 30 -64 c19 -39 55 -89 98 -133z m2202 -490 c0
-7 -28 -31 -62 -52 -222 -142 -395 -417 -424 -677 -5 -42 -11 -59 -21 -59 -12
0 -14 10 -8 53 39 283 197 541 428 695 43 29 81 52 83 52 2 0 4 -6 4 -12z
m-2250 -369 c131 -180 465 -347 842 -424 226 -45 372 -59 657 -59 l263 -1 -5
-49 c-4 -45 3 -131 17 -226 3 -19 -3 -5 -13 32 -10 37 -22 91 -25 120 l-7 53
-182 -3 c-299 -6 -544 22 -835 93 -347 86 -605 225 -735 395 l-27 35 0 -332
c0 -295 2 -338 19 -391 10 -33 29 -75 42 -94 21 -30 21 -31 2 -15 -11 10 -36
48 -54 85 l-34 67 -2 430 c-2 416 -2 429 15 387 9 -23 37 -70 62 -103z m3033
-397 c81 -46 146 -89 145 -93 -2 -5 -166 -103 -365 -218 l-363 -209 0 429 0
428 218 -126 c119 -69 284 -164 365 -211z"/>
<path d="M3164 4506 l-61 -53 -64 8 c-164 20 -353 11 -509 -22 -52 -12 -107
-21 -122 -22 -14 -1 -24 -5 -21 -9 2 -5 -20 -8 -50 -8 -30 0 -76 -7 -103 -15
-27 -8 -66 -15 -86 -15 -36 0 -52 -14 -25 -23 6 -2 -33 -7 -88 -11 -55 -4
-118 -11 -140 -15 -39 -8 -39 -8 -13 -15 16 -5 25 -12 22 -17 -3 -5 3 -9 13
-10 10 -1 -47 -12 -127 -26 -96 -16 -189 -25 -275 -26 -128 -2 -131 -1 -199
31 l-69 32 -23 -21 -24 -22 39 -29 c22 -16 69 -63 105 -106 62 -73 64 -77 41
-80 -24 -3 -24 -4 -9 -28 11 -16 12 -24 4 -24 -7 0 -9 -8 -5 -20 3 -11 2 -20
-4 -20 -6 0 -7 -11 -2 -27 5 -16 7 -37 5 -47 -3 -20 40 -136 54 -145 4 -4 18
-23 30 -43 35 -57 78 -89 194 -143 59 -27 108 -53 108 -57 0 -4 -21 -20 -47
-35 l-47 -27 60 -18 c365 -110 878 -136 1328 -68 699 107 1124 416 1006 733
-70 186 -337 361 -709 463 -69 19 -125 34 -125 34 -1 0 -29 -24 -62 -54z"/>
</g>
</svg>
