<?xml version="1.0" standalone="no"?>
<!DOCTYPE svg PUBLIC "-//W3C//DTD SVG 20010904//EN"
 "http://www.w3.org/TR/2001/REC-SVG-20010904/DTD/svg10.dtd">
<svg version="1.0" xmlns="http://www.w3.org/2000/svg"
 width="563.000000pt" height="678.000000pt" viewBox="0 0 563.000000 678.000000"
 preserveAspectRatio="xMidYMid meet">
<metadata>
Created by potrace 1.15, written by Peter Selinger 2001-2017
</metadata>
<g transform="translate(0.000000,678.000000) scale(0.100000,-0.100000)"
fill="#000000" stroke="none">
<path d="M0 4013 l0 -2767 26 52 c30 61 68 96 144 131 50 24 66 26 180 26 157
0 180 -6 180 -44 0 -16 -9 -39 -19 -52 -18 -23 -26 -24 -128 -24 -90 0 -115
-3 -148 -21 -103 -53 -114 -172 -25 -248 18 -14 86 -54 153 -88 199 -101 267
-186 267 -333 0 -98 -23 -160 -84 -220 -78 -78 -139 -99 -296 -99 -156 -1
-240 20 -240 59 0 38 21 75 46 81 13 3 54 -1 93 -10 88 -20 114 -20 182 0 115
34 173 138 134 239 -22 60 -66 93 -212 166 -136 67 -201 118 -231 181 l-21 43
-1 -542 0 -543 353 0 352 0 2 42 c3 50 26 78 65 78 72 0 133 54 164 143 l16
46 -146 400 c-80 221 -146 403 -146 406 0 3 30 5 66 5 101 0 102 -2 209 -337
50 -156 92 -283 95 -283 3 0 49 133 104 295 111 335 106 328 203 323 l60 -3
-167 -460 c-92 -253 -175 -476 -184 -495 -31 -60 -84 -117 -128 -139 l-43 -21
2035 0 2036 0 -4 33 c-5 45 29 87 70 87 49 0 98 30 129 79 58 91 63 68 -97
507 -79 218 -144 400 -144 405 0 5 29 9 64 9 101 0 99 2 207 -333 51 -158 96
-284 100 -280 3 5 48 134 99 287 64 192 100 287 116 303 19 19 34 23 84 23
l60 0 0 2830 0 2830 -1327 -1 c-831 -1 -1302 -5 -1258 -10 573 -74 1110 -361
1481 -792 294 -342 482 -753 550 -1202 25 -163 25 -493 0 -659 -153 -1039
-953 -1839 -1992 -1992 -166 -25 -496 -25 -659 0 -515 78 -972 309 -1337 677
-361 366 -593 849 -658 1369 -15 127 -12 440 5 577 55 416 207 783 468 1128
78 102 269 298 372 382 342 276 741 449 1170 507 88 12 -56 14 -1172 15
l-1273 1 0 -2767z m3220 -2563 c0 -51 -27 -80 -74 -80 -96 0 -128 -38 -134
-162 l-4 -88 101 0 101 0 0 -44 c0 -66 -30 -86 -126 -86 l-74 0 0 -304 c0
-356 3 -346 -93 -354 l-57 -4 0 330 0 330 -76 4 c-90 4 -114 23 -114 89 l0 39
95 0 95 0 0 83 c0 109 21 178 69 226 47 47 85 59 199 60 l92 1 0 -40z m-1217
-339 c28 -14 59 -40 77 -65 l30 -42 54 52 c57 56 124 84 196 84 57 0 137 -28
176 -62 79 -70 94 -142 94 -464 0 -278 0 -278 -96 -279 l-59 0 -5 285 c-4 253
-7 289 -24 323 -22 44 -60 67 -111 67 -75 0 -127 -39 -167 -125 -21 -46 -23
-68 -28 -283 -5 -231 -5 -234 -29 -253 -16 -13 -39 -19 -71 -19 l-49 0 -3 278
c-3 259 -4 280 -25 324 -29 63 -59 82 -127 76 -67 -6 -109 -35 -141 -99 -34
-66 -45 -152 -45 -361 l0 -177 -26 -20 c-19 -15 -41 -21 -75 -21 l-49 0 0 395
0 395 48 0 c57 0 88 -19 97 -61 l7 -31 38 37 c77 75 212 95 313 46z m1782 -2
c82 -31 173 -121 205 -204 34 -89 39 -222 11 -312 -36 -117 -123 -210 -238
-253 -49 -19 -73 -21 -158 -18 -88 4 -107 8 -160 35 -197 101 -276 348 -179
562 28 63 103 145 162 175 98 51 246 57 357 15z m891 6 c57 -23 111 -81 136
-145 21 -51 23 -74 26 -321 4 -313 5 -309 -91 -317 l-57 -4 0 213 c-1 247 -11
345 -41 399 -53 94 -204 94 -283 -1 -55 -65 -60 -87 -63 -319 -2 -118 -8 -227
-14 -241 -13 -33 -47 -49 -104 -49 l-45 0 0 395 0 395 53 0 c66 0 97 -24 97
-76 l0 -35 31 36 c58 66 142 97 245 91 38 -2 88 -12 110 -21z"/>
<path d="M3534 991 c-51 -23 -108 -90 -128 -149 -20 -58 -20 -164 0 -231 20
-67 92 -144 149 -160 117 -32 226 19 276 131 19 43 24 70 24 143 0 100 -21
164 -73 219 -60 63 -167 84 -248 47z"/>
<path d="M3664 5895 c-332 -72 -616 -380 -810 -877 -20 -54 -40 -98 -44 -98
-3 0 -53 43 -110 96 -192 176 -313 241 -491 263 -229 29 -462 -85 -561 -275
-46 -90 -62 -160 -55 -243 13 -146 70 -251 232 -427 57 -61 110 -125 118 -141
45 -86 29 -172 -47 -249 -87 -87 -212 -103 -333 -44 -102 51 -116 91 -65 188
39 75 46 116 27 178 -42 144 -225 171 -299 44 -32 -54 -29 -167 6 -242 66
-142 220 -244 426 -284 102 -19 195 -18 286 6 236 60 385 220 403 431 12 139
-50 259 -247 480 -120 136 -146 186 -137 265 10 96 97 185 195 200 99 15 257
-37 368 -122 28 -22 98 -81 156 -133 100 -89 106 -96 96 -120 -18 -48 -95
-375 -123 -521 -144 -761 -197 -956 -314 -1154 -94 -159 -236 -267 -356 -270
-46 -1 -59 3 -71 19 -25 33 -13 66 36 103 56 42 69 65 70 119 0 78 -40 139
-115 174 -106 49 -235 -3 -291 -117 -22 -45 -26 -64 -22 -112 15 -202 227
-312 494 -257 311 65 605 335 804 740 108 218 188 500 266 936 l37 206 151 0
c171 1 257 18 367 73 76 39 161 117 189 174 38 81 18 199 -42 238 -59 38 -133
27 -185 -28 -48 -51 -51 -85 -14 -155 49 -93 40 -124 -48 -169 -71 -36 -166
-52 -283 -48 -59 2 -109 6 -112 9 -7 7 56 342 93 494 95 388 234 570 444 582
84 6 123 -6 139 -42 10 -23 8 -35 -21 -92 -29 -56 -33 -72 -29 -119 6 -71 47
-117 119 -134 127 -31 232 60 232 199 0 124 -93 218 -255 256 -77 18 -192 18
-274 0z"/>
<path d="M5491 718 c-220 -612 -231 -634 -325 -688 l-51 -30 258 0 257 0 0
545 c0 300 -1 545 -3 545 -1 0 -63 -168 -136 -372z"/>
</g>
</svg>
