<?xml version="1.0" standalone="no"?>
<!DOCTYPE svg PUBLIC "-//W3C//DTD SVG 20010904//EN"
 "http://www.w3.org/TR/2001/REC-SVG-20010904/DTD/svg10.dtd">
<svg version="1.0" xmlns="http://www.w3.org/2000/svg"
 width="324.000000pt" height="262.000000pt" viewBox="0 0 324.000000 262.000000"
 preserveAspectRatio="xMidYMid meet">
<metadata>
Created by potrace 1.15, written by Peter Selinger 2001-2017
</metadata>
<g transform="translate(0.000000,262.000000) scale(0.100000,-0.100000)"
fill="#000000" stroke="none">
<path d="M470 1481 c0 -659 3 -841 13 -849 7 -6 120 -12 292 -15 154 -2 290
-7 303 -12 18 -6 22 -15 22 -51 0 -32 -4 -44 -15 -44 -8 0 -15 -4 -15 -9 0
-16 100 -20 673 -27 l567 -7 0 -92 c0 -104 5 -125 29 -125 19 1 491 375 491
391 0 26 -28 53 -160 159 l-140 112 0 688 0 689 -22 15 c-20 14 -134 16 -1030
16 l-1008 0 0 -839z m1820 14 l0 -625 -810 0 -810 0 0 625 0 625 810 0 810 0
0 -625z"/>
<path d="M893 1975 c-8 -22 212 -664 234 -680 33 -25 174 -34 190 -12 5 6 36
98 68 202 32 105 77 245 100 312 24 67 43 137 42 155 l-2 33 -82 3 c-70 2 -83
0 -91 -15 -5 -10 -37 -114 -72 -230 -35 -117 -66 -213 -70 -213 -3 0 -33 91
-67 203 -87 288 -68 257 -163 257 -63 0 -82 -3 -87 -15z"/>
<path d="M1517 1713 c-4 -3 -7 -159 -7 -345 0 -294 2 -338 15 -338 8 0 15 -7
15 -16 0 -24 327 -16 385 9 115 51 155 158 101 274 -13 28 -37 61 -53 73 l-29
21 38 38 c34 34 38 44 38 87 -1 99 -52 163 -153 190 -54 14 -337 20 -350 7z
m307 -423 c22 -8 26 -16 26 -49 0 -53 -26 -71 -102 -71 l-58 0 0 58 c0 32 3
62 7 65 10 10 98 8 127 -3z"/>
<path d="M2156 1599 c2 -3 -7 -11 -19 -18 -15 -8 -28 -31 -40 -71 -21 -73 -21
-91 -1 -177 44 -189 -41 -329 -231 -379 -62 -17 -226 -18 -280 -2 -22 6 -43
11 -47 10 -5 -1 -8 3 -8 8 0 5 -3 9 -7 8 -16 -4 -73 33 -94 62 -12 16 -26 27
-31 24 -4 -3 -8 4 -8 16 0 12 -4 18 -10 15 -5 -3 -10 -2 -10 3 0 13 -41 2 -58
-15 -7 -7 -10 -13 -5 -13 4 0 -14 -20 -40 -43 -26 -24 -47 -49 -47 -55 0 -7
-8 -12 -17 -12 -13 0 -14 -3 -6 -8 9 -6 7 -12 -7 -22 -11 -8 -20 -18 -20 -22
0 -4 245 -8 545 -8 l545 0 0 349 0 349 -54 4 c-30 1 -52 0 -50 -3z"/>
</g>
</svg>
